# Blender v2.83 (sub 9) OBJ File: 'door.blend'
# www.blender.org
mtllib door.mtl
o Door_Cube.002
v 0.033059 -0.027168 -0.877377
v 0.014683 -0.027168 -1.149092
v 0.014259 -0.027168 0.558400
v 0.032250 -0.027168 0.286685
v -0.082950 -0.022883 0.337531
v -0.082950 2.117656 0.337531
v -0.084478 -0.022883 -0.957109
v -0.084478 2.117656 -0.957109
v -0.228371 -0.027167 -0.877306
v -0.243766 -0.027167 -0.889945
v -0.228366 2.100814 -0.877329
v -0.243234 2.100805 -0.889942
v -0.255767 -0.027170 -1.136615
v -0.245244 -0.027169 -1.149070
v -0.245257 2.100815 -1.149077
v -0.256338 2.100824 -1.136588
v 0.033040 2.100814 -0.877377
v 0.014675 2.100814 -1.149092
v -0.245563 -0.027169 0.558379
v -0.256082 -0.027167 0.545922
v -0.245576 2.100815 0.558386
v -0.256658 2.100822 0.545895
v -0.244362 -0.027171 0.299256
v -0.228968 -0.027167 0.286613
v -0.228963 2.100814 0.286637
v -0.243825 2.100807 0.299252
v 0.014253 2.100814 0.558400
v 0.032231 2.100814 0.286685
v -0.368051 2.094218 -1.283646
v -0.368020 2.081694 -1.271092
v -0.380223 2.094190 -1.271111
v -0.367997 2.081694 0.649086
v -0.368051 2.094218 0.661640
v -0.380213 2.094190 0.649106
v -0.368051 2.340821 -1.283646
v -0.381032 2.340826 -1.271065
v -0.368042 2.353367 -1.271091
v -0.368051 2.340821 0.661640
v -0.368042 2.353367 0.649085
v -0.381030 2.340826 0.649058
v 0.019633 2.081662 -1.271090
v 0.019518 2.094218 -1.283646
v 0.019754 2.094218 0.661640
v 0.019950 2.081662 0.649084
v 0.019431 2.340821 -1.283646
v 0.019440 2.353377 -1.271090
v 0.019562 2.353377 0.649084
v 0.019491 2.340821 0.661640
v -0.154396 1.079989 0.172891
v -0.154396 1.091759 0.184661
v -0.166167 1.091759 0.172891
v -0.154396 1.190477 0.184661
v -0.154396 1.202248 0.172891
v -0.166167 1.190477 0.172891
v -0.154396 1.079989 0.074173
v -0.166167 1.091759 0.074173
v -0.154396 1.091759 0.062402
v -0.154378 1.202248 0.074173
v -0.154394 1.190477 0.062402
v -0.166167 1.190477 0.074173
v -0.055679 1.079989 0.172891
v -0.055679 1.091759 0.184661
v -0.055679 1.202248 0.172891
v -0.055679 1.190477 0.184661
v -0.055679 1.079989 0.074173
v -0.055679 1.091759 0.062402
v -0.055642 1.202248 0.074173
v -0.055668 1.190477 0.062402
v -0.058106 -0.022883 -0.633449
v -0.044221 -0.022883 -0.309789
v -0.056682 -0.022883 0.013871
v -0.056682 2.117656 0.013871
v -0.044221 2.117656 -0.309789
v -0.058106 2.117656 -0.633449
v -0.064273 -0.022883 -0.653038
v -0.064273 2.117656 -0.653038
v -0.087643 2.117656 -0.937519
v -0.087643 -0.022883 -0.937519
v -0.086079 -0.022883 0.317942
v -0.086079 2.117656 0.317942
v -0.062799 2.117656 0.033460
v -0.062799 -0.022883 0.033460
v -0.059998 -0.022883 -0.005718
v -0.059998 2.117656 -0.005718
v -0.048915 2.117656 -0.290200
v -0.048915 -0.022883 -0.290200
v -0.048982 -0.022883 -0.329378
v -0.048982 2.117656 -0.329378
v -0.061376 2.117656 -0.613859
v -0.061376 -0.022883 -0.613859
v -0.240369 0.846353 0.535501
v -0.252468 0.846353 0.524964
v -0.240279 0.846353 0.309677
v -0.249149 0.846353 0.320028
v -0.024911 0.846353 0.535479
v -0.024911 0.846353 0.309605
v -0.238441 0.803409 -0.905706
v -0.246833 0.803409 -0.915567
v -0.238530 0.803409 -1.120855
v -0.250117 0.803409 -1.110809
v -0.033255 0.803409 -0.905635
v -0.033255 0.803409 -1.120833
v -0.310715 2.105536 0.075918
v -0.322302 2.115972 0.075918
v -0.315754 2.329468 0.075918
v -0.325652 2.319101 0.075918
v 0.020194 2.105585 0.075918
v 0.013724 2.329454 0.075918
v -0.346653 2.115649 -0.682099
v -0.337954 2.329767 -0.682089
v -0.013811 2.329766 -0.682088
v -0.335970 2.105270 -0.682090
v -0.348371 2.319391 -0.682076
v -0.011181 2.105273 -0.682088
vt 0.472006 0.750000
vt 0.623534 0.750000
vt 0.623534 0.988447
vt 0.472006 0.988447
vt 0.499267 0.011553
vt 0.623534 0.011553
vt 0.623534 0.238447
vt 0.499267 0.238447
vt 0.472006 0.261553
vt 0.623534 0.261553
vt 0.623534 0.500000
vt 0.472006 0.500000
vt 0.499267 0.750000
vt 0.623534 0.750000
vt 0.623534 0.988447
vt 0.499267 0.988447
vt 0.132847 0.511553
vt 0.375000 0.511553
vt 0.375000 0.738447
vt 0.132847 0.738447
vt 0.499267 0.261553
vt 0.623534 0.261553
vt 0.623534 0.500000
vt 0.499267 0.500000
vt 0.500000 0.750000
vt 0.623386 0.750000
vt 0.623386 0.992153
vt 0.500000 0.992153
vt 0.625000 0.511553
vt 0.867153 0.511553
vt 0.867153 0.738447
vt 0.625000 0.738447
vt 0.500000 0.011553
vt 0.623386 0.011553
vt 0.623386 0.238447
vt 0.500000 0.238447
vt 0.500000 0.257847
vt 0.623386 0.257847
vt 0.623386 0.500000
vt 0.500000 0.500000
vt 0.132847 0.750000
vt 0.125000 0.738447
vt 0.625000 0.992153
vt 0.623386 1.000000
vt 0.125000 0.511553
vt 0.132847 0.500000
vt 0.867153 0.500000
vt 0.875000 0.511553
vt 0.623534 1.000000
vt 0.472006 1.000000
vt 0.375000 0.261553
vt 0.375000 0.238447
vt 0.472006 0.238447
vt 0.623534 1.000000
vt 0.499267 1.000000
vt 0.375000 0.261553
vt 0.375000 0.238447
vt 0.500000 1.000000
vt 0.875000 0.738447
vt 0.430566 0.257847
vt 0.376614 0.257847
vt 0.376614 0.238447
vt 0.430566 0.238447
vt 0.375000 0.500000
vt 0.625000 0.500000
vt 0.375000 0.750000
vt 0.867153 0.750000
vt 0.625000 0.750000
vt 0.472006 0.011553
vt 0.623534 0.011553
vt 0.623534 0.238447
vt 0.375000 0.988447
vt 0.375000 1.000000
vt 0.375000 0.500000
vt 0.375000 0.750000
vt 0.375000 0.011553
vt 0.375000 0.011553
vt 0.375000 0.988447
vt 0.375000 1.000000
vt 0.375000 0.500000
vt 0.375000 0.750000
vt 0.430566 0.992153
vt 0.430566 1.000000
vt 0.430566 0.500000
vt 0.430566 0.011553
vt 0.430566 0.750000
vt 0.376614 0.750000
vt 0.376614 0.992153
vt 0.376614 0.011553
vt 0.376614 0.500000
vt 0.376614 1.000000
vt 0.399069 0.774069
vt 0.600931 0.774069
vt 0.600931 0.975931
vt 0.399069 0.975931
vt 0.649069 0.524069
vt 0.850931 0.524069
vt 0.850931 0.725931
vt 0.649069 0.725931
vt 0.399069 0.024069
vt 0.600931 0.024069
vt 0.600931 0.225931
vt 0.399069 0.225931
vt 0.399069 0.274069
vt 0.600931 0.274069
vt 0.600931 0.475931
vt 0.399069 0.475931
vt 0.149069 0.725931
vt 0.149069 0.750000
vt 0.125000 0.725931
vt 0.625000 0.975931
vt 0.600931 1.000000
vt 0.149069 0.524069
vt 0.125000 0.524069
vt 0.149069 0.500000
vt 0.850931 0.500000
vt 0.875000 0.524069
vt 0.399069 1.000000
vt 0.875000 0.725931
vt 0.350931 0.524069
vt 0.350931 0.500000
vt 0.649069 0.500000
vt 0.350931 0.725931
vt 0.350931 0.750000
vt 0.850931 0.750000
vt 0.649069 0.750000
vt 0.375000 0.187500
vt 0.625000 0.187500
vt 0.625000 0.250000
vt 0.375000 0.250000
vt 0.625000 0.187500
vt 0.375000 0.187500
vt 0.625000 0.250000
vt 0.375000 0.250000
vt 0.375000 0.000000
vt 0.625000 0.000000
vt 0.625000 0.062500
vt 0.375000 0.062500
vt 0.625000 0.000000
vt 0.375000 0.000000
vt 0.625000 0.062500
vt 0.375000 0.062500
vt 0.375000 0.062500
vt 0.625000 0.062500
vt 0.625000 0.125000
vt 0.375000 0.125000
vt 0.625000 0.125000
vt 0.375000 0.125000
vt 0.375000 0.125000
vt 0.625000 0.125000
vt 0.625000 0.187500
vt 0.375000 0.187500
vn -0.0001 -0.0218 0.9998
vn -0.9994 0.0005 -0.0357
vn 0.0000 -0.0218 -0.9998
vn 0.0000 -0.0183 0.9998
vn 0.0000 0.0000 -1.0000
vn -0.0001 -0.0183 -0.9998
vn 0.0000 -0.9991 -0.0416
vn 0.0000 0.0000 1.0000
vn -0.9951 -0.0092 -0.0983
vn 0.0000 0.9991 -0.0417
vn -0.5868 -0.5740 -0.5711
vn -0.5868 -0.5745 0.5706
vn -0.5649 0.5839 -0.5831
vn -0.5650 0.5839 0.5830
vn -0.6948 -0.0113 0.7191
vn -0.7130 0.0281 -0.7006
vn -0.7047 -0.0150 0.7094
vn -0.6878 0.0119 -0.7258
vn -0.7066 -0.0011 -0.7076
vn -0.6905 -0.7167 -0.0979
vn -0.7067 -0.0011 0.7075
vn -0.6981 0.7131 0.0644
vn -0.0000 0.7072 -0.7070
vn -0.0000 0.7072 0.7070
vn -0.0000 -0.7075 -0.7067
vn -0.0000 -0.7075 0.7067
vn -0.9993 -0.0010 0.0371
vn -0.6954 -0.0079 -0.7186
vn -0.7128 0.0212 0.7011
vn 0.0000 0.0263 -0.9997
vn -0.0000 0.0262 0.9997
vn -0.9994 -0.0007 -0.0333
vn -0.9994 0.0015 0.0346
vn -0.7049 -0.0183 -0.7091
vn -0.6871 0.0182 0.7264
vn 0.0000 0.0340 -0.9994
vn 0.0000 0.0341 0.9994
vn -0.7042 0.7037 -0.0942
vn -0.6827 -0.7304 0.0226
vn 0.0000 1.0000 0.0004
vn -0.9994 -0.0125 0.0310
vn 0.0001 -1.0000 0.0004
vn -0.0000 -0.9992 0.0400
vn -0.9984 -0.0056 0.0561
vn -0.0000 0.9992 0.0400
vn -0.7054 -0.7057 0.0663
vn -0.7142 0.6996 0.0214
vn 0.0000 1.0000 -0.0000
vn -1.0000 0.0000 0.0000
vn -0.5774 -0.5774 0.5773
vn -0.5773 0.5774 0.5773
vn -0.5774 -0.5774 -0.5773
vn -0.5770 0.5779 -0.5771
vn -0.7071 -0.7071 0.0000
vn -0.7071 0.0000 0.7071
vn -0.7068 0.7074 -0.0001
vn -0.7071 0.0000 -0.7071
vn 0.0000 -0.7071 -0.7071
vn 0.0000 0.7071 -0.7071
vn 0.0000 -0.7071 0.7071
vn 0.0000 0.7071 0.7071
vn 0.0000 -1.0000 0.0000
vn -0.9966 0.0000 0.0819
vn -0.9538 0.0000 0.3003
vn -0.9872 0.0000 -0.1595
vn -0.9967 0.0000 -0.0816
vn -0.9875 0.0000 0.1577
vn -0.9545 0.0000 -0.2981
vn -0.9992 0.0000 -0.0389
vn -0.9860 0.0000 0.1669
vn -0.9725 -0.0000 -0.2330
vn -0.9991 -0.0000 0.0435
vn -0.9717 0.0000 0.2362
vn -0.9863 0.0000 -0.1647
usemtl Planks
s off
f 101/1/1 17/2/1 11/3/1 97/4/1
f 92/5/2 22/6/2 26/7/2 94/8/2
f 99/9/3 15/10/3 18/11/3 102/12/3
f 95/13/4 27/14/4 21/15/4 91/16/4
f 35/17/5 45/18/5 42/19/5 29/20/5
f 93/21/6 25/22/6 28/23/6 96/24/6
f 107/25/7 44/26/7 32/27/7 103/28/7
f 48/29/8 38/30/8 33/31/8 43/32/8
f 104/33/9 34/34/9 40/35/9 106/36/9
f 105/37/10 39/38/10 47/39/10 108/40/10
f 29/20/11 30/41/11 31/42/11
f 32/27/12 33/43/12 34/44/12
f 35/17/13 36/45/13 37/46/13
f 38/30/14 39/47/14 40/48/14
f 97/4/15 11/3/15 12/49/15 98/50/15
f 99/9/16 14/51/16 13/52/16 100/53/16
f 91/16/17 21/15/17 22/54/17 92/55/17
f 93/21/18 24/56/18 23/57/18 94/8/18
f 35/17/19 29/20/19 31/42/19 36/45/19
f 103/28/20 32/27/20 34/44/20 104/58/20
f 33/31/21 38/30/21 40/48/21 34/59/21
f 110/60/22 37/61/22 36/62/22 113/63/22
f 45/18/23 35/17/23 37/46/23 46/64/23
f 38/30/24 48/29/24 47/65/24 39/47/24
f 29/20/25 42/19/25 41/66/25 30/41/25
f 43/32/26 33/31/26 32/67/26 44/68/26
f 98/69/27 12/70/27 16/71/27 100/53/27
f 25/22/28 93/21/28 94/8/28 26/7/28
f 19/72/29 91/16/29 92/55/29 20/73/29
f 24/56/30 93/21/30 96/24/30 4/74/30
f 3/75/31 95/13/31 91/16/31 19/72/31
f 20/76/32 92/5/32 94/8/32 23/57/32
f 10/77/33 98/69/33 100/53/33 13/52/33
f 15/10/34 99/9/34 100/53/34 16/71/34
f 9/78/35 97/4/35 98/50/35 10/79/35
f 14/51/36 99/9/36 102/12/36 2/80/36
f 1/81/37 101/1/37 97/4/37 9/78/37
f 39/38/38 105/37/38 106/36/38 40/35/38
f 112/82/39 103/28/39 104/58/39 109/83/39
f 110/60/40 105/37/40 108/40/40 111/84/40
f 109/85/41 104/33/41 106/36/41 113/63/41
f 114/86/42 107/25/42 103/28/42 112/82/42
f 41/87/43 114/86/43 112/82/43 30/88/43
f 31/89/44 109/85/44 113/63/44 36/62/44
f 37/61/45 110/60/45 111/84/45 46/90/45
f 30/88/46 112/82/46 109/83/46 31/91/46
f 105/37/47 110/60/47 113/63/47 106/36/47
usemtl Iron
f 62/92/8 64/93/8 52/94/8 50/95/8
f 67/96/48 58/97/48 53/98/48 63/99/48
f 51/100/49 54/101/49 60/102/49 56/103/49
f 57/104/5 59/105/5 68/106/5 66/107/5
f 49/108/50 50/109/50 51/110/50
f 52/94/51 53/111/51 54/112/51
f 55/113/52 56/114/52 57/115/52
f 58/97/53 59/116/53 60/117/53
f 55/113/54 49/108/54 51/110/54 56/114/54
f 50/95/55 52/94/55 54/112/55 51/118/55
f 53/98/56 58/97/56 60/117/56 54/119/56
f 59/105/57 57/104/57 56/103/57 60/102/57
f 65/120/58 55/113/58 57/115/58 66/121/58
f 58/97/59 67/96/59 68/122/59 59/116/59
f 49/108/60 61/123/60 62/124/60 50/109/60
f 63/99/61 53/98/61 52/125/61 64/126/61
f 55/113/62 65/120/62 61/123/62 49/108/62
usemtl Door
f 75/127/63 76/128/63 77/129/63 78/130/63
f 74/131/64 76/128/64 75/127/64 69/132/64
f 8/133/48 77/129/48 76/128/48 74/131/48
f 7/134/65 78/130/65 77/129/65 8/133/65
f 69/132/62 75/127/62 78/130/62 7/134/62
f 79/135/66 80/136/66 81/137/66 82/138/66
f 6/139/67 80/136/67 79/135/67 5/140/67
f 72/141/48 81/137/48 80/136/48 6/139/48
f 71/142/68 82/138/68 81/137/68 72/141/68
f 5/140/62 79/135/62 82/138/62 71/142/62
f 83/143/69 84/144/69 85/145/69 86/146/69
f 72/141/70 84/144/70 83/143/70 71/142/70
f 73/147/48 85/145/48 84/144/48 72/141/48
f 70/148/71 86/146/71 85/145/71 73/147/71
f 71/142/62 83/143/62 86/146/62 70/148/62
f 87/149/72 88/150/72 89/151/72 90/152/72
f 73/147/73 88/150/73 87/149/73 70/148/73
f 74/131/48 89/151/48 88/150/48 73/147/48
f 69/132/74 90/152/74 89/151/74 74/131/74
f 70/148/62 87/149/62 90/152/62 69/132/62
o COLLISION_Cube
v -0.083507 -0.067069 0.310742
v -0.083507 2.124007 0.310742
v -0.083507 -0.067069 -0.894499
v -0.083507 2.124007 -0.894499
v 0.042322 -0.067069 0.310742
v 0.042322 2.124007 0.310742
v 0.042322 -0.067069 -0.894499
v 0.042322 2.124007 -0.894499
v -0.261749 -0.036692 -0.877862
v -0.261749 2.093629 -0.877862
v -0.261749 -0.036692 -1.146092
v -0.261749 2.093629 -1.146092
v -0.026106 -0.036692 -0.877862
v -0.026106 2.093629 -0.877862
v -0.026106 -0.036692 -1.146092
v -0.026106 2.093629 -1.146092
v -0.261749 -0.036692 0.552501
v -0.261749 2.093629 0.552501
v -0.261749 -0.036692 0.284272
v -0.261749 2.093629 0.284272
v -0.026106 -0.036692 0.552501
v -0.026106 2.093629 0.552501
v -0.026106 -0.036692 0.284272
v -0.026106 2.093629 0.284272
v -0.393605 2.087600 -1.290182
v -0.393605 2.087600 0.672466
v -0.393605 2.355829 -1.290182
v -0.393605 2.355829 0.672466
v -0.007514 2.087600 -1.290182
v -0.007514 2.087600 0.672466
v -0.007514 2.355829 -1.290182
v -0.007514 2.355829 0.672466
vt 0.375000 0.000000
vt 0.625000 0.000000
vt 0.625000 0.250000
vt 0.375000 0.250000
vt 0.625000 0.500000
vt 0.375000 0.500000
vt 0.625000 0.750000
vt 0.375000 0.750000
vt 0.625000 1.000000
vt 0.375000 1.000000
vt 0.125000 0.500000
vt 0.125000 0.750000
vt 0.875000 0.500000
vt 0.875000 0.750000
vt 0.375000 0.000000
vt 0.625000 0.000000
vt 0.625000 0.250000
vt 0.375000 0.250000
vt 0.625000 0.500000
vt 0.375000 0.500000
vt 0.625000 0.750000
vt 0.375000 0.750000
vt 0.625000 1.000000
vt 0.375000 1.000000
vt 0.125000 0.500000
vt 0.125000 0.750000
vt 0.875000 0.500000
vt 0.875000 0.750000
vt 0.375000 0.000000
vt 0.625000 0.000000
vt 0.625000 0.250000
vt 0.375000 0.250000
vt 0.625000 0.500000
vt 0.375000 0.500000
vt 0.625000 0.750000
vt 0.375000 0.750000
vt 0.625000 1.000000
vt 0.375000 1.000000
vt 0.125000 0.500000
vt 0.125000 0.750000
vt 0.875000 0.500000
vt 0.875000 0.750000
vt 0.375000 0.000000
vt 0.625000 0.000000
vt 0.625000 0.250000
vt 0.375000 0.250000
vt 0.625000 0.500000
vt 0.375000 0.500000
vt 0.625000 0.750000
vt 0.375000 0.750000
vt 0.625000 1.000000
vt 0.375000 1.000000
vt 0.125000 0.500000
vt 0.125000 0.750000
vt 0.875000 0.500000
vt 0.875000 0.750000
vn -1.0000 0.0000 0.0000
vn 0.0000 0.0000 -1.0000
vn 1.0000 0.0000 0.0000
vn 0.0000 0.0000 1.0000
vn 0.0000 -1.0000 0.0000
vn 0.0000 1.0000 0.0000
usemtl None
s off
f 115/153/75 116/154/75 118/155/75 117/156/75
f 117/156/76 118/155/76 122/157/76 121/158/76
f 121/158/77 122/157/77 120/159/77 119/160/77
f 119/160/78 120/159/78 116/161/78 115/162/78
f 117/163/79 121/158/79 119/160/79 115/164/79
f 122/157/80 118/165/80 116/166/80 120/159/80
f 123/167/75 124/168/75 126/169/75 125/170/75
f 125/170/76 126/169/76 130/171/76 129/172/76
f 129/172/77 130/171/77 128/173/77 127/174/77
f 127/174/78 128/173/78 124/175/78 123/176/78
f 125/177/79 129/172/79 127/174/79 123/178/79
f 130/171/80 126/179/80 124/180/80 128/173/80
f 131/181/75 132/182/75 134/183/75 133/184/75
f 133/184/76 134/183/76 138/185/76 137/186/76
f 137/186/77 138/185/77 136/187/77 135/188/77
f 135/188/78 136/187/78 132/189/78 131/190/78
f 133/191/79 137/186/79 135/188/79 131/192/79
f 138/185/80 134/193/80 132/194/80 136/187/80
f 139/195/75 140/196/75 142/197/75 141/198/75
f 141/198/80 142/197/80 146/199/80 145/200/80
f 145/200/77 146/199/77 144/201/77 143/202/77
f 143/202/79 144/201/79 140/203/79 139/204/79
f 141/205/76 145/200/76 143/202/76 139/206/76
f 146/199/78 142/207/78 140/208/78 144/201/78
