# Blender v2.83 (sub 9) OBJ File: 'plate.blend'
# www.blender.org
mtllib plate.mtl
o Cylinder
v 0.000000 0.000721 -0.117216
v 0.000000 0.011541 -0.117216
v 0.091643 0.000721 -0.073083
v 0.091643 0.011541 -0.073083
v 0.114277 0.000721 0.026083
v 0.114277 0.011541 0.026083
v 0.050858 0.000721 0.105608
v 0.050858 0.011541 0.105608
v -0.050858 0.000721 0.105608
v -0.050858 0.011541 0.105608
v -0.114277 0.000721 0.026083
v -0.114277 0.011541 0.026083
v -0.091643 0.000721 -0.073083
v -0.091643 0.011541 -0.073083
v 0.112947 0.026402 -0.090072
v 0.000000 0.026402 -0.144464
v 0.140842 0.026402 0.032146
v 0.062681 0.026402 0.130158
v -0.062681 0.026402 0.130158
v -0.140842 0.026402 0.032146
v -0.112947 0.026402 -0.090072
v 0.062687 0.007448 -0.049991
v 0.000000 0.007448 -0.080180
v 0.078169 0.007448 0.017842
v 0.034789 0.007448 0.072239
v -0.034789 0.007448 0.072239
v -0.078169 0.007448 0.017842
v -0.062687 0.007448 -0.049991
v 0.109414 0.037097 -0.087255
v 0.112947 0.035297 -0.090072
v 0.000000 0.035297 -0.144464
v 0.000000 0.037097 -0.139946
v 0.136437 0.037097 0.031141
v 0.140842 0.035297 0.032146
v 0.060720 0.037097 0.126087
v 0.062681 0.035297 0.130158
v -0.060720 0.037097 0.126087
v -0.062681 0.035297 0.130158
v -0.136437 0.037097 0.031141
v -0.140842 0.035297 0.032146
v -0.109414 0.037097 -0.087255
v -0.112947 0.035297 -0.090072
vt 1.000000 0.500000
vt 1.000000 1.000000
vt 0.857143 1.000000
vt 0.857143 0.500000
vt 0.714286 1.000000
vt 0.714286 0.500000
vt 0.571429 1.000000
vt 0.571429 0.500000
vt 0.428571 1.000000
vt 0.428571 0.500000
vt 0.285714 1.000000
vt 0.285714 0.500000
vt 0.571429 1.000000
vt 0.428571 1.000000
vt 0.142857 1.000000
vt 0.142857 0.500000
vt 0.000000 1.000000
vt 0.000000 0.500000
vt 0.750000 0.490000
vt 0.937640 0.399638
vt 0.983983 0.196595
vt 0.854132 0.033767
vt 0.645868 0.033767
vt 0.516017 0.196595
vt 0.562360 0.399638
vt 0.186977 0.119131
vt 0.108388 0.217678
vt 0.018870 0.197246
vt 0.147137 0.036404
vt 0.142857 1.000000
vt 0.000000 1.000000
vt 0.857143 1.000000
vt 0.714286 1.000000
vt 0.285714 1.000000
vt 1.000000 1.000000
vt 0.363564 0.340564
vt 0.250000 0.395254
vt 0.136436 0.340564
vt 0.313023 0.119131
vt 0.391612 0.217678
vt 1.000000 1.000000
vt 0.857143 1.000000
vt 0.352862 0.036404
vt 0.481130 0.197246
vt 0.064648 0.397813
vt 0.435352 0.397813
vt 0.714286 1.000000
vt 0.250000 0.487074
vt 0.571429 1.000000
vt 0.428571 1.000000
vt 0.285714 1.000000
vt 0.142857 1.000000
vt 0.000000 1.000000
vt 0.999018 1.000000
vt 0.858124 1.000000
vt 0.856161 1.000000
vt 0.715267 1.000000
vt 0.713304 1.000000
vt 0.572410 1.000000
vt 0.570447 1.000000
vt 0.429553 1.000000
vt 0.427590 1.000000
vt 0.286696 1.000000
vt 0.284733 1.000000
vt 0.143839 1.000000
vt 0.141876 1.000000
vt 0.000982 1.000000
vn 0.4339 0.0000 -0.9010
vn 0.9749 0.0000 -0.2225
vn 0.7818 0.0000 0.6235
vn -0.0000 0.0000 1.0000
vn -0.7818 0.0000 0.6235
vn -0.0000 -0.8555 0.5179
vn -0.9749 0.0000 -0.2225
vn -0.4339 0.0000 -0.9010
vn 0.0000 -1.0000 0.0000
vn 0.3771 0.8760 -0.3007
vn -0.2247 -0.8555 -0.4666
vn 0.5049 -0.8555 -0.1152
vn -0.4049 -0.8555 0.3229
vn 0.2247 -0.8555 -0.4666
vn 0.4049 -0.8555 0.3229
vn -0.5049 -0.8555 -0.1152
vn 0.0000 1.0000 -0.0000
vn -0.3771 0.8760 -0.3007
vn 0.4702 0.8760 0.1073
vn 0.0000 0.8760 -0.4823
vn -0.4702 0.8760 0.1073
vn 0.2093 0.8760 0.4346
vn 0.1754 0.9146 -0.3643
vn 0.3942 0.9146 -0.0900
vn 0.3161 0.9146 0.2521
vn 0.0000 0.9146 0.4044
vn -0.3161 0.9146 0.2521
vn -0.3942 0.9146 -0.0900
vn -0.1754 0.9146 -0.3643
vn -0.2093 0.8760 0.4346
usemtl Wood
s off
f 1/1/1 2/2/1 4/3/1 3/4/1
f 3/4/2 4/3/2 6/5/2 5/6/2
f 5/6/3 6/5/3 8/7/3 7/8/3
f 7/8/4 8/7/4 10/9/4 9/10/4
f 9/10/5 10/9/5 12/11/5 11/12/5
f 10/9/6 8/7/6 18/13/6 19/14/6
f 11/12/7 12/11/7 14/15/7 13/16/7
f 13/16/8 14/15/8 2/17/8 1/18/8
f 1/19/9 3/20/9 5/21/9 7/22/9 9/23/9 11/24/9 13/25/9
f 26/26/10 27/27/10 39/28/10 37/29/10
f 2/17/11 14/15/11 21/30/11 16/31/11
f 6/5/12 4/3/12 15/32/12 17/33/12
f 12/11/13 10/9/13 19/14/13 20/34/13
f 4/3/14 2/2/14 16/35/14 15/32/14
f 8/7/15 6/5/15 17/33/15 18/13/15
f 14/15/16 12/11/16 20/34/16 21/30/16
f 22/36/17 23/37/17 28/38/17 27/27/17 26/26/17 25/39/17 24/40/17
f 15/32/1 16/35/1 31/41/1 30/42/1
f 24/40/18 25/39/18 35/43/18 33/44/18
f 27/27/19 28/38/19 41/45/19 39/28/19
f 25/39/20 26/26/20 37/29/20 35/43/20
f 22/36/21 24/40/21 33/44/21 29/46/21
f 17/33/2 15/32/2 30/42/2 34/47/2
f 28/38/22 23/37/22 32/48/22 41/45/22
f 18/13/3 17/33/3 34/47/3 36/49/3
f 19/14/4 18/13/4 36/49/4 38/50/4
f 20/34/5 19/14/5 38/50/5 40/51/5
f 21/30/7 20/34/7 40/51/7 42/52/7
f 16/31/8 21/30/8 42/52/8 31/53/8
f 30/42/23 31/41/23 32/54/23 29/55/23
f 34/47/24 30/42/24 29/56/24 33/57/24
f 36/49/25 34/47/25 33/58/25 35/59/25
f 38/50/26 36/49/26 35/60/26 37/61/26
f 40/51/27 38/50/27 37/62/27 39/63/27
f 42/52/28 40/51/28 39/64/28 41/65/28
f 31/53/29 42/52/29 41/66/29 32/67/29
f 23/37/30 22/36/30 29/46/30 32/48/30
o COLLISION_Cylinder.001
v 0.112947 0.035297 -0.090072
v 0.000000 0.035297 -0.144464
v 0.140842 0.035297 0.032146
v 0.062681 0.035297 0.130158
v -0.062681 0.035297 0.130158
v -0.140842 0.035297 0.032146
v -0.112947 0.035297 -0.090072
v 0.092426 0.000757 -0.076246
v 0.000000 0.000757 -0.122290
v 0.115253 0.000757 0.027212
v 0.051293 0.000757 0.110179
v -0.051293 0.000757 0.110179
v -0.115253 0.000757 0.027212
v -0.092426 0.000757 -0.076246
vt 0.000000 0.000000
vt 0.000000 0.000000
vt 0.000000 0.000000
vt 0.000000 0.000000
vt 0.000000 0.000000
vt 0.000000 0.000000
vt 0.000000 0.000000
vt 0.000000 0.000000
vt 0.000000 0.000000
vt 0.000000 0.000000
vt 0.000000 0.000000
vt 0.000000 0.000000
vt 0.000000 0.000000
vt 0.000000 0.000000
vn -0.3769 -0.5136 -0.7708
vn -0.6613 -0.5413 0.5193
vn 0.6613 -0.5413 0.5193
vn 0.3769 -0.5136 -0.7708
vn -0.8070 -0.5620 -0.1814
vn -0.0000 -0.5007 0.8656
vn 0.8070 -0.5620 -0.1814
vn 0.0000 -1.0000 0.0000
vn 0.0000 1.0000 -0.0000
usemtl None
s off
f 49/68/31 44/69/31 51/70/31 56/71/31
f 47/72/32 48/73/32 55/74/32 54/75/32
f 45/76/33 46/77/33 53/78/33 52/79/33
f 44/69/34 43/80/34 50/81/34 51/70/34
f 48/73/35 49/68/35 56/71/35 55/74/35
f 46/77/36 47/72/36 54/75/36 53/78/36
f 43/80/37 45/76/37 52/79/37 50/81/37
f 50/81/38 52/79/38 53/78/38 54/75/38 55/74/38 56/71/38 51/70/38
f 43/80/39 44/69/39 49/68/39 48/73/39 47/72/39 46/77/39 45/76/39
