# Blender v2.80 (sub 54) OBJ File: ''
# www.blender.org
mtllib leaves.mtl
o Plane.000_Plane.003
v 0.819590 0.474210 -1.050427
v -1.071482 0.788276 -0.480154
v 1.071482 -0.788276 0.480154
v -0.819590 -0.474210 1.050427
v 2.457383 1.505715 0.702711
v 1.800599 -0.236705 -0.027090
v -0.421333 2.366588 1.238055
v -1.078117 0.624168 0.508254
v 3.957315 -0.672060 -1.667869
v 2.262097 -1.723986 -1.808183
v 2.383790 1.723986 -0.620167
v 0.688572 0.672060 -0.760481
v 2.144566 1.468378 -2.447991
v 1.245592 1.623462 -2.010217
v 2.250238 0.627611 -1.933147
v 1.351264 0.782694 -1.495373
v -1.384769 0.091726 -2.678576
v -1.784939 0.641388 -2.410490
v -0.597321 0.417929 -2.171981
v -0.997491 0.967592 -1.903895
v 1.319727 1.254603 -2.100869
v 0.336978 0.670750 -2.192373
v 0.826129 2.025812 -1.720450
v -0.156619 1.441960 -1.811954
v 1.432092 2.385588 -1.628944
v -0.190281 2.297600 -1.366706
v 1.594155 1.864307 -0.801221
v -0.028219 1.776319 -0.538984
v 0.647221 2.343021 -1.502078
v 0.809283 1.821740 -0.674356
v 0.058586 1.497109 -0.095636
v 0.896088 1.542530 -0.231008
v -0.107787 1.101605 -0.992796
v 0.737705 0.182809 0.569561
v -0.878336 -0.641038 -1.600622
v -0.032843 -1.559834 -0.038265
v 1.047615 0.333117 -3.205111
v -0.662937 0.204405 -2.176788
v 2.592146 -0.634158 -0.756947
v 0.881593 -0.762870 0.271375
v -1.995359 2.114230 -3.629490
v -2.675871 1.412703 -1.884564
v 0.870421 1.575828 -2.728309
v 0.189909 0.874301 -0.983384
v 0.133739 3.062083 -1.884598
v 0.590908 2.477744 -1.196560
v -0.517742 2.337290 -2.067272
v -0.060572 1.752952 -1.379235
v -0.506070 1.828461 1.647168
v 0.167566 1.669362 1.881768
v -0.209434 1.701884 0.709562
v 0.464201 1.542785 0.944162
v 0.204821 2.451375 -1.200100
v -0.168505 2.062812 -0.187826
v 1.137542 2.242829 -0.936164
v 0.764216 1.854267 0.076110
v 1.378015 2.450854 -1.571697
v 1.702145 1.742332 -0.122027
v 1.106666 1.571507 -1.940804
v 1.430796 0.862985 -0.491135
v 1.534823 2.108085 -0.870376
v 1.263474 1.228738 -1.239483
v 1.285455 0.391985 -0.688838
v 1.118133 0.757738 -1.437187
v 0.747586 0.188992 -0.892848
v 0.011144 2.430821 -0.173955
v 3.076948 0.773552 -0.329545
v 2.340507 3.015381 0.389348
v 2.376493 0.476317 -3.456749
v 2.520124 -0.028916 -1.174309
v 0.791448 3.581456 -2.669660
v 0.935080 3.076222 -0.387220
v 2.675110 -3.467540 -1.578593
v 2.322904 -2.388716 0.611621
v 1.153575 -0.482097 -3.293797
v 0.801369 0.596727 -1.103582
v -0.424941 -1.787587 -2.258039
v -0.631373 -0.588767 -1.979224
v 0.646029 -1.740039 -1.669548
v 0.439598 -0.541219 -1.390733
v -1.643276 0.761672 1.474208
v -1.989183 1.503513 1.096627
v -0.981331 0.557378 0.466413
v -1.327237 1.299219 0.088831
v -0.426438 -0.842114 -1.630434
v -0.656835 -0.216571 -0.382989
v -0.870918 0.141300 -2.205669
v -1.101315 0.766843 -0.958224
v -0.697658 -0.216845 -2.986657
v -1.293252 1.415694 -1.937603
v 0.469054 0.126692 -2.858878
v -0.126540 1.759231 -1.809823
v -0.985794 0.572945 -2.479146
v 0.180917 0.916482 -2.351366
v 0.498379 1.943238 -1.741381
v 0.805836 1.100489 -2.282924
v -0.124026 1.261744 -0.933496
v 2.329659 1.447147 -1.106720
v 0.073206 0.927550 1.502560
v 2.526891 1.112953 1.329336
v -0.940948 -1.756721 -0.161397
v -0.879788 0.545506 0.722323
v 2.710489 -1.515046 -1.043709
v 2.771649 0.787181 -0.159988
v -3.955316 1.205004 0.122681
v -2.400342 2.880278 0.633502
v -1.373148 -0.718889 -1.428063
v 0.181825 0.956384 -0.917242
v -2.081657 0.956880 -2.727980
v -0.835561 0.906245 -2.681062
v -2.118331 1.169675 -1.524263
v -0.872236 1.119040 -1.477345
v 1.512406 3.925702 -2.301908
v 2.193416 3.457137 -2.661380
v 0.928689 2.881747 -2.046971
v 1.609698 2.413183 -2.406442
v -1.032051 1.241105 -2.403398
v -0.082450 2.251248 -2.123448
v -0.150794 0.548039 -2.891872
v 0.798808 1.558183 -2.611923
v -0.719825 -0.102862 -3.035958
v 1.209945 0.526737 -3.041009
v -0.611359 -0.425895 -1.861460
v 1.318411 0.203704 -1.866511
v 0.213759 0.201725 -3.038402
v 0.322225 -0.121308 -1.863903
v 1.376508 0.030679 -1.237421
v 0.380322 -0.294332 -1.234813
vt 0.915721 0.424687
vt 0.915721 0.626758
vt 0.673991 0.626758
vt 0.673991 0.424687
vt 1.000134 0.668065
vt 1.000134 0.988005
vt 0.435750 0.988005
vt 0.435750 0.668065
vt 1.000134 0.051638
vt 1.000134 0.371579
vt 0.456356 0.371579
vt 0.456357 0.051638
vt 0.454695 0.167960
vt 0.454695 0.326620
vt 0.251142 0.326620
vt 0.251142 0.167960
vt 0.451751 0.000626
vt 0.451751 0.123606
vt 0.248198 0.123606
vt 0.248198 0.000626
vt 0.239802 -0.000604
vt 0.239802 0.201120
vt 0.018586 0.201120
vt 0.018586 -0.000604
vt 0.416228 0.686550
vt 0.416228 0.989580
vt 0.002191 0.989580
vt 0.002191 0.686550
vt 0.416228 0.351004
vt 0.002191 0.351004
vt 0.637996 0.351004
vt 0.637996 0.686550
vt 0.915721 0.424687
vt 0.915721 0.626758
vt 0.673991 0.626758
vt 0.673991 0.424687
vt 1.000134 0.668065
vt 1.000134 0.988005
vt 0.435750 0.988005
vt 0.435750 0.668065
vt 1.000134 0.051638
vt 1.000134 0.371579
vt 0.456356 0.371579
vt 0.456357 0.051638
vt 0.454695 0.167960
vt 0.454695 0.326620
vt 0.251142 0.326620
vt 0.251142 0.167960
vt 0.451751 0.000626
vt 0.451751 0.123606
vt 0.248198 0.123606
vt 0.248198 0.000626
vt 0.239802 -0.000604
vt 0.239802 0.201120
vt 0.018586 0.201120
vt 0.018586 -0.000604
vt 0.416228 0.686550
vt 0.416228 0.989580
vt 0.002191 0.989580
vt 0.002191 0.686550
vt 0.416228 0.351004
vt 0.002191 0.351004
vt 0.637996 0.351004
vt 0.637996 0.686550
vt 0.915721 0.424687
vt 0.915721 0.626758
vt 0.673991 0.626758
vt 0.673991 0.424687
vt 1.000134 0.668065
vt 1.000134 0.988005
vt 0.435750 0.988005
vt 0.435750 0.668065
vt 1.000134 0.051638
vt 1.000134 0.371579
vt 0.456356 0.371579
vt 0.456357 0.051638
vt 0.454695 0.167960
vt 0.454695 0.326620
vt 0.251142 0.326620
vt 0.251142 0.167960
vt 0.451751 0.000626
vt 0.451751 0.123606
vt 0.248198 0.123606
vt 0.248198 0.000626
vt 0.239802 -0.000604
vt 0.239802 0.201120
vt 0.018586 0.201120
vt 0.018586 -0.000604
vt 0.416228 0.686550
vt 0.416228 0.989580
vt 0.002191 0.989580
vt 0.002191 0.686550
vt 0.416228 0.351004
vt 0.002191 0.351004
vt 0.637996 0.351004
vt 0.637996 0.686550
vt 0.915721 0.424687
vt 0.915721 0.626758
vt 0.673991 0.626758
vt 0.673991 0.424687
vt 1.000134 0.668065
vt 1.000134 0.988005
vt 0.435750 0.988005
vt 0.435750 0.668065
vt 1.000134 0.051638
vt 1.000134 0.371579
vt 0.456356 0.371579
vt 0.456357 0.051638
vt 0.454695 0.167960
vt 0.454695 0.326620
vt 0.251142 0.326620
vt 0.251142 0.167960
vt 0.451751 0.000626
vt 0.451751 0.123606
vt 0.248198 0.123606
vt 0.248198 0.000626
vt 0.239802 -0.000604
vt 0.239802 0.201120
vt 0.018586 0.201120
vt 0.018586 -0.000604
vt 0.416228 0.686550
vt 0.416228 0.989580
vt 0.002191 0.989580
vt 0.002191 0.686550
vt 0.416228 0.351004
vt 0.002191 0.351004
vt 0.637996 0.351004
vt 0.637996 0.686550
vn 0.3002 0.7595 0.5771
vn -0.0499 0.4018 -0.9144
vn -0.1255 0.3271 -0.9366
vn 0.4464 0.5074 0.7370
vn 0.2636 0.5711 -0.7774
vn -0.1333 0.3685 -0.9200
vn 0.0391 0.8490 0.5270
vn 0.8203 -0.1725 -0.5453
vn 0.1113 0.9463 0.3036
vn 0.0503 0.9197 0.3894
vn 0.6034 -0.3635 -0.7097
vn 0.2468 0.9676 -0.0525
vn 0.0955 0.9170 0.3872
vn 0.9414 -0.1677 -0.2925
vn 0.1385 0.3434 -0.9289
vn -0.8942 -0.4457 -0.0424
vn -0.9035 -0.4239 0.0635
vn 0.4536 0.2752 -0.8477
vn -0.7482 -0.5430 -0.3814
vn -0.9173 -0.3972 0.0298
vn -0.0611 0.5237 -0.8497
vn 0.0647 -0.9879 -0.1408
vn -0.2418 0.3533 -0.9037
vn -0.1930 0.4456 -0.8742
vn -0.0465 -0.9839 0.1725
vn -0.4488 0.0329 -0.8930
vn -0.1731 0.4108 -0.8951
vn 0.2972 -0.9132 -0.2786
usemtl Leave
s off
f 4/1/1 3/2/1 1/3/1 2/4/1
f 8/5/2 7/6/2 5/7/2 6/8/2
f 12/9/3 11/10/3 9/11/3 10/12/3
f 16/13/4 15/14/4 13/15/4 14/16/4
f 20/17/5 19/18/5 17/19/5 18/20/5
f 24/21/6 23/22/6 21/23/6 22/24/6
f 30/25/7 27/26/7 25/27/7 29/28/7
f 28/29/7 30/25/7 29/28/7 26/30/7
f 30/25/7 28/29/7 31/31/7 32/32/7
f 36/33/8 35/34/8 33/35/8 34/36/8
f 40/37/9 39/38/9 37/39/9 38/40/9
f 44/41/10 43/42/10 41/43/10 42/44/10
f 48/45/11 47/46/11 45/47/11 46/48/11
f 52/49/12 51/50/12 49/51/12 50/52/12
f 56/53/13 55/54/13 53/55/13 54/56/13
f 62/57/14 59/58/14 57/59/14 61/60/14
f 60/61/14 62/57/14 61/60/14 58/62/14
f 62/57/14 60/61/14 63/63/14 64/64/14
f 68/65/15 67/66/15 65/67/15 66/68/15
f 72/69/16 71/70/16 69/71/16 70/72/16
f 76/73/17 75/74/17 73/75/17 74/76/17
f 80/77/18 79/78/18 77/79/18 78/80/18
f 84/81/19 83/82/19 81/83/19 82/84/19
f 88/85/20 87/86/20 85/87/20 86/88/20
f 94/89/21 91/90/21 89/91/21 93/92/21
f 92/93/21 94/89/21 93/92/21 90/94/21
f 94/89/21 92/93/21 95/95/21 96/96/21
f 100/97/22 99/98/22 97/99/22 98/100/22
f 104/101/23 103/102/23 101/103/23 102/104/23
f 108/105/24 107/106/24 105/107/24 106/108/24
f 112/109/25 111/110/25 109/111/25 110/112/25
f 116/113/26 115/114/26 113/115/26 114/116/26
f 120/117/27 119/118/27 117/119/27 118/120/27
f 126/121/28 123/122/28 121/123/28 125/124/28
f 124/125/28 126/121/28 125/124/28 122/126/28
f 126/121/28 124/125/28 127/127/28 128/128/28
