# Blender v2.80 (sub 41) OBJ File: 'untitled.blend'
# www.blender.org
mtllib rock.mtl
o Icosphere
v -0.056575 0.033864 -0.001768
v -0.009643 -0.055444 0.013417
v 0.023345 -0.013731 -0.022055
v 0.037426 -0.008995 0.046822
v -0.063057 -0.016935 0.040369
v -0.016215 0.026518 -0.041619
v -0.017697 0.043972 0.045553
v -0.005919 0.007015 0.063390
v 0.020217 0.038983 -0.006316
v -0.012190 -0.016084 -0.044920
v -0.059498 -0.029270 -0.012032
vt 0.419626 0.375403
vt 0.389372 0.305154
vt 0.285711 0.357641
vt 0.756616 0.378565
vt 0.687563 0.391078
vt 0.727272 0.472382
vt 0.549047 0.185774
vt 0.570649 0.343991
vt 0.252928 0.163369
vt 0.089345 0.194643
vt 0.224823 0.307467
vt 0.956998 0.254636
vt 0.866925 0.250381
vt 0.910927 0.368437
vt 0.724103 0.204596
vt 0.406209 0.185686
vt 0.382197 0.178124
vt 0.119505 0.337877
vt 0.825802 0.064813
vt 0.675904 0.184453
vt 0.432477 0.068888
vt 0.267800 0.046758
vt 0.205669 0.159759
vt 0.072100 0.058978
vt 0.000000 0.157461
vt 0.636036 0.021760
vn -0.0795 0.9629 -0.2580
vn -0.0746 0.9860 -0.1493
vn 0.6257 0.2570 -0.7365
vn -0.9949 0.0593 -0.0815
vn -0.4540 0.2658 0.8504
vn 0.4642 0.5006 0.7307
vn 0.6311 0.6663 0.3972
vn 0.5321 0.1153 -0.8388
vn -0.5726 0.0094 -0.8198
vn -0.6811 0.1481 -0.7171
vn -0.7202 0.4950 0.4860
vn 0.0659 -0.6258 0.7772
vn 0.9711 0.1194 -0.2067
vn 0.3891 -0.7557 -0.5269
vn -0.1519 -0.8224 -0.5482
vn -0.5221 -0.8374 0.1617
vn -0.0541 -0.6219 0.7813
vn 0.7351 -0.6699 -0.1042
usemtl Stone
s off
f 9/1/1 6/2/1 1/3/1
f 7/4/2 9/5/2 1/6/2
f 3/7/3 6/2/3 9/8/3
f 11/9/4 5/10/4 1/11/4
f 5/12/5 8/13/5 7/14/5
f 4/15/6 7/4/6 8/13/6
f 4/15/7 9/8/7 7/4/7
f 3/7/8 10/16/8 6/2/8
f 10/17/9 11/9/9 6/2/9
f 6/2/10 11/9/10 1/11/10
f 1/11/11 5/10/11 7/18/11
f 8/13/12 2/19/12 4/15/12
f 4/20/13 3/7/13 9/8/13
f 2/21/14 10/16/14 3/7/14
f 10/17/15 2/22/15 11/9/15
f 11/23/16 2/24/16 5/10/16
f 2/24/17 8/25/17 5/10/17
f 4/20/18 2/26/18 3/7/18
