# Blender v2.81 (sub 16) OBJ File: 'voxel_warrior.blend'
# www.blender.org
o armor_Cube.007
v 34.476864 9.600000 -30.400000
v 38.508396 9.600000 -26.392139
v 34.508396 -26.400000 -22.392139
v 30.476864 -26.400000 -26.400000
v 38.508396 9.600000 29.534863
v 34.479557 9.600000 33.599998
v 30.479557 -26.400000 21.600000
v 34.508396 -26.400000 17.534863
v -49.491604 9.600000 -26.392572
v -45.424305 9.600000 -30.400000
v -37.424305 -26.400000 -26.400000
v -41.491604 -26.400000 -22.392572
v -45.429775 9.600000 33.599998
v -49.491604 9.600000 29.538172
v -41.491604 -26.400000 17.538172
v -37.429775 -26.400000 21.600000
v 34.480667 61.599998 33.599998
v 38.508396 61.599998 29.537367
v 34.508396 65.599998 29.600000
v -45.432152 61.599998 33.599998
v -45.491604 65.599998 29.600000
v -49.491604 61.599998 29.540550
v -45.426891 61.599998 -30.400000
v -49.491604 61.599998 -26.392857
v -45.491604 65.599998 -26.400000
v 34.478077 61.599998 -30.400000
v 34.508396 65.599998 -26.400000
v 38.508396 61.599998 -26.392441
v -37.432156 -38.400002 21.600000
v -41.491604 -38.400002 17.540550
v -37.491604 -42.400002 17.600000
v 30.480667 -38.400002 21.600000
v 30.508396 -42.400002 17.600000
v 34.508396 -38.400002 17.537367
v 30.478077 -38.400002 -26.400000
v 34.508396 -38.400002 -22.392443
v 30.508396 -42.400002 -22.400000
v -37.426895 -38.400002 -26.400000
v -37.491604 -42.400002 -22.400000
v -41.491604 -38.400002 -22.392857
v -3.491604 -42.400002 17.600000
v -3.475743 -38.400002 21.600000
v -3.491604 -42.400002 -22.400000
v -3.474410 -38.400002 -26.400000
v -5.473721 9.600000 -30.400000
v -3.473721 -26.400000 -26.400000
v -5.475110 9.600000 33.599998
v -3.475110 -26.400000 21.600000
v 34.477470 45.599998 -30.400000
v 38.508396 45.599998 -26.392290
v 34.480114 45.599998 33.599998
v 38.508396 45.599998 29.536116
v -49.491604 45.599998 -26.392714
v -45.425598 45.599998 -30.400000
v -49.491604 45.599998 29.539362
v -45.430965 45.599998 33.599998
v -5.474064 45.599998 -30.400000
v -5.475426 45.599998 33.599998
v 18.480667 61.599998 33.599998
v 18.508396 65.599998 29.600000
v 18.478077 61.599998 -30.400000
v 18.508396 65.599998 -26.400000
v -29.432152 61.599998 33.599998
v -29.491604 65.599998 29.600000
v -29.426891 61.599998 -30.400000
v -29.491604 65.599998 -26.400000
v -5.475426 49.599998 29.600000
v -5.474064 49.599998 -26.400000
v 38.508396 29.600000 -26.392214
v 34.479836 29.600000 33.599998
v -45.424953 29.600000 -30.400000
v -49.491604 29.600000 29.538767
v 34.477169 29.600000 -30.400000
v 38.508396 29.600000 29.535490
v -49.491604 29.600000 -26.392643
v -45.430370 29.600000 33.599998
v -5.473893 29.600000 -30.400000
v -5.475268 29.600000 33.599998
v -41.430965 45.599998 37.599998
v -41.432152 57.599998 37.599998
v 30.480667 57.599998 37.599998
v 30.480114 45.599998 37.599998
v -5.475268 29.600000 37.599998
v -5.475426 41.599998 37.599998
v 18.480667 57.599998 37.599998
v -29.432152 57.599998 37.599998
v 30.479836 25.600000 37.599998
v 30.479557 9.600000 37.599998
v -5.475110 5.600000 37.599998
v -41.429775 9.600000 37.599998
v -41.430370 25.600000 37.599998
vt 0.500000 0.000000
vt 0.750000 0.000000
vt 0.750000 0.250000
vt 0.500000 0.250000
vt 0.500000 0.000000
vt 0.750000 0.000000
vt 0.750000 0.250000
vt 0.500000 0.250000
vt 0.500000 0.000000
vt 0.750000 0.000000
vt 0.750000 0.250000
vt 0.500000 0.250000
vt 0.750000 0.750000
vt 1.000000 0.750000
vt 1.000000 1.000000
vt 0.750000 1.000000
vt 0.500000 0.000000
vt 0.750000 0.000000
vt 0.750000 0.250000
vt 0.500000 0.250000
vt 0.500000 0.000000
vt 0.750000 0.000000
vt 0.750000 0.250000
vt 0.500000 0.250000
vt 0.750000 0.750000
vt 1.000000 0.750000
vt 1.000000 1.000000
vt 0.750000 1.000000
vt 0.500000 0.000000
vt 0.750000 0.250000
vt 0.500000 0.000000
vt 0.750000 0.000000
vt 0.750000 0.250000
vt 0.500000 0.250000
vt 0.500000 0.000000
vt 0.750000 0.000000
vt 0.750000 0.250000
vt 0.500000 0.250000
vt 0.750000 0.750000
vt 1.000000 0.750000
vt 1.000000 1.000000
vt 0.750000 1.000000
vt 0.500000 0.000000
vt 0.750000 0.000000
vt 0.750000 0.250000
vt 0.500000 0.000000
vt 0.750000 0.000000
vt 0.500000 0.000000
vt 0.750000 0.000000
vt 0.750000 0.250000
vt 0.500000 0.000000
vt 0.750000 0.000000
vt 0.500000 0.000000
vt 0.750000 0.000000
vt 0.750000 0.250000
vt 0.500000 0.000000
vt 0.750000 0.000000
vt 0.500000 0.000000
vt 0.750000 0.000000
vt 0.750000 0.250000
vt 0.500000 0.000000
vt 0.750000 0.000000
vt 0.750000 0.750000
vt 1.000000 0.750000
vt 1.000000 1.000000
vt 0.750000 1.000000
vt 0.750000 0.750000
vt 1.000000 0.750000
vt 1.000000 1.000000
vt 0.750000 1.000000
vt 0.750000 0.750000
vt 1.000000 0.750000
vt 1.000000 1.000000
vt 0.750000 1.000000
vt 0.750000 0.750000
vt 1.000000 0.750000
vt 1.000000 1.000000
vt 0.750000 1.000000
vt 0.500000 0.000000
vt 0.750000 0.000000
vt 0.750000 0.250000
vt 0.500000 0.250000
vt 0.500000 0.000000
vt 0.750000 0.000000
vt 0.750000 0.250000
vt 0.500000 0.250000
vt 0.500000 0.000000
vt 0.750000 0.000000
vt 0.500000 0.250000
vt 0.500000 0.000000
vt 0.750000 0.000000
vt 0.750000 0.250000
vt 0.500000 0.250000
vt 0.750000 0.250000
vt 0.500000 0.250000
vt 0.500000 0.000000
vt 0.750000 0.000000
vt 0.750000 0.250000
vt 0.500000 0.250000
vt 0.500000 0.000000
vt 0.750000 0.250000
vt 0.750000 0.250000
vt 0.500000 0.000000
vt 0.750000 0.250000
vt 0.500000 0.250000
vt 0.500000 0.000000
vt 0.750000 0.000000
vt 0.750000 0.250000
vt 0.500000 0.250000
vt 0.500000 0.000000
vt 0.750000 0.000000
vt 0.500000 0.250000
vt 0.750000 0.250000
vt 0.500000 0.000000
vt 0.750000 0.250000
vt 0.500000 0.250000
vt 0.500000 0.250000
vt 0.500000 0.000000
vt 0.750000 0.000000
vt 0.750000 0.250000
vt 0.500000 0.250000
vt 0.500000 0.000000
vt 0.750000 0.000000
vt 0.750000 0.250000
vt 0.500000 0.250000
vt 0.750000 0.750000
vt 1.000000 0.750000
vt 1.000000 1.000000
vt 0.750000 0.250000
vt 0.500000 0.250000
vt 0.750000 0.750000
vt 1.000000 0.750000
vt 1.000000 1.000000
vt 0.750000 1.000000
vt 0.750000 0.000000
vt 0.500000 0.250000
vt 0.500000 0.000000
vt 0.750000 0.000000
vt 0.750000 0.750000
vt 1.000000 0.750000
vt 1.000000 1.000000
vt 0.750000 0.750000
vt 1.000000 0.750000
vt 1.000000 1.000000
vt 0.750000 1.000000
vt 0.750000 0.750000
vt 1.000000 0.750000
vt 1.000000 1.000000
vt 0.750000 1.000000
vt 0.500000 0.000000
vt 0.750000 0.250000
vt 0.500000 0.250000
vt 0.750000 0.750000
vt 1.000000 0.750000
vt 0.750000 1.000000
vt 0.750000 0.000000
vt 0.750000 0.250000
vt 1.000000 0.750000
vt 1.000000 1.000000
vt 0.750000 1.000000
vt 1.000000 0.750000
vt 1.000000 1.000000
vt 0.750000 1.000000
vt 0.500000 0.000000
vt 0.750000 0.250000
vt 0.500000 0.250000
vt 0.750000 0.750000
vt 1.000000 0.750000
vt 0.750000 1.000000
vt 0.500000 0.000000
vt 0.750000 0.250000
vt 0.500000 0.250000
vt 0.750000 0.250000
vt 0.500000 0.250000
vt 0.750000 0.250000
vt 0.500000 0.250000
vt 0.500000 0.000000
vt 0.750000 0.250000
vt 0.500000 0.250000
vt 0.750000 0.250000
vt 0.500000 0.250000
vt 0.750000 0.000000
vt 0.750000 0.250000
vt 0.500000 0.250000
vt 0.500000 0.000000
vt 0.750000 0.000000
vt 0.750000 0.250000
vt 0.500000 0.250000
vt 0.500000 0.000000
vt 0.750000 0.000000
vt 0.500000 0.000000
vt 0.750000 0.000000
vt 0.750000 0.250000
vt 0.500000 0.250000
vt 0.500000 0.000000
vt 0.750000 0.000000
vt 0.500000 0.000000
vt 0.750000 0.000000
vt 0.750000 0.250000
vt 0.500000 0.250000
vt 0.750000 0.000000
vt 0.500000 0.250000
vt 0.500000 0.000000
vt 0.750000 0.000000
vt 0.750000 0.250000
vt 0.500000 0.250000
vt 0.500000 0.000000
vt 0.750000 0.000000
vt 0.750000 0.250000
vt 0.500000 0.250000
vt 0.500000 0.000000
vt 0.750000 0.000000
vt 0.750000 0.250000
vt 0.750000 0.750000
vt 1.000000 1.000000
vt 0.500000 0.000000
vt 0.750000 0.250000
vt 0.500000 0.250000
vt 0.500000 0.000000
vt 0.750000 0.000000
vt 0.500000 0.250000
vt 0.750000 0.000000
vt 0.750000 0.250000
vt 0.500000 0.250000
vt 0.500000 0.000000
vt 0.750000 0.000000
vt 0.500000 0.250000
vt 0.750000 0.000000
vt 0.750000 0.250000
vt 0.500000 0.250000
vt 0.500000 0.000000
vt 0.750000 0.000000
vt 0.750000 0.250000
vt 0.500000 0.250000
vt 0.750000 0.750000
vt 1.000000 1.000000
vt 0.750000 1.000000
vt 0.750000 0.750000
vt 1.000000 0.750000
vt 1.000000 1.000000
vt 0.500000 0.000000
vt 0.750000 0.250000
vt 0.500000 0.250000
vt 1.000000 0.750000
vt 1.000000 1.000000
vt 0.500000 0.000000
vt 0.750000 0.000000
vt 0.750000 0.250000
vt 0.500000 0.000000
vt 0.750000 0.000000
vt 0.500000 0.250000
vt 0.500000 0.000000
vt 0.750000 0.250000
vt 0.500000 0.250000
vt 0.750000 0.000000
vt 0.500000 0.000000
vt 0.500000 0.250000
vt 0.750000 0.000000
vt 0.750000 0.000000
vt 0.750000 0.250000
vt 0.500000 0.250000
vt 0.500000 0.000000
vt 0.750000 0.000000
vt 0.750000 0.250000
vt 0.750000 0.750000
vt 1.000000 0.750000
vt 0.500000 0.000000
vt 0.750000 0.000000
vt 0.500000 0.250000
vt 0.625000 0.250000
vt 0.733253 0.187500
vt 0.733253 0.062500
vt 0.625000 0.000000
vt 0.516747 0.062500
vt 0.516747 0.187500
vt 0.500000 0.000000
vt 0.750000 0.000000
vt 0.750000 0.250000
vt 0.750000 0.000000
vt 0.500000 0.000000
vt 0.750000 0.000000
vt 0.750000 0.250000
vt 0.500000 0.250000
vt 0.750000 0.000000
vt 0.750000 0.250000
vt 0.500000 0.250000
vt 0.750000 0.750000
vt 1.000000 0.750000
vn 0.0000 0.0000 -1.0000
vn 0.0000 0.0000 1.0000
vn 1.0000 -0.0000 0.0000
vn 0.0000 -0.1104 -0.9939
vn -1.0000 0.0000 0.0000
vn 0.0000 -1.0000 0.0000
vn 0.9939 -0.1104 0.0000
vn -0.0500 -0.4492 0.8921
vn -0.9762 -0.2169 0.0000
vn 0.5820 0.5730 0.5770
vn -0.5802 0.5716 0.5802
vn -0.5749 0.5739 -0.5832
vn 0.5766 0.5755 -0.5799
vn -0.5802 -0.5716 0.5802
vn 0.5820 -0.5730 0.5770
vn 0.5766 -0.5755 -0.5799
vn -0.5749 -0.5739 -0.5832
vn 0.6965 -0.1552 -0.7006
vn 0.6777 -0.2992 0.6717
vn -0.6832 -0.2289 -0.6934
vn -0.6581 -0.3656 0.6581
vn 0.7071 0.7071 0.0000
vn -0.7071 0.7071 0.0000
vn 0.7051 -0.0000 -0.7091
vn 0.7103 -0.0000 0.7039
vn -0.7020 -0.0000 -0.7122
vn -0.7071 -0.0000 0.7071
vn 0.0000 -0.7071 0.7071
vn 0.0000 -0.7071 -0.7071
vn 0.7071 -0.7071 0.0000
vn -0.7071 -0.7071 0.0000
vn 0.7102 0.0001 0.7040
vn -0.7019 0.0001 -0.7122
vn -0.7071 0.0001 0.7071
vn 0.0000 -0.3162 0.9487
vn -0.7071 -0.0001 0.7071
vn -0.7019 -0.0000 -0.7123
vn 0.7102 -0.0000 0.7040
vn 0.7051 -0.0000 -0.7092
vn 0.3813 -0.9046 0.1907
vn 0.0000 1.0000 0.0000
vn 0.0000 0.7071 -0.7071
vn 0.0000 0.7071 0.7071
vn 0.4275 0.6408 0.6377
vn -0.4272 0.6401 0.6386
vn -0.4273 0.6401 -0.6385
vn 0.4276 0.6409 -0.6375
vn -0.4270 0.6394 0.6394
vn -0.3813 -0.9046 0.1907
vn 0.7050 -0.0000 -0.7092
vn 0.3906 0.7412 0.5459
vn 0.4270 0.6394 0.6394
vn 0.7071 -0.0000 0.7071
vn -0.3906 0.7412 0.5459
vn 0.0494 -0.4442 0.8946
vn -0.4853 -0.7273 0.4853
vn 0.5047 -0.7004 0.5047
s off
f 46/1/1 4/2/1 35/3/1 44/4/1
f 48/5/2 16/6/2 29/7/2 42/8/2
f 52/9/3 50/10/3 28/11/3 18/12/3
f 46/13/4 45/14/4 1/15/4 4/16/4
f 53/17/5 55/18/5 22/19/5 24/20/5
f 43/21/6 37/22/6 33/23/6 41/24/6
f 3/25/7 2/26/7 5/27/7 8/28/7
f 89/29/8 90/30/8 48/5/8
f 15/31/5 12/32/5 40/33/5 30/34/5
f 3/35/3 8/36/3 34/37/3 36/38/3
f 15/39/9 14/40/9 9/41/9 12/42/9
f 17/43/10 18/44/10 19/45/10
f 20/46/11 21/47/11 22/19/11
f 23/48/12 24/49/12 25/50/12
f 26/51/13 27/52/13 28/11/13
f 29/53/14 30/54/14 31/55/14
f 32/56/15 33/57/15 34/37/15
f 35/58/16 36/59/16 37/60/16
f 38/61/17 39/62/17 40/33/17
f 2/63/18 3/64/18 4/65/18 1/66/18
f 6/67/19 7/68/19 8/69/19 5/70/19
f 10/71/20 11/72/20 12/73/20 9/74/20
f 16/75/21 13/76/21 14/77/21 15/78/21
f 27/79/22 19/80/22 18/81/22 28/82/22
f 21/83/23 25/84/23 24/85/23 22/86/23
f 49/87/24 26/88/24 28/11/24 50/89/24
f 70/90/25 6/91/25 5/92/25 74/93/25
f 53/17/26 24/49/26 23/94/26 54/95/26
f 72/96/27 14/97/27 13/98/27 76/99/27
f 41/100/28 33/57/28 32/101/28 42/8/28
f 43/21/29 39/62/29 38/102/29 44/4/29
f 33/103/30 37/22/30 36/104/30 34/105/30
f 39/106/31 31/107/31 30/108/31 40/109/31
f 7/110/32 32/111/32 34/37/32 8/112/32
f 35/58/24 4/2/24 3/113/24 36/38/24
f 40/114/33 12/32/33 11/115/33 38/116/33
f 15/31/34 30/54/34 29/7/34 16/117/34
f 37/118/29 43/119/29 44/120/29 35/121/29
f 31/122/28 41/123/28 42/124/28 29/125/28
f 7/126/35 6/127/35 48/128/35
f 39/106/6 43/119/6 41/129/6 31/130/6
f 11/131/4 10/132/4 45/133/4 46/134/4
f 7/110/2 48/135/2 42/124/2 32/136/2
f 11/137/1 46/138/1 44/120/1 38/116/1
f 76/139/2 78/140/2 56/141/2
f 73/142/1 77/143/1 57/144/1 49/145/1
f 77/146/1 71/147/1 54/148/1 57/149/1
f 22/150/36 55/18/36 56/151/36 20/152/36
f 75/153/37 53/154/37 54/148/37 71/155/37
f 17/43/38 51/156/38 52/157/38 18/12/38
f 73/142/39 49/158/39 50/159/39 69/160/39
f 75/153/5 72/161/5 55/162/5 53/163/5
f 78/164/40 51/156/40 82/165/40 83/166/40
f 74/167/3 69/168/3 50/159/3 52/169/3
f 19/170/41 27/52/41 62/171/41 60/172/41
f 27/79/42 26/88/42 61/173/42 62/174/42
f 17/43/43 19/80/43 60/175/43 59/176/43
f 25/177/41 21/47/41 64/178/41 66/179/41
f 23/48/42 25/84/42 66/180/42 65/181/42
f 21/83/43 20/182/43 63/183/43 64/184/43
f 64/185/44 63/186/44 58/187/44 67/188/44
f 60/189/45 67/190/45 58/187/45 59/176/45
f 62/191/46 61/192/46 57/193/46 68/194/46
f 66/195/47 68/196/47 57/193/47 65/181/47
f 54/197/1 23/198/1 65/199/1 57/200/1
f 49/87/1 57/201/1 61/173/1 26/202/1
f 59/203/48 58/204/48 84/205/48 85/206/48
f 56/207/49 78/208/49 83/209/49 79/210/49
f 5/211/3 2/212/3 69/213/3 74/93/3
f 70/214/2 78/140/2 47/215/2
f 9/216/5 14/97/5 72/217/5 75/218/5
f 1/219/50 73/220/50 69/213/50 2/221/50
f 9/216/37 75/222/37 71/223/37 10/224/37
f 45/225/1 10/226/1 71/223/1 77/227/1
f 1/219/1 45/228/1 77/229/1 73/230/1
f 47/231/51 76/232/51 91/233/51 89/234/51
f 55/235/27 72/161/27 76/236/27 56/237/27
f 51/238/38 70/239/38 74/240/38 52/169/38
f 63/241/43 20/182/43 80/242/43 86/243/43
f 70/214/2 51/244/2 78/245/2
f 83/246/2 84/247/2 79/248/2
f 81/249/2 85/250/2 84/205/2 82/251/2
f 79/252/2 84/247/2 86/253/2 80/254/2
f 83/246/2 82/255/2 84/205/2
f 58/256/52 63/186/52 86/253/52 84/257/52
f 20/46/36 56/258/36 79/248/36 80/254/36
f 17/43/43 59/259/43 85/260/43 81/261/43
f 51/262/53 17/263/53 81/264/53 82/251/53
f 78/265/2 76/266/2 47/215/2
f 76/267/27 13/268/27 90/30/27 91/269/27
f 62/270/41 68/271/41 66/272/41 64/273/41 67/274/41 60/275/41
f 87/276/2 89/277/2 88/278/2
f 89/29/2 91/279/2 90/30/2
f 6/280/53 70/281/53 87/282/53 88/283/53
f 70/90/54 47/284/54 89/285/54 87/286/54
f 88/283/55 89/277/55 48/135/55
f 13/287/35 16/288/35 48/128/35
f 48/5/56 90/30/56 13/268/56
f 48/135/57 6/280/57 88/283/57
