# Blender v2.81 (sub 16) OBJ File: 'voxel_warrior.blend'
# www.blender.org
o body_Cube.004
v 30.476864 13.600000 -26.400000
v 34.508396 13.600000 -22.392139
v 26.508396 -22.400000 -18.392139
v 22.476864 -22.400000 -22.400000
v 34.508396 13.600000 25.534863
v 30.479557 13.600000 29.600000
v 22.479557 -22.400000 17.600000
v 26.508396 -22.400000 13.534863
v -45.491604 13.600000 -22.392572
v -41.424305 13.600000 -26.400000
v -29.424305 -22.400000 -22.400000
v -33.491604 -22.400000 -18.392572
v -41.429775 13.600000 29.600000
v -45.491604 13.600000 25.538172
v -33.491604 -22.400000 13.538172
v -29.429775 -22.400000 17.600000
v 30.480667 57.599998 29.600000
v 34.508396 57.599998 25.537367
v 30.508396 61.599998 25.600000
v -41.432152 57.599998 29.600000
v -41.491604 61.599998 25.600000
v -45.491604 57.599998 25.540550
v -41.426891 57.599998 -26.400000
v -45.491604 57.599998 -22.392857
v -41.491604 61.599998 -22.400000
v 30.478077 57.599998 -26.400000
v 30.508396 61.599998 -22.400000
v 34.508396 57.599998 -22.392441
v -29.432154 -34.400002 17.600000
v -33.491604 -34.400002 13.540550
v -29.491604 -38.400002 13.600000
v 22.480667 -34.400002 17.600000
v 22.508396 -38.400002 13.600000
v 26.508396 -34.400002 13.537367
v 22.478077 -34.400002 -22.400000
v 26.508396 -34.400002 -18.392443
v 22.508396 -38.400002 -18.400000
v -29.426893 -34.400002 -22.400000
v -29.491604 -38.400002 -18.400000
v -33.491604 -34.400002 -18.392857
vt 0.250000 0.750000
vt 0.500000 0.750000
vt 0.500000 1.000000
vt 0.250000 1.000000
vt 0.250000 0.750000
vt 0.500000 0.750000
vt 0.500000 1.000000
vt 0.250000 1.000000
vt 0.250000 0.750000
vt 0.500000 0.750000
vt 0.500000 1.000000
vt 0.250000 1.000000
vt 0.250000 0.750000
vt 0.500000 0.750000
vt 0.500000 1.000000
vt 0.250000 1.000000
vt 0.500000 0.750000
vt 0.500000 1.000000
vt 0.250000 1.000000
vt 0.250000 0.750000
vt 0.500000 0.750000
vt 0.500000 1.000000
vt 0.250000 1.000000
vt 0.250000 0.750000
vt 0.500000 0.750000
vt 0.500000 1.000000
vt 0.250000 1.000000
vt 0.250000 0.750000
vt 0.500000 1.000000
vt 0.250000 1.000000
vt 0.500000 1.000000
vt 0.250000 1.000000
vt 0.250000 0.750000
vt 0.500000 0.750000
vt 0.500000 1.000000
vt 0.250000 1.000000
vt 0.500000 0.750000
vt 0.500000 1.000000
vt 0.250000 1.000000
vt 0.500000 1.000000
vt 0.250000 1.000000
vt 0.250000 0.750000
vt 0.500000 0.750000
vt 0.500000 1.000000
vt 0.250000 1.000000
vt 0.250000 0.750000
vt 0.500000 0.750000
vt 0.500000 1.000000
vt 0.250000 0.750000
vt 0.500000 0.750000
vt 0.250000 0.750000
vt 0.500000 0.750000
vt 0.500000 1.000000
vt 0.250000 0.750000
vt 0.500000 0.750000
vt 0.250000 0.750000
vt 0.500000 0.750000
vt 0.500000 1.000000
vt 0.250000 0.750000
vt 0.500000 0.750000
vt 0.250000 0.750000
vt 0.500000 0.750000
vt 0.500000 1.000000
vt 0.250000 0.750000
vt 0.500000 0.750000
vt 0.250000 0.750000
vt 0.500000 0.750000
vt 0.500000 1.000000
vt 0.250000 1.000000
vt 0.250000 0.750000
vt 0.500000 0.750000
vt 0.500000 1.000000
vt 0.250000 1.000000
vt 0.250000 0.750000
vt 0.500000 0.750000
vt 0.500000 1.000000
vt 0.250000 1.000000
vt 0.250000 0.750000
vt 0.500000 0.750000
vt 0.500000 1.000000
vt 0.250000 1.000000
vt 0.250000 0.750000
vt 0.500000 1.000000
vt 0.250000 1.000000
vt 0.250000 0.750000
vt 0.500000 1.000000
vt 0.250000 1.000000
vt 0.500000 0.750000
vt 0.500000 1.000000
vt 0.250000 1.000000
vt 0.250000 0.750000
vt 0.500000 1.000000
vt 0.250000 1.000000
vt 0.250000 0.750000
vt 0.500000 0.750000
vt 0.250000 1.000000
vt 0.500000 1.000000
vt 0.250000 1.000000
vt 0.250000 0.750000
vt 0.250000 0.750000
vt 0.500000 1.000000
vt 0.250000 1.000000
vt 0.250000 0.750000
vt 0.500000 1.000000
vt 0.250000 1.000000
vt 0.250000 0.750000
vt 0.500000 1.000000
vt 0.250000 1.000000
vt 0.500000 0.750000
vt 0.500000 1.000000
vt 0.250000 1.000000
vt 0.500000 0.750000
vt 0.500000 1.000000
vt 0.250000 0.750000
vt 0.500000 1.000000
vt 0.250000 1.000000
vn 0.0000 0.0000 -1.0000
vn 0.0000 0.0000 1.0000
vn 1.0000 -0.0000 0.0000
vn 0.0000 -0.1104 -0.9939
vn -1.0000 0.0000 0.0000
vn 0.0000 -1.0000 0.0000
vn 0.9762 -0.2169 0.0000
vn 0.0000 -0.3162 0.9487
vn -0.9487 -0.3162 0.0000
vn 0.0000 1.0000 0.0000
vn 0.5820 0.5730 0.5770
vn -0.5802 0.5716 0.5802
vn -0.5749 0.5739 -0.5832
vn 0.5766 0.5755 -0.5799
vn -0.5802 -0.5716 0.5802
vn 0.5820 -0.5730 0.5770
vn 0.5766 -0.5755 -0.5799
vn -0.5749 -0.5739 -0.5832
vn 0.6863 -0.2292 -0.6903
vn 0.6612 -0.3653 0.6553
vn -0.6698 -0.2988 -0.6798
vn -0.6396 -0.4264 0.6396
vn 0.0000 0.7071 0.7071
vn 0.0000 0.7071 -0.7071
vn 0.7071 0.7071 0.0000
vn -0.7071 0.7071 0.0000
vn 0.7051 -0.0000 -0.7091
vn 0.7102 -0.0000 0.7040
vn -0.7019 -0.0000 -0.7122
vn -0.7071 -0.0000 0.7071
vn 0.0000 -0.7071 0.7071
vn 0.0000 -0.7071 -0.7071
vn 0.7071 -0.7071 0.0000
vn -0.7071 -0.7071 0.0000
vn 0.7102 0.0001 0.7040
vn -0.7019 0.0001 -0.7122
vn -0.7071 0.0001 0.7071
s off
f 11/1/1 4/2/1 35/3/1 38/4/1
f 7/5/2 16/6/2 29/7/2 32/8/2
f 5/9/3 2/10/3 28/11/3 18/12/3
f 13/13/2 6/14/2 17/15/2 20/16/2
f 11/1/4 10/17/4 1/18/4 4/19/4
f 9/20/5 14/21/5 22/22/5 24/23/5
f 39/24/6 37/25/6 33/26/6 31/27/6
f 3/28/7 2/10/7 5/29/7 8/30/7
f 7/5/8 6/14/8 13/31/8 16/32/8
f 15/33/5 12/34/5 40/35/5 30/36/5
f 3/28/3 8/37/3 34/38/3 36/39/3
f 15/33/9 14/21/9 9/40/9 12/41/9
f 27/42/10 25/43/10 21/44/10 19/45/10
f 17/46/11 18/47/11 19/48/11
f 20/49/12 21/50/12 22/22/12
f 23/51/13 24/52/13 25/53/13
f 26/54/14 27/55/14 28/11/14
f 29/56/15 30/57/15 31/58/15
f 32/59/16 33/60/16 34/38/16
f 35/61/17 36/62/17 37/63/17
f 38/64/18 39/65/18 40/35/18
f 2/66/19 3/67/19 4/68/19 1/69/19
f 6/70/20 7/71/20 8/72/20 5/73/20
f 10/74/21 11/75/21 12/76/21 9/77/21
f 16/78/22 13/79/22 14/80/22 15/81/22
f 19/82/23 21/50/23 20/83/23 17/84/23
f 25/85/24 27/55/24 26/86/24 23/87/24
f 27/42/25 19/88/25 18/89/25 28/90/25
f 21/91/26 25/43/26 24/92/26 22/93/26
f 1/94/27 26/95/27 28/11/27 2/96/27
f 17/46/28 6/14/28 5/29/28 18/12/28
f 9/20/29 24/52/29 23/97/29 10/98/29
f 22/99/30 14/21/30 13/31/30 20/16/30
f 31/100/31 33/60/31 32/101/31 29/102/31
f 37/103/32 39/65/32 38/104/32 35/105/32
f 33/106/33 37/25/33 36/107/33 34/108/33
f 39/24/34 31/109/34 30/110/34 40/111/34
f 7/5/35 32/112/35 34/38/35 8/30/35
f 35/61/27 4/2/27 3/113/27 36/39/27
f 40/114/36 12/34/36 11/115/36 38/4/36
f 15/33/37 30/57/37 29/7/37 16/32/37
f 1/94/1 10/17/1 23/97/1 26/116/1
