# Blender v2.81 (sub 16) OBJ File: 'voxel_warrior.blend'
# www.blender.org
o foot_Cube.005
v -14.491604 -9.733328 31.600000
v -14.491604 -5.733328 35.599998
v -18.491604 -5.733328 31.600000
v -18.491604 -0.282346 31.600000
v -14.491604 -1.733328 35.599998
v -14.491604 3.752234 31.886095
v -18.491604 -5.733328 -20.400000
v -14.491604 -5.733328 -24.400000
v -14.491604 -9.733328 -20.400000
v -14.491604 14.266672 -20.400000
v -14.491604 10.266672 -24.400000
v -18.491604 10.129505 -20.400000
v 7.508396 -5.733328 31.600000
v 3.508396 -5.733328 35.599998
v 3.508396 -9.733328 31.600000
v 3.508396 3.752234 31.886095
v 3.508396 -1.733328 35.599998
v 7.508396 -0.282346 31.600000
v 3.508396 -9.733328 -20.400000
v 3.508396 -5.733328 -24.400000
v 7.508396 -5.733328 -20.400000
v 3.508396 14.266672 -20.400000
v 7.508396 10.129505 -20.400000
v 3.508396 10.266672 -24.400000
v -18.491604 -5.733328 5.600000
v -14.491604 -9.733328 5.600000
v -18.491604 10.124018 5.600000
v -14.491604 14.266672 5.600000
v 7.508396 -5.733328 5.600000
v 3.508396 -9.733328 5.600000
v 7.508396 10.124018 5.600000
v 3.508396 14.266672 5.600000
vt 0.288462 0.783333
vt 0.461538 0.783333
vt 0.461538 1.000000
vt 0.288462 1.000000
vt 0.288462 0.783333
vt 0.461538 0.783333
vt 0.461538 1.000000
vt 0.288462 1.000000
vt 0.291667 0.783333
vt 0.456905 0.783333
vt 0.456847 1.000000
vt 0.291667 1.000000
vt 0.288462 0.750000
vt 0.461538 0.750000
vt 0.461538 0.966667
vt 0.288462 0.966667
vt 0.288462 0.750000
vt 0.461538 0.750000
vt 0.461538 0.969051
vt 0.288462 0.969051
vt 0.291667 0.788462
vt 0.458333 0.788462
vt 0.458333 0.961538
vt 0.291667 0.961538
vt 0.291667 0.750000
vt 0.456847 0.750000
vt 0.427996 0.966667
vt 0.323505 0.966667
vt 0.291667 0.750000
vt 0.456847 0.750000
vt 0.456905 0.966667
vt 0.291667 0.966667
vt 0.333333 0.788462
vt 0.416667 0.788462
vt 0.416667 0.961538
vt 0.333333 0.961538
vt 0.288462 1.000000
vt 0.250000 0.966667
vt 0.427996 0.783333
vt 0.416667 0.750000
vt 0.500000 0.780949
vt 0.291667 1.000000
vt 0.250000 0.966667
vt 0.461538 0.750000
vt 0.500000 0.783333
vt 0.333333 1.000000
vt 0.250000 0.966667
vt 0.288462 1.000000
vt 0.250000 0.978589
vt 0.461538 0.750000
vt 0.500000 0.783333
vt 0.250000 0.783333
vt 0.288462 0.750000
vt 0.250000 0.750000
vt 0.446895 1.000000
vt 0.333333 1.000000
vt 0.500000 1.000000
vt 0.291667 0.750000
vt 0.456905 0.750000
vt 0.288462 0.750000
vt 0.291667 0.750000
vt 0.458333 0.750000
vt 0.500000 1.000000
vt 0.250000 0.761904
vt 0.333333 0.750000
vt 0.446895 0.750000
vt 0.461538 1.000000
vt 0.461538 1.000000
vt 0.250000 1.000000
vt 0.250000 0.783333
vt 0.500000 0.761904
vt 0.500000 0.978589
vt 0.500000 0.750000
vt 0.500000 0.966667
vt 0.250000 1.000000
vt 0.323505 0.783333
vt 0.456847 1.000000
vt 0.291667 1.000000
vn 0.0000 1.0000 0.0000
vn 0.0000 -1.0000 0.0000
vn 1.0000 0.0000 0.0000
vn -0.0000 0.9285 0.3714
vn 0.0000 0.0000 -1.0000
vn -1.0000 0.0000 0.0000
vn 0.0000 0.0000 1.0000
vn -0.5774 -0.5774 0.5774
vn -0.5298 0.4755 0.7023
vn -0.5774 -0.5774 -0.5774
vn -0.5903 0.5708 -0.5708
vn 0.5774 -0.5774 0.5774
vn 0.5298 0.4755 0.7023
vn 0.5774 -0.5774 -0.5774
vn 0.5903 0.5708 -0.5708
vn -0.7071 -0.7071 0.0000
vn -0.7071 0.0000 0.7071
vn -0.7192 0.6949 0.0001
vn -0.7071 0.0000 -0.7071
vn 0.0000 -0.7071 -0.7071
vn 0.0000 0.7071 -0.7071
vn 0.7071 0.0000 -0.7071
vn 0.7071 -0.7071 0.0000
vn 0.6934 0.6690 0.2677
vn 0.7071 0.0000 0.7071
vn 0.0000 -0.7071 0.7071
vn 0.0000 0.5606 0.8281
vn -0.6934 0.6690 0.2677
vn 0.7192 0.6949 0.0001
s off
f 22/1/1 10/2/1 28/3/1 32/4/1
f 9/5/2 19/6/2 30/7/2 26/8/2
f 21/9/3 23/10/3 31/11/3 29/12/3
f 26/13/2 30/14/2 15/15/2 1/16/2
f 32/17/4 28/18/4 6/19/4 16/20/4
f 8/21/5 11/22/5 24/23/5 20/24/5
f 29/25/3 31/26/3 18/27/3 13/28/3
f 25/29/6 27/30/6 12/31/6 7/32/6
f 14/33/7 17/34/7 5/35/7 2/36/7
f 1/16/8 2/37/8 3/38/8
f 4/39/9 5/40/9 6/41/9
f 7/32/10 8/42/10 9/43/10
f 10/2/11 11/44/11 12/45/11
f 13/28/12 14/46/12 15/47/12
f 16/20/13 17/48/13 18/49/13
f 19/6/14 20/50/14 21/51/14
f 22/1/15 23/52/15 24/53/15
f 26/13/16 1/16/16 3/38/16 25/54/16
f 2/36/17 5/35/17 4/55/17 3/56/17
f 28/3/18 10/2/18 12/45/18 27/57/18
f 11/22/19 8/21/19 7/58/19 12/59/19
f 19/6/20 9/5/20 8/60/20 20/50/20
f 10/2/21 22/1/21 24/53/21 11/44/21
f 23/10/22 21/9/22 20/61/22 24/62/22
f 30/7/23 19/6/23 21/51/23 29/63/23
f 32/17/24 16/20/24 18/49/24 31/64/24
f 17/34/25 14/33/25 13/65/25 18/66/25
f 1/16/26 15/15/26 14/67/26 2/37/26
f 16/20/27 6/19/27 5/68/27 17/48/27
f 9/5/16 26/8/16 25/69/16 7/70/16
f 6/19/28 28/18/28 27/71/28 4/72/28
f 15/15/23 30/14/23 29/73/23 13/74/23
f 22/1/29 32/4/29 31/75/29 23/52/29
f 3/76/6 4/39/6 27/77/6 25/78/6
