# Blender v2.81 (sub 16) OBJ File: 'voxel_warrior.blend'
# www.blender.org
o head_Cube.001
v -13.899826 37.599998 45.599998
v 2.100174 37.599998 45.599998
v 2.100174 29.600000 45.599998
v 2.100174 13.600000 45.599998
v -13.899826 13.600000 45.599998
v -13.899826 29.600000 45.599998
v 18.100174 29.600000 33.599998
v -13.899826 29.600000 33.599998
v -29.899826 29.600000 33.599998
v 2.100174 29.600000 33.599998
v -13.899826 45.599998 33.599998
v -29.899826 45.599998 33.599998
v 2.100174 45.599998 33.599998
v 18.100174 45.599998 33.599998
v 34.100174 61.599998 21.600000
v -29.899826 61.599998 37.599998
v -45.899826 61.599998 21.600000
v -13.899826 61.599998 37.599998
v 2.100174 61.599998 37.599998
v 18.100174 61.599998 37.599998
v -45.899826 61.599998 -10.400000
v 18.100174 45.599998 37.599998
v 34.100174 45.599998 21.600000
v 2.100174 45.599998 37.599998
v -13.899826 45.599998 37.599998
v -29.899826 45.599998 37.599998
v -29.899826 61.599998 -42.400002
v -45.899826 45.599998 21.600000
v -45.899826 29.600000 21.600000
v -45.899826 29.600000 -10.400000
v -13.899826 29.600000 37.599998
v -29.899826 29.600000 37.599998
v -45.899826 45.599998 -10.400000
v 34.100174 45.599998 -10.400000
v 2.100174 29.600000 37.599998
v 34.100174 29.600000 -10.400000
v 34.100174 29.600000 21.600000
v 18.100174 29.600000 37.599998
v 18.100174 -2.400000 21.600000
v 34.100174 13.600000 21.600000
v 18.100174 -2.400000 21.600000
v 18.100174 -2.400000 29.600000
v 18.100174 13.600000 37.599998
v 2.100174 -2.400000 29.600000
v 2.100174 13.600000 37.599998
v 2.100174 -2.400000 21.600000
v 34.100174 61.599998 -10.400000
v -13.899826 -2.400000 21.600000
v -13.899826 -2.400000 29.600000
v -13.899826 13.600000 37.599998
v -29.899826 29.600000 -42.400002
v -29.899826 -2.400000 21.600000
v -29.899826 13.600000 37.599998
v -29.899826 -2.400000 29.600000
v -45.899826 13.600000 21.600000
v -29.899826 -2.400000 21.600000
v -45.899826 29.600000 -26.400000
v 34.100174 61.599998 5.600000
v 34.100174 29.600000 5.600000
v 34.100174 45.599998 5.600000
v -45.899826 45.599998 5.600000
v -45.899826 29.600000 5.600000
v -45.899826 61.599998 -26.400000
v -45.899826 61.599998 5.600000
v 34.100174 13.600000 5.600000
v 34.100174 29.600000 -26.400000
v 18.100174 -2.400000 5.600000
v 18.100174 -2.400000 5.600000
v -13.899826 -2.400000 5.600000
v 2.100174 -2.400000 5.600000
v -45.899826 13.600000 5.600000
v -29.899826 -2.400000 5.600000
v -29.899826 -2.400000 5.600000
v -29.899826 45.599998 -42.400002
v 34.100174 13.600000 -10.400000
v -45.899826 45.599998 -26.400000
v 34.100174 45.599998 -26.400000
v 2.100174 61.599998 -42.400002
v 34.100174 61.599998 -26.400000
v 18.100174 -2.400000 -10.400000
v 18.100174 -2.400000 -10.400000
v 18.100174 45.599998 -42.400002
v -13.899826 -2.400000 -10.400000
v 2.100174 -2.400000 -10.400000
v 18.100174 61.599998 -42.400002
v -45.899826 13.600000 -10.400000
v -29.899826 -2.400000 -10.400000
v -29.899826 -2.400000 -10.400000
v 18.100174 -2.400000 -26.400000
v -13.899826 -2.400000 -26.400000
v 2.100174 -2.400000 -26.400000
v -45.899826 13.600000 -26.400000
v -29.899826 -2.400000 -26.400000
v -29.899826 -2.400000 -26.400000
v -13.899826 45.599998 -42.400002
v 2.100174 45.599998 -42.400002
v 34.100174 13.600000 -26.400000
v -29.899826 13.600000 -42.400002
v -13.899826 61.599998 -42.400002
v 18.100174 29.600000 -42.400002
v 18.100174 13.600000 -42.400002
v 2.100174 29.600000 -42.400002
v -13.899826 29.600000 -42.400002
v 18.100174 -2.400000 -26.400000
v 18.100174 -2.400000 -26.400000
v 2.100174 13.600000 -42.400002
v -13.899826 -2.400000 -26.400000
v 2.100174 -2.400000 -26.400000
v -13.899826 13.600000 -42.400002
v -29.899826 -2.400000 -26.400000
v 2.739151 77.574455 28.961021
v -13.260849 77.574455 28.961021
v 26.739151 77.574455 20.961023
v 18.739151 77.574455 20.961023
v -29.260849 77.574455 20.961023
v -29.260849 77.574455 28.961021
v 18.739151 77.574455 28.961021
v 2.739151 77.574455 20.961023
v -13.260849 77.574455 20.961023
v 2.739151 77.574455 -35.038979
v 2.739151 77.574455 -11.038977
v 18.739151 77.574455 -11.038977
v 26.739151 77.574455 -11.038977
v -29.260849 77.574455 4.961021
v -13.260849 77.574455 4.961021
v 2.739151 77.574455 4.961021
v 18.739151 77.574455 4.961021
v -37.260849 77.574455 20.961023
v 26.739151 77.574455 4.961021
v 2.739151 77.574455 -27.038977
v 18.739151 77.574455 -27.038977
v -37.260849 77.574455 -11.038977
v -37.260849 77.574455 4.961021
v -29.260849 77.574455 -11.038977
v -13.260849 77.574455 -11.038977
v 18.739151 77.574455 -35.038979
v 26.739151 77.574455 -27.038977
v -37.260849 77.574455 -27.038977
v -29.260849 77.574455 -27.038977
v -13.260849 77.574455 -27.038977
v -29.260849 77.574455 -35.038979
v -13.260849 77.574455 -35.038979
vt 0.250000 0.750000
vt 0.500000 0.750000
vt 0.500000 1.000000
vt 0.250000 1.000000
vt 0.250000 0.750000
vt 0.500000 0.750000
vt 0.500000 1.000000
vt 0.250000 1.000000
vt 0.250000 0.750000
vt 0.500000 0.750000
vt 0.500000 1.000000
vt 0.250000 1.000000
vt 0.250000 0.500000
vt 0.500000 0.500000
vt 0.500000 0.750000
vt 0.250000 0.750000
vt 0.250000 0.500000
vt 0.500000 0.500000
vt 0.500000 0.750000
vt 0.250000 0.750000
vt 0.500000 0.750000
vt 0.500000 1.000000
vt 0.250000 1.000000
vt 0.250000 0.500000
vt 0.500000 0.500000
vt 0.500000 0.750000
vt 0.250000 0.750000
vt 0.250000 0.750000
vt 0.500000 0.750000
vt 0.500000 1.000000
vt 0.250000 1.000000
vt 0.250000 0.750000
vt 0.500000 0.750000
vt 0.500000 1.000000
vt 0.250000 1.000000
vt 0.250000 0.750000
vt 0.500000 0.750000
vt 0.500000 1.000000
vt 0.250000 1.000000
vt 0.250000 0.750000
vt 0.500000 0.750000
vt 0.500000 1.000000
vt 0.250000 1.000000
vt 0.250000 0.750000
vt 0.500000 0.750000
vt 0.500000 1.000000
vt 0.250000 1.000000
vt 0.250000 0.750000
vt 0.500000 0.750000
vt 0.500000 1.000000
vt 0.250000 1.000000
vt 0.500000 0.750000
vt 0.500000 1.000000
vt 0.250000 1.000000
vt 0.500000 0.500000
vt 0.500000 0.750000
vt 0.250000 0.750000
vt 0.250000 0.500000
vt 0.500000 0.500000
vt 0.500000 0.750000
vt 0.250000 0.750000
vt 0.250000 0.500000
vt 0.500000 0.500000
vt 0.250000 0.750000
vt 0.250000 0.750000
vt 0.500000 0.750000
vt 0.500000 1.000000
vt 0.250000 1.000000
vt 0.500000 0.750000
vt 0.750000 0.750000
vt 0.750000 1.000000
vt 0.250000 0.750000
vt 0.500000 0.750000
vt 0.500000 1.000000
vt 0.250000 0.500000
vt 0.500000 0.750000
vt 0.250000 0.750000
vt 0.250000 0.750000
vt 0.500000 0.750000
vt 0.500000 1.000000
vt 0.250000 1.000000
vt 0.250000 0.750000
vt 0.500000 0.750000
vt 0.500000 1.000000
vt 0.250000 1.000000
vt 0.250000 0.750000
vt 0.500000 0.750000
vt 0.500000 1.000000
vt 0.250000 1.000000
vt 0.250000 0.750000
vt 0.500000 1.000000
vt 0.250000 1.000000
vt 0.500000 0.750000
vt 0.250000 1.000000
vt 0.250000 0.750000
vt 0.500000 1.000000
vt 0.250000 1.000000
vt 0.250000 0.750000
vt 0.500000 0.750000
vt 0.500000 1.000000
vt 0.250000 1.000000
vt 0.500000 1.000000
vt 0.250000 1.000000
vt 0.250000 0.750000
vt 0.500000 1.000000
vt 0.250000 1.000000
vt 0.250000 0.750000
vt 0.500000 0.750000
vt 0.500000 1.000000
vt 0.250000 1.000000
vt 0.250000 0.750000
vt 0.500000 1.000000
vt 0.250000 1.000000
vt 0.250000 0.750000
vt 0.500000 0.750000
vt 0.500000 1.000000
vt 0.250000 1.000000
vt 0.500000 0.750000
vt 0.500000 1.000000
vt 0.250000 1.000000
vt 0.250000 0.750000
vt 0.500000 1.000000
vt 0.250000 1.000000
vt 0.250000 0.750000
vt 0.500000 0.750000
vt 0.500000 1.000000
vt 0.250000 1.000000
vt 0.250000 0.750000
vt 0.500000 1.000000
vt 0.250000 1.000000
vt 0.500000 1.000000
vt 0.250000 0.750000
vt 0.500000 0.750000
vt 0.500000 1.000000
vt 0.250000 1.000000
vt 0.250000 0.750000
vt 0.500000 1.000000
vt 0.250000 1.000000
vt 0.500000 0.750000
vt 0.500000 1.000000
vt 0.250000 1.000000
vt 0.750000 0.750000
vt 0.750000 1.000000
vt 0.250000 0.750000
vt 0.500000 0.750000
vt 0.500000 1.000000
vt 0.250000 1.000000
vt 0.250000 0.750000
vt 0.500000 0.750000
vt 0.500000 1.000000
vt 0.250000 1.000000
vt 0.500000 0.750000
vt 0.500000 1.000000
vt 0.250000 1.000000
vt 0.500000 0.750000
vt 0.500000 1.000000
vt 0.250000 1.000000
vt 0.500000 1.000000
vt 0.250000 1.000000
vt 0.500000 0.500000
vt 0.500000 0.750000
vt 0.250000 0.750000
vt 0.500000 1.000000
vt 0.250000 1.000000
vt 0.250000 0.750000
vt 0.500000 0.750000
vt 0.500000 1.000000
vt 0.250000 1.000000
vt 0.250000 0.500000
vt 0.500000 0.500000
vt 0.500000 0.750000
vt 0.250000 0.750000
vt 0.500000 0.750000
vt 0.500000 1.000000
vt 0.250000 1.000000
vt 0.250000 0.500000
vt 0.250000 0.750000
vt 0.500000 0.750000
vt 0.500000 1.000000
vt 0.250000 1.000000
vt 0.500000 1.000000
vt 0.250000 1.000000
vt 0.250000 0.750000
vt 0.500000 0.750000
vt 0.500000 1.000000
vt 0.250000 1.000000
vt 0.250000 0.750000
vt 0.500000 0.750000
vt 0.500000 1.000000
vt 0.250000 1.000000
vt 0.250000 0.750000
vt 0.500000 0.750000
vt 0.500000 1.000000
vt 0.250000 1.000000
vt 0.250000 0.750000
vt 0.500000 0.750000
vt 0.500000 1.000000
vt 0.250000 1.000000
vt 0.250000 0.750000
vt 0.500000 0.750000
vt 0.500000 1.000000
vt 0.250000 1.000000
vt 0.250000 0.750000
vt 0.500000 0.750000
vt 0.500000 1.000000
vt 0.250000 1.000000
vt 0.250000 0.750000
vt 0.500000 0.750000
vt 0.500000 1.000000
vt 0.250000 1.000000
vt 0.250000 0.750000
vt 0.500000 0.750000
vt 0.500000 1.000000
vt 0.250000 1.000000
vt 0.250000 0.750000
vt 0.500000 0.750000
vt 0.500000 1.000000
vt 0.250000 1.000000
vt 0.250000 0.750000
vt 0.500000 0.750000
vt 0.500000 1.000000
vt 0.250000 1.000000
vt 0.250000 0.750000
vt 0.500000 0.750000
vt 0.500000 1.000000
vt 0.250000 1.000000
vt 0.250000 0.750000
vt 0.500000 0.750000
vt 0.500000 1.000000
vt 0.250000 1.000000
vt 0.250000 0.750000
vt 0.500000 0.750000
vt 0.500000 1.000000
vt 0.250000 1.000000
vt 0.250000 0.750000
vt 0.500000 0.750000
vt 0.500000 1.000000
vt 0.250000 1.000000
vt 0.250000 0.750000
vt 0.500000 0.750000
vt 0.500000 1.000000
vt 0.250000 1.000000
vt 0.250000 0.750000
vt 0.500000 0.750000
vt 0.500000 1.000000
vt 0.250000 1.000000
vt 0.250000 0.750000
vt 0.500000 0.750000
vt 0.500000 1.000000
vt 0.250000 1.000000
vt 0.250000 0.750000
vt 0.500000 0.750000
vt 0.500000 1.000000
vt 0.250000 1.000000
vt 0.500000 0.750000
vt 0.500000 1.000000
vt 0.250000 1.000000
vt 0.250000 0.750000
vt 0.500000 0.750000
vt 0.500000 1.000000
vt 0.250000 1.000000
vt 0.250000 0.750000
vt 0.500000 0.750000
vt 0.500000 1.000000
vt 0.250000 1.000000
vt 0.250000 0.750000
vt 0.500000 0.750000
vt 0.500000 1.000000
vt 0.250000 1.000000
vt 0.250000 0.750000
vt 0.500000 0.750000
vt 0.500000 1.000000
vt 0.250000 1.000000
vt 0.250000 0.750000
vt 0.500000 0.750000
vt 0.500000 1.000000
vt 0.250000 1.000000
vt 0.250000 0.750000
vt 0.500000 0.750000
vt 0.500000 1.000000
vt 0.250000 1.000000
vt 0.250000 0.750000
vt 0.500000 1.000000
vt 0.250000 1.000000
vt 0.250000 0.750000
vt 0.500000 1.000000
vt 0.250000 1.000000
vt 0.250000 0.750000
vt 0.500000 0.750000
vt 0.500000 1.000000
vt 0.250000 1.000000
vt 0.250000 0.750000
vt 0.500000 0.750000
vt 0.500000 1.000000
vt 0.250000 1.000000
vt 0.250000 0.750000
vt 0.500000 0.750000
vt 0.500000 1.000000
vt 0.250000 1.000000
vt 0.500000 0.750000
vt 0.500000 1.000000
vt 0.250000 1.000000
vt 0.250000 0.750000
vt 0.500000 0.750000
vt 0.500000 1.000000
vt 0.250000 1.000000
vt 0.250000 0.750000
vt 0.500000 0.750000
vt 0.500000 1.000000
vt 0.250000 0.750000
vt 0.500000 0.750000
vt 0.500000 1.000000
vt 0.250000 1.000000
vt 0.250000 0.750000
vt 0.500000 0.750000
vt 0.500000 1.000000
vt 0.250000 1.000000
vt 0.250000 0.750000
vt 0.500000 0.750000
vt 0.500000 1.000000
vt 0.250000 1.000000
vt 0.250000 0.750000
vt 0.500000 0.750000
vt 0.500000 1.000000
vt 0.500000 0.750000
vt 0.500000 1.000000
vt 0.250000 1.000000
vt 0.250000 0.750000
vt 0.500000 0.750000
vt 0.500000 1.000000
vt 0.250000 1.000000
vt 0.250000 0.750000
vt 0.500000 0.750000
vt 0.250000 1.000000
vt 0.250000 0.750000
vt 0.500000 0.750000
vt 0.500000 1.000000
vt 0.250000 1.000000
vt 0.250000 0.750000
vt 0.500000 0.750000
vt 0.500000 1.000000
vt 0.250000 1.000000
vt 0.250000 0.750000
vt 0.500000 0.750000
vt 0.500000 1.000000
vt 0.250000 0.750000
vt 0.500000 1.000000
vt 0.250000 1.000000
vt 0.250000 0.750000
vt 0.500000 0.750000
vt 0.250000 1.000000
vt 0.250000 0.750000
vt 0.500000 0.750000
vt 0.500000 1.000000
vt 0.250000 0.750000
vt 0.500000 0.750000
vt 0.500000 1.000000
vt 0.250000 1.000000
vt 0.250000 0.750000
vt 0.500000 0.750000
vt 0.250000 1.000000
vt 0.250000 0.750000
vt 0.500000 0.750000
vt 0.250000 1.000000
vt 0.250000 0.750000
vt 0.500000 0.750000
vt 0.250000 0.750000
vt 0.500000 0.750000
vt 0.500000 1.000000
vt 0.250000 1.000000
vt 0.250000 0.750000
vt 0.500000 0.750000
vt 0.500000 1.000000
vt 0.250000 1.000000
vt 0.250000 0.750000
vt 0.500000 1.000000
vt 0.250000 0.750000
vt 0.500000 0.750000
vt 0.500000 1.000000
vt 0.250000 0.750000
vt 0.500000 1.000000
vt 0.250000 1.000000
vt 0.250000 0.750000
vt 0.500000 1.000000
vt 0.250000 0.750000
vt 0.500000 0.750000
vt 0.250000 1.000000
vt 0.250000 0.750000
vt 0.500000 0.750000
vt 0.500000 1.000000
vt 0.250000 1.000000
vt 0.250000 0.750000
vt 0.500000 1.000000
vt 0.250000 0.750000
vt 0.500000 1.000000
vt 0.250000 1.000000
vt 0.250000 0.750000
vt 0.500000 0.750000
vt 0.500000 1.000000
vt 0.250000 0.750000
vt 0.500000 1.000000
vt 0.250000 1.000000
vt 0.250000 0.750000
vt 0.500000 0.750000
vt 0.500000 1.000000
vt 0.250000 1.000000
vt 0.250000 0.750000
vt 0.500000 0.750000
vt 0.250000 1.000000
vt 0.250000 0.750000
vt 0.500000 0.750000
vt 0.500000 0.750000
vt 0.250000 0.750000
vt 0.500000 0.750000
vt 0.250000 1.000000
vt 0.250000 0.750000
vt 0.500000 0.750000
vt 0.500000 1.000000
vt 0.500000 0.750000
vt 0.250000 1.000000
vt 0.500000 0.750000
vt 0.500000 1.000000
vt 0.250000 1.000000
vt 0.500000 0.750000
vt 0.500000 1.000000
vt 0.250000 1.000000
vt 0.500000 0.750000
vt 0.500000 1.000000
vt 0.250000 1.000000
vt 0.250000 0.750000
vt 0.500000 1.000000
vt 0.250000 0.750000
vt 0.500000 0.750000
vt 0.500000 1.000000
vt 0.250000 0.750000
vt 0.500000 0.750000
vt 0.500000 1.000000
vt 0.250000 1.000000
vt 0.250000 0.750000
vt 0.500000 0.750000
vt 0.500000 1.000000
vt 0.250000 1.000000
vt 0.250000 0.750000
vt 0.500000 0.750000
vt 0.500000 1.000000
vt 0.250000 1.000000
vt 0.250000 0.750000
vt 0.500000 0.750000
vt 0.250000 1.000000
vt 0.250000 0.750000
vt 0.500000 0.750000
vt 0.500000 1.000000
vt 0.250000 0.750000
vt 0.500000 0.750000
vt 0.250000 1.000000
vt 0.250000 0.750000
vt 0.500000 0.750000
vt 0.500000 1.000000
vt 0.250000 1.000000
vt 0.250000 0.750000
vt 0.500000 0.750000
vt 0.500000 1.000000
vt 0.250000 1.000000
vt 0.250000 0.750000
vt 0.500000 0.750000
vt 0.500000 1.000000
vt 0.250000 1.000000
vt 0.250000 0.750000
vt 0.500000 0.750000
vt 0.250000 1.000000
vt 0.250000 0.750000
vt 0.500000 0.750000
vt 0.250000 0.750000
vt 0.500000 0.750000
vt 0.250000 0.750000
vt 0.500000 0.750000
vt 0.250000 0.750000
vt 0.500000 0.750000
vt 0.500000 1.000000
vt 0.250000 0.750000
vn -0.7071 0.0000 0.7071
vn 0.7071 0.0000 -0.7071
vn 0.0000 1.0000 0.0000
vn 0.0000 0.0000 1.0000
vn -1.0000 0.0000 0.0000
vn 0.0000 0.0000 -1.0000
vn 0.0000 0.7071 0.7071
vn 0.0000 -1.0000 0.0000
vn 1.0000 0.0000 0.0000
vn 0.7071 0.0000 0.7071
vn 0.0000 -0.4472 0.8944
vn 0.7276 -0.4851 0.4851
vn -0.7071 -0.7071 0.0000
vn 0.6665 0.3338 0.6665
vn 0.0000 0.4757 0.8796
vn -0.7276 -0.4851 0.4851
vn 0.7071 -0.7071 0.0000
vn 0.6777 0.2852 -0.6777
vn 0.9082 0.4185 0.0000
vn 0.0000 0.4185 -0.9082
vn -0.8796 0.4757 0.0000
vn -0.6541 0.3799 0.6541
vn -0.6665 0.3338 -0.6665
vn -0.7071 0.0000 -0.7071
vn 0.5774 -0.5774 -0.5774
vn 0.0000 -0.7071 -0.7071
vn -0.5774 -0.5774 -0.5774
s off
f 29/1/1 32/2/1 26/3/1 28/4/1
f 66/5/2 100/6/2 82/7/2 77/8/2
f 32/9/3 31/10/3 8/11/3 9/12/3
f 6/13/4 3/14/4 2/15/4 1/16/4
f 25/17/5 31/18/5 6/19/5 1/16/5
f 95/20/6 74/21/6 27/22/6 99/23/6
f 24/24/7 25/25/7 1/26/7 2/27/7
f 46/28/8 48/29/8 69/30/8 70/31/8
f 22/32/8 24/33/8 13/34/8 14/35/8
f 25/36/8 26/37/8 12/38/8 11/39/8
f 38/40/5 22/41/5 14/42/5 7/43/5
f 55/44/1 53/45/1 32/46/1 29/47/1
f 48/48/8 52/49/8 72/50/8 69/51/8
f 29/1/5 28/52/5 61/53/5 62/54/5
f 24/24/9 35/55/9 10/56/9 13/57/9
f 50/58/8 45/59/8 4/60/8 5/61/8
f 35/62/9 24/63/9 2/15/9 3/64/9
f 26/65/4 25/66/4 18/67/4 16/68/4
f 9/69/4 8/70/4 11/71/4 12/38/4
f 42/72/4 41/73/4 39/74/4
f 31/75/5 25/25/5 11/76/5 8/77/5
f 43/78/10 40/79/10 37/80/10 38/81/10
f 45/82/11 44/83/11 42/84/11 43/85/11
f 44/86/8 46/87/8 41/88/8 42/89/8
f 37/90/9 40/79/9 65/91/9 59/92/9
f 43/78/12 42/93/12 39/74/12 40/94/12
f 39/95/4 41/73/4 67/96/4 68/97/4
f 23/98/9 37/99/9 59/100/9 60/101/9
f 26/65/9 32/2/9 9/102/9 12/103/9
f 24/104/4 22/41/4 20/105/4 19/106/4
f 56/107/13 55/108/13 71/109/13 73/110/13
f 49/111/8 48/29/8 46/112/8 44/113/8
f 20/114/14 15/115/14 113/116/14 117/117/14
f 22/32/10 23/118/10 15/119/10 20/120/10
f 28/121/1 26/37/1 16/122/1 17/123/1
f 53/124/11 54/125/11 49/126/11 50/127/11
f 54/128/8 52/49/8 48/129/8 49/130/8
f 56/107/4 52/49/4 54/131/4
f 50/132/11 49/133/11 44/134/11 45/135/11
f 41/136/8 46/87/8 70/137/8 67/138/8
f 55/44/5 29/139/5 62/140/5 71/141/5
f 10/56/4 7/142/4 14/143/4 13/34/4
f 19/144/15 20/145/15 117/146/15 111/147/15
f 35/148/3 38/149/3 7/150/3 10/151/3
f 45/82/4 43/152/4 38/153/4 35/154/4
f 53/124/4 50/155/4 31/156/4 32/157/4
f 38/40/10 37/99/10 23/158/10 22/159/10
f 31/75/5 50/160/5 5/161/5 6/162/5
f 54/128/16 53/45/16 55/163/16 56/164/16
f 52/165/4 56/166/4 73/167/4 72/168/4
f 5/169/4 4/170/4 3/171/4 6/162/4
f 40/172/17 39/173/17 68/174/17 65/175/17
f 45/176/9 35/55/9 3/171/9 4/177/9
f 28/121/5 17/178/5 64/179/5 61/180/5
f 25/36/4 24/33/4 19/181/4 18/182/4
f 79/183/18 85/184/18 136/185/18 137/186/18
f 61/187/5 64/188/5 21/189/5 33/190/5
f 70/191/8 69/192/8 83/193/8 84/194/8
f 69/195/8 72/196/8 87/197/8 83/198/8
f 65/199/17 68/200/17 81/201/17 75/202/17
f 16/203/15 18/204/15 112/205/15 116/206/15
f 62/207/5 61/208/5 33/209/5 30/210/5
f 67/211/8 70/212/8 84/213/8 80/214/8
f 68/215/4 67/216/4 80/217/4 81/218/4
f 18/219/15 19/220/15 111/221/15 112/222/15
f 60/223/9 59/224/9 36/225/9 34/226/9
f 58/227/9 60/228/9 34/229/9 47/230/9
f 59/231/9 65/232/9 75/233/9 36/234/9
f 73/235/13 71/236/13 86/237/13 88/238/13
f 47/239/19 79/240/19 137/241/19 123/242/19
f 85/243/20 78/244/20 120/245/20 136/246/20
f 72/247/4 73/248/4 88/249/4 87/250/4
f 71/251/5 62/252/5 30/253/5 86/254/5
f 95/20/6 99/255/6 78/256/6 96/257/6
f 36/258/9 75/259/9 97/260/9 66/261/9
f 84/262/8 83/263/8 90/264/8 91/265/8
f 33/266/5 21/267/5 63/268/5 76/269/5
f 30/270/5 33/271/5 76/272/5 57/273/5
f 83/274/8 87/275/8 93/276/8 90/277/8
f 75/278/17 81/279/17 105/280/17 97/281/17
f 21/282/21 64/188/21 133/283/21 132/284/21
f 64/285/21 17/178/21 128/286/21 133/287/21
f 80/288/8 84/289/8 91/290/8 89/291/8
f 81/292/4 80/293/4 89/294/4 105/295/4
f 99/296/20 27/297/20 141/298/20 142/299/20
f 47/239/9 34/300/9 77/301/9 79/302/9
f 88/303/13 86/304/13 92/305/13 94/306/13
f 34/307/9 36/308/9 66/309/9 77/8/9
f 17/310/22 16/311/22 116/312/22 128/313/22
f 87/314/4 88/315/4 94/316/4 93/317/4
f 86/318/5 30/319/5 57/320/5 92/321/5
f 93/322/4 94/323/4 110/324/4
f 58/227/19 47/325/19 123/326/19 129/327/19
f 91/328/4 90/329/4 107/330/4 108/331/4
f 90/332/4 93/333/4 110/324/4 107/334/4
f 27/335/23 63/336/23 138/337/23 141/338/23
f 89/339/4 91/340/4 108/341/4 104/342/4
f 105/343/4 89/344/4 104/345/4
f 15/346/9 23/118/9 60/347/9 58/348/9
f 82/349/6 96/350/6 78/256/6 85/351/6
f 77/352/2 82/353/2 85/354/2 79/302/2
f 103/355/6 51/356/6 74/357/6 95/358/6
f 51/359/24 57/360/24 76/272/24 74/361/24
f 74/362/24 76/363/24 63/268/24 27/364/24
f 104/365/25 101/366/25 97/260/25 105/295/25
f 109/367/6 98/368/6 51/369/6 103/370/6
f 101/371/6 106/372/6 102/373/6 100/374/6
f 108/375/26 106/372/26 101/376/26 104/342/26
f 107/377/26 109/378/26 106/379/26 108/331/26
f 106/380/6 109/378/6 103/381/6 102/382/6
f 97/383/2 101/366/2 100/384/2 66/261/2
f 98/385/24 92/386/24 57/320/24 51/387/24
f 100/388/6 102/389/6 96/390/6 82/391/6
f 110/392/26 98/368/26 109/393/26 107/334/26
f 63/394/21 21/267/21 132/395/21 138/396/21
f 102/397/6 103/398/6 95/399/6 96/257/6
f 94/400/27 92/386/27 98/401/27 110/402/27
f 114/403/3 113/404/3 129/405/3 127/406/3
f 119/407/3 112/408/3 111/221/3 118/409/3
f 115/410/3 128/411/3 116/312/3
f 114/403/3 117/412/3 113/116/3
f 118/413/3 111/414/3 117/146/3 114/415/3
f 128/416/3 115/417/3 124/418/3 133/287/3
f 115/410/3 116/419/3 112/205/3 119/420/3
f 119/407/3 118/421/3 126/422/3 125/423/3
f 115/410/3 119/424/3 125/425/3 124/426/3
f 118/413/3 114/427/3 127/428/3 126/429/3
f 113/430/19 15/115/19 58/431/19 129/327/19
f 133/432/3 124/433/3 134/434/3 132/284/3
f 125/435/3 126/436/3 121/437/3 135/438/3
f 126/439/3 127/440/3 122/441/3 121/442/3
f 124/443/3 125/444/3 135/445/3 134/446/3
f 127/447/3 129/448/3 123/326/3 122/449/3
f 132/450/3 134/451/3 139/452/3 138/396/3
f 122/453/3 123/454/3 137/241/3 131/455/3
f 135/456/3 121/457/3 130/458/3 140/459/3
f 121/460/3 122/461/3 131/462/3 130/463/3
f 134/464/3 135/465/3 140/466/3 139/467/3
f 130/468/3 131/469/3 136/185/3 120/470/3
f 131/471/3 137/472/3 136/185/3
f 138/473/3 139/474/3 141/298/3
f 140/475/3 130/476/3 120/245/3 142/299/3
f 139/477/3 140/478/3 142/479/3 141/338/3
f 78/480/20 99/255/20 142/479/20 120/470/20
