# Blender v2.81 (sub 16) OBJ File: 'voxel_warrior.blend'
# www.blender.org
o shoe_Cube.008
v 9.508396 -3.733328 5.600000
v -20.491604 -3.733328 5.600000
v -20.491604 -7.733328 33.599998
v -16.491604 -11.733328 33.599998
v -16.491604 -7.733328 37.599998
v -20.491604 1.634030 33.599998
v -16.491604 0.266672 37.599998
v -16.491604 5.671165 33.854683
v -20.491604 -7.733328 -22.400000
v -16.491604 -7.733328 -26.400000
v -16.491604 -11.733328 -22.400000
v -20.491604 12.144493 -22.400000
v -16.491604 16.266672 -22.400000
v -16.491604 12.266672 -26.400000
v 9.508396 -7.733328 33.599998
v 5.508396 -7.733328 37.599998
v 5.508396 -11.733328 33.599998
v 9.508396 1.634031 33.599998
v 5.508396 5.671165 33.854683
v 5.508396 0.266672 37.599998
v 5.508396 -11.733328 -22.400000
v 5.508396 -7.733328 -26.400000
v 9.508396 -7.733328 -22.400000
v 5.508396 12.266672 -26.400000
v 5.508396 16.266672 -22.400000
v 9.508396 12.144493 -22.400000
v -20.491604 -7.733328 5.600000
v -16.491604 -11.733328 5.600000
v -20.491604 12.139605 5.600000
v -16.491604 16.266672 5.600000
v 9.508396 -7.733328 5.600000
v 5.508396 -11.733328 5.600000
v 9.508396 12.139605 5.600000
v 5.508396 16.266672 5.600000
v -20.491604 -3.733328 33.599998
v -16.491604 -3.733328 37.599998
v -20.491604 -3.733328 -22.400000
v -16.491604 -3.733328 -26.400000
v 5.508396 -3.733328 -26.400000
v 9.508396 -3.733328 -22.400000
v 9.508396 -3.733328 33.599998
v 5.508396 -3.733328 37.599998
vt 0.875000 0.000000
vt 1.000000 0.000000
vt 1.000000 0.218750
vt 0.875000 0.218750
vt 0.750000 0.750000
vt 0.948412 0.750000
vt 0.948473 0.968750
vt 0.750000 0.968750
vt 0.875000 0.031250
vt 1.000000 0.031250
vt 1.000000 0.250000
vt 0.875000 0.250000
vt 0.783333 0.750000
vt 0.966667 0.750000
vt 0.966667 0.970740
vt 0.783333 0.970740
vt 0.875000 0.033333
vt 1.000000 0.033333
vt 1.000000 0.216667
vt 0.875000 0.216667
vt 0.875000 0.000000
vt 1.000000 0.000000
vt 1.000000 0.218750
vt 0.875000 0.218750
vt 0.750000 0.783333
vt 0.950000 0.783333
vt 0.950000 0.966667
vt 0.750000 0.966667
vt 0.783333 0.781250
vt 0.966667 0.781250
vt 0.966667 1.000000
vt 0.783333 1.000000
vt 0.750000 0.783333
vt 0.875000 0.783333
vt 0.875000 0.966667
vt 0.750000 0.966667
vt 0.783333 0.000000
vt 0.966667 0.000000
vt 0.966667 0.218750
vt 0.783333 0.218750
vt 0.750000 0.781250
vt 0.948473 0.781250
vt 0.948412 1.000000
vt 0.750000 1.000000
vt 0.750000 0.781250
vt 0.894884 0.781250
vt 0.948412 1.000000
vt 0.750000 1.000000
vt 0.750000 0.750000
vt 0.948412 0.750000
vt 0.894884 0.968750
vt 0.750000 0.968750
vt 0.783333 0.031250
vt 0.966667 0.031250
vt 0.966667 0.250000
vt 0.783333 0.250000
vt 0.875000 0.033333
vt 1.000000 0.033333
vt 1.000000 0.216667
vt 0.875000 0.216667
vt 0.875000 0.031250
vt 0.750000 0.031250
vt 0.875000 0.000000
vt 0.875000 0.750000
vt 1.000000 0.779260
vt 0.875000 0.250000
vt 0.750000 0.218750
vt 1.000000 0.968750
vt 0.950000 1.000000
vt 0.875000 0.250000
vt 0.750000 0.218750
vt 1.000000 0.970740
vt 0.875000 1.000000
vt 0.966667 0.000000
vt 1.000000 0.031250
vt 1.000000 0.966667
vt 0.948473 1.000000
vt 0.750000 0.218750
vt 0.750000 0.000000
vt 0.917730 1.000000
vt 0.750000 1.000000
vt 1.000000 0.781250
vt 1.000000 1.000000
vt 0.875000 0.000000
vt 1.000000 0.000000
vt 0.783333 0.000000
vt 0.783333 0.750000
vt 0.966667 0.750000
vt 0.875000 0.000000
vt 1.000000 0.000000
vt 1.000000 0.250000
vt 0.750000 0.979365
vt 0.750000 0.760600
vt 0.875000 0.000000
vt 1.000000 0.000000
vt 0.966667 0.250000
vt 0.783333 0.250000
vt 0.966667 1.000000
vt 0.783333 1.000000
vt 0.750000 0.250000
vt 0.750000 0.031250
vt 1.000000 0.760600
vt 1.000000 0.979365
vt 1.000000 0.000000
vt 1.000000 0.218750
vt 0.750000 1.000000
vt 0.750000 0.781250
vt 1.000000 0.250000
vt 0.875000 0.250000
vt 0.750000 0.750000
vt 0.948473 0.750000
vt 0.750000 0.750000
vt 0.950000 0.750000
vt 0.750000 0.750000
vt 0.917730 0.750000
vt 1.000000 0.031250
vt 1.000000 0.250000
vt 0.875000 0.250000
vn 1.0000 0.0000 0.0000
vn -1.0000 0.0000 0.0000
vn 0.0000 0.9363 0.3511
vn 0.0000 0.0000 1.0000
vn 0.0000 0.0000 -1.0000
vn 0.0000 1.0000 0.0000
vn 0.0000 -1.0000 0.0000
vn -0.5774 -0.5774 0.5774
vn -0.5313 0.4825 0.6963
vn -0.5773 -0.5774 -0.5774
vn -0.5889 0.5715 -0.5715
vn 0.5774 -0.5774 0.5774
vn 0.5313 0.4825 0.6963
vn 0.5773 -0.5774 -0.5774
vn 0.5889 0.5715 -0.5715
vn -0.7071 -0.7071 0.0000
vn -0.7071 0.0000 0.7071
vn -0.7179 0.6962 0.0001
vn -0.7071 0.0000 -0.7071
vn 0.0000 -0.7071 -0.7071
vn 0.0000 0.7071 -0.7071
vn 0.7071 0.0000 -0.7071
vn 0.7071 -0.7071 0.0000
vn 0.6950 0.6732 0.2525
vn 0.7071 0.0000 0.7071
vn 0.0000 -0.7071 0.7071
vn 0.0000 0.5696 0.8219
vn -0.6950 0.6732 0.2525
vn 0.7179 0.6962 0.0001
s off
f 31/1/1 1/2/1 41/3/1 15/4/1
f 2/5/2 29/6/2 12/7/2 37/8/2
f 23/9/1 40/10/1 1/11/1 31/12/1
f 34/13/3 30/14/3 8/15/3 19/16/3
f 16/17/4 42/18/4 36/19/4 5/20/4
f 27/21/2 2/22/2 37/23/2 9/24/2
f 38/25/5 14/26/5 24/27/5 39/28/5
f 25/29/6 13/30/6 30/31/6 34/32/6
f 42/33/4 20/34/4 7/35/4 36/36/4
f 28/37/7 32/38/7 17/39/7 4/40/7
f 40/41/1 26/42/1 33/43/1 1/44/1
f 35/45/2 6/46/2 29/47/2 2/48/2
f 1/49/1 33/50/1 18/51/1 41/52/1
f 11/53/7 21/54/7 32/55/7 28/56/7
f 10/57/5 38/58/5 39/59/5 22/60/5
f 3/61/8 4/62/8 5/63/8
f 6/46/9 7/64/9 8/65/9
f 9/24/10 10/66/10 11/67/10
f 12/7/11 13/68/11 14/69/11
f 15/4/12 16/70/12 17/71/12
f 18/51/13 19/72/13 20/73/13
f 21/54/14 22/74/14 23/75/14
f 24/27/15 25/76/15 26/77/15
f 28/37/16 4/40/16 3/78/16 27/79/16
f 36/36/17 7/35/17 6/80/17 35/81/17
f 30/31/18 13/30/18 12/82/18 29/83/18
f 38/58/19 10/57/19 9/84/19 37/85/19
f 21/54/20 11/53/20 10/86/20 22/74/20
f 13/30/21 25/29/21 24/87/21 14/88/21
f 40/10/22 23/9/22 22/89/22 39/90/22
f 32/55/23 21/54/23 23/75/23 31/91/23
f 34/13/24 19/16/24 18/92/24 33/93/24
f 42/18/25 16/17/25 15/94/25 41/95/25
f 4/40/26 17/39/26 16/96/26 5/97/26
f 19/16/27 8/15/27 7/98/27 20/99/27
f 11/53/16 28/56/16 27/100/16 9/101/16
f 8/15/28 30/14/28 29/102/28 6/103/28
f 17/39/23 32/38/23 31/104/23 15/105/23
f 25/29/29 34/32/29 33/106/29 26/107/29
f 5/20/17 36/19/17 35/108/17 3/109/17
f 14/26/19 38/25/19 37/110/19 12/111/19
f 26/42/22 40/41/22 39/112/22 24/113/22
f 20/34/25 42/33/25 41/114/25 18/115/25
f 3/61/2 35/116/2 2/117/2 27/118/2
