# Blender v2.80 (sub 54) OBJ File: ''
# www.blender.org
mtllib clouds_high.mtl
o Cube
v -10.000000 -0.450000 10.000000
v 10.000000 -0.450000 10.000000
v -10.000000 -0.450000 -10.000000
v 10.000000 -0.450000 -10.000000
v -10.000000 -0.350000 10.000000
v 10.000000 -0.350000 10.000000
v -10.000000 -0.350000 -10.000000
v 10.000000 -0.350000 -10.000000
v -10.000000 -0.250000 10.000000
v 10.000000 -0.250000 10.000000
v -10.000000 -0.250000 -10.000000
v 10.000000 -0.250000 -10.000000
v -10.000000 -0.150000 10.000000
v 10.000000 -0.150000 10.000000
v -10.000000 -0.150000 -10.000000
v 10.000000 -0.150000 -10.000000
v -10.000000 -0.050000 10.000000
v 10.000000 -0.050000 10.000000
v -10.000000 -0.050000 -10.000000
v 10.000000 -0.050000 -10.000000
v -10.000000 0.050000 10.000000
v 10.000000 0.050000 10.000000
v -10.000000 0.050000 -10.000000
v 10.000000 0.050000 -10.000000
v -10.000000 0.150000 10.000000
v 10.000000 0.150000 10.000000
v -10.000000 0.150000 -10.000000
v 10.000000 0.150000 -10.000000
v -10.000000 0.250000 10.000000
v 10.000000 0.250000 10.000000
v -10.000000 0.250000 -10.000000
v 10.000000 0.250000 -10.000000
v -10.000000 0.350000 10.000000
v 10.000000 0.350000 10.000000
v -10.000000 0.350000 -10.000000
v 10.000000 0.350000 -10.000000
v -10.000000 -1.350000 10.000000
v 10.000000 -1.350000 10.000000
v -10.000000 -1.350000 -10.000000
v 10.000000 -1.350000 -10.000000
v -10.000000 -1.250000 10.000000
v 10.000000 -1.250000 10.000000
v -10.000000 -1.250000 -10.000000
v 10.000000 -1.250000 -10.000000
v -10.000000 -1.150000 10.000000
v 10.000000 -1.150000 10.000000
v -10.000000 -1.150000 -10.000000
v 10.000000 -1.150000 -10.000000
v -10.000000 -1.050000 10.000000
v 10.000000 -1.050000 10.000000
v -10.000000 -1.050000 -10.000000
v 10.000000 -1.050000 -10.000000
v -10.000000 -0.950000 10.000000
v 10.000000 -0.950000 10.000000
v -10.000000 -0.950000 -10.000000
v 10.000000 -0.950000 -10.000000
v -10.000000 -0.850000 10.000000
v 10.000000 -0.850000 10.000000
v -10.000000 -0.850000 -10.000000
v 10.000000 -0.850000 -10.000000
v -10.000000 -0.750000 10.000000
v 10.000000 -0.750000 10.000000
v -10.000000 -0.750000 -10.000000
v 10.000000 -0.750000 -10.000000
v -10.000000 -0.650000 10.000000
v 10.000000 -0.650000 10.000000
v -10.000000 -0.650000 -10.000000
v 10.000000 -0.650000 -10.000000
v -10.000000 -0.550000 10.000000
v 10.000000 -0.550000 10.000000
v -10.000000 -0.550000 -10.000000
v 10.000000 -0.550000 -10.000000
v -10.000000 -0.400000 10.000000
v 10.000000 -0.400000 10.000000
v -10.000000 -0.400000 -10.000000
v 10.000000 -0.400000 -10.000000
v -10.000000 -0.300000 10.000000
v 10.000000 -0.300000 10.000000
v -10.000000 -0.300000 -10.000000
v 10.000000 -0.300000 -10.000000
v -10.000000 -0.200000 10.000000
v 10.000000 -0.200000 10.000000
v -10.000000 -0.200000 -10.000000
v 10.000000 -0.200000 -10.000000
v -10.000000 -0.100000 10.000000
v 10.000000 -0.100000 10.000000
v -10.000000 -0.100000 -10.000000
v 10.000000 -0.100000 -10.000000
v -10.000000 -0.000000 10.000000
v 10.000000 -0.000000 10.000000
v -10.000000 -0.000000 -10.000000
v 10.000000 -0.000000 -10.000000
v -10.000000 0.100000 10.000000
v 10.000000 0.100000 10.000000
v -10.000000 0.100000 -10.000000
v 10.000000 0.100000 -10.000000
v -10.000000 0.200000 10.000000
v 10.000000 0.200000 10.000000
v -10.000000 0.200000 -10.000000
v 10.000000 0.200000 -10.000000
v -10.000000 0.300000 10.000000
v 10.000000 0.300000 10.000000
v -10.000000 0.300000 -10.000000
v 10.000000 0.300000 -10.000000
v -10.000000 0.400000 10.000000
v 10.000000 0.400000 10.000000
v -10.000000 0.400000 -10.000000
v 10.000000 0.400000 -10.000000
v -10.000000 -1.300000 10.000000
v 10.000000 -1.300000 10.000000
v -10.000000 -1.300000 -10.000000
v 10.000000 -1.300000 -10.000000
v -10.000000 -1.200000 10.000000
v 10.000000 -1.200000 10.000000
v -10.000000 -1.200000 -10.000000
v 10.000000 -1.200000 -10.000000
v -10.000000 -1.100000 10.000000
v 10.000000 -1.100000 10.000000
v -10.000000 -1.100000 -10.000000
v 10.000000 -1.100000 -10.000000
v -10.000000 -1.000000 10.000000
v 10.000000 -1.000000 10.000000
v -10.000000 -1.000000 -10.000000
v 10.000000 -1.000000 -10.000000
v -10.000000 -0.900000 10.000000
v 10.000000 -0.900000 10.000000
v -10.000000 -0.900000 -10.000000
v 10.000000 -0.900000 -10.000000
v -10.000000 -0.800000 10.000000
v 10.000000 -0.800000 10.000000
v -10.000000 -0.800000 -10.000000
v 10.000000 -0.800000 -10.000000
v -10.000000 -0.700000 10.000000
v 10.000000 -0.700000 10.000000
v -10.000000 -0.700000 -10.000000
v 10.000000 -0.700000 -10.000000
v -10.000000 -0.600000 10.000000
v 10.000000 -0.600000 10.000000
v -10.000000 -0.600000 -10.000000
v 10.000000 -0.600000 -10.000000
v -10.000000 -0.500000 10.000000
v 10.000000 -0.500000 10.000000
v -10.000000 -0.500000 -10.000000
v 10.000000 -0.500000 -10.000000
v -10.000000 -0.425000 10.000000
v 10.000000 -0.425000 10.000000
v -10.000000 -0.425000 -10.000000
v 10.000000 -0.425000 -10.000000
v -10.000000 -0.325000 10.000000
v 10.000000 -0.325000 10.000000
v -10.000000 -0.325000 -10.000000
v 10.000000 -0.325000 -10.000000
v -10.000000 -0.225000 10.000000
v 10.000000 -0.225000 10.000000
v -10.000000 -0.225000 -10.000000
v 10.000000 -0.225000 -10.000000
v -10.000000 -0.125000 10.000000
v 10.000000 -0.125000 10.000000
v -10.000000 -0.125000 -10.000000
v 10.000000 -0.125000 -10.000000
v -10.000000 -0.025000 10.000000
v 10.000000 -0.025000 10.000000
v -10.000000 -0.025000 -10.000000
v 10.000000 -0.025000 -10.000000
v -10.000000 0.075000 10.000000
v 10.000000 0.075000 10.000000
v -10.000000 0.075000 -10.000000
v 10.000000 0.075000 -10.000000
v -10.000000 0.175000 10.000000
v 10.000000 0.175000 10.000000
v -10.000000 0.175000 -10.000000
v 10.000000 0.175000 -10.000000
v -10.000000 0.275000 10.000000
v 10.000000 0.275000 10.000000
v -10.000000 0.275000 -10.000000
v 10.000000 0.275000 -10.000000
v -10.000000 0.375000 10.000000
v 10.000000 0.375000 10.000000
v -10.000000 0.375000 -10.000000
v 10.000000 0.375000 -10.000000
v -10.000000 -1.325000 10.000000
v 10.000000 -1.325000 10.000000
v -10.000000 -1.325000 -10.000000
v 10.000000 -1.325000 -10.000000
v -10.000000 -1.225000 10.000000
v 10.000000 -1.225000 10.000000
v -10.000000 -1.225000 -10.000000
v 10.000000 -1.225000 -10.000000
v -10.000000 -1.125000 10.000000
v 10.000000 -1.125000 10.000000
v -10.000000 -1.125000 -10.000000
v 10.000000 -1.125000 -10.000000
v -10.000000 -1.025000 10.000000
v 10.000000 -1.025000 10.000000
v -10.000000 -1.025000 -10.000000
v 10.000000 -1.025000 -10.000000
v -10.000000 -0.925000 10.000000
v 10.000000 -0.925000 10.000000
v -10.000000 -0.925000 -10.000000
v 10.000000 -0.925000 -10.000000
v -10.000000 -0.825000 10.000000
v 10.000000 -0.825000 10.000000
v -10.000000 -0.825000 -10.000000
v 10.000000 -0.825000 -10.000000
v -10.000000 -0.725000 10.000000
v 10.000000 -0.725000 10.000000
v -10.000000 -0.725000 -10.000000
v 10.000000 -0.725000 -10.000000
v -10.000000 -0.625000 10.000000
v 10.000000 -0.625000 10.000000
v -10.000000 -0.625000 -10.000000
v 10.000000 -0.625000 -10.000000
v -10.000000 -0.525000 10.000000
v 10.000000 -0.525000 10.000000
v -10.000000 -0.525000 -10.000000
v 10.000000 -0.525000 -10.000000
v -10.000000 -0.375000 10.000000
v 10.000000 -0.375000 10.000000
v -10.000000 -0.375000 -10.000000
v 10.000000 -0.375000 -10.000000
v -10.000000 -0.275000 10.000000
v 10.000000 -0.275000 10.000000
v -10.000000 -0.275000 -10.000000
v 10.000000 -0.275000 -10.000000
v -10.000000 -0.175000 10.000000
v 10.000000 -0.175000 10.000000
v -10.000000 -0.175000 -10.000000
v 10.000000 -0.175000 -10.000000
v -10.000000 -0.075000 10.000000
v 10.000000 -0.075000 10.000000
v -10.000000 -0.075000 -10.000000
v 10.000000 -0.075000 -10.000000
v -10.000000 0.025000 10.000000
v 10.000000 0.025000 10.000000
v -10.000000 0.025000 -10.000000
v 10.000000 0.025000 -10.000000
v -10.000000 0.125000 10.000000
v 10.000000 0.125000 10.000000
v -10.000000 0.125000 -10.000000
v 10.000000 0.125000 -10.000000
v -10.000000 0.225000 10.000000
v 10.000000 0.225000 10.000000
v -10.000000 0.225000 -10.000000
v 10.000000 0.225000 -10.000000
v -10.000000 0.325000 10.000000
v 10.000000 0.325000 10.000000
v -10.000000 0.325000 -10.000000
v 10.000000 0.325000 -10.000000
v -10.000000 0.425000 10.000000
v 10.000000 0.425000 10.000000
v -10.000000 0.425000 -10.000000
v 10.000000 0.425000 -10.000000
v -10.000000 -1.275000 10.000000
v 10.000000 -1.275000 10.000000
v -10.000000 -1.275000 -10.000000
v 10.000000 -1.275000 -10.000000
v -10.000000 -1.175000 10.000000
v 10.000000 -1.175000 10.000000
v -10.000000 -1.175000 -10.000000
v 10.000000 -1.175000 -10.000000
v -10.000000 -1.075000 10.000000
v 10.000000 -1.075000 10.000000
v -10.000000 -1.075000 -10.000000
v 10.000000 -1.075000 -10.000000
v -10.000000 -0.975000 10.000000
v 10.000000 -0.975000 10.000000
v -10.000000 -0.975000 -10.000000
v 10.000000 -0.975000 -10.000000
v -10.000000 -0.875000 10.000000
v 10.000000 -0.875000 10.000000
v -10.000000 -0.875000 -10.000000
v 10.000000 -0.875000 -10.000000
v -10.000000 -0.775000 10.000000
v 10.000000 -0.775000 10.000000
v -10.000000 -0.775000 -10.000000
v 10.000000 -0.775000 -10.000000
v -10.000000 -0.675000 10.000000
v 10.000000 -0.675000 10.000000
v -10.000000 -0.675000 -10.000000
v 10.000000 -0.675000 -10.000000
v -10.000000 -0.575000 10.000000
v 10.000000 -0.575000 10.000000
v -10.000000 -0.575000 -10.000000
v 10.000000 -0.575000 -10.000000
v -10.000000 -0.475000 10.000000
v 10.000000 -0.475000 10.000000
v -10.000000 -0.475000 -10.000000
v 10.000000 -0.475000 -10.000000
vt 0.000000 0.000000
vt 0.000000 1.000000
vt 1.000000 1.000000
vt 1.000000 0.000000
vt 0.000000 0.000000
vt 0.000000 1.000000
vt 1.000000 1.000000
vt 1.000000 0.000000
vt 0.000000 0.000000
vt 0.000000 1.000000
vt 1.000000 1.000000
vt 1.000000 0.000000
vt 0.000000 0.000000
vt 0.000000 1.000000
vt 1.000000 1.000000
vt 1.000000 0.000000
vt 0.000000 0.000000
vt 0.000000 1.000000
vt 1.000000 1.000000
vt 1.000000 0.000000
vt 0.000000 0.000000
vt 0.000000 1.000000
vt 1.000000 1.000000
vt 1.000000 0.000000
vt 0.000000 0.000000
vt 0.000000 1.000000
vt 1.000000 1.000000
vt 1.000000 0.000000
vt 0.000000 0.000000
vt 0.000000 1.000000
vt 1.000000 1.000000
vt 1.000000 0.000000
vt 0.000000 0.000000
vt 0.000000 1.000000
vt 1.000000 1.000000
vt 1.000000 0.000000
vt 0.000000 0.000000
vt 0.000000 1.000000
vt 1.000000 1.000000
vt 1.000000 0.000000
vt 0.000000 0.000000
vt 0.000000 1.000000
vt 1.000000 1.000000
vt 1.000000 0.000000
vt 0.000000 0.000000
vt 0.000000 1.000000
vt 1.000000 1.000000
vt 1.000000 0.000000
vt 0.000000 0.000000
vt 0.000000 1.000000
vt 1.000000 1.000000
vt 1.000000 0.000000
vt 0.000000 0.000000
vt 0.000000 1.000000
vt 1.000000 1.000000
vt 1.000000 0.000000
vt 0.000000 0.000000
vt 0.000000 1.000000
vt 1.000000 1.000000
vt 1.000000 0.000000
vt 0.000000 0.000000
vt 0.000000 1.000000
vt 1.000000 1.000000
vt 1.000000 0.000000
vt 0.000000 0.000000
vt 0.000000 1.000000
vt 1.000000 1.000000
vt 1.000000 0.000000
vt 0.000000 0.000000
vt 0.000000 1.000000
vt 1.000000 1.000000
vt 1.000000 0.000000
vt 0.000000 0.000000
vt 0.000000 1.000000
vt 1.000000 1.000000
vt 1.000000 0.000000
vt 0.000000 0.000000
vt 0.000000 1.000000
vt 1.000000 1.000000
vt 1.000000 0.000000
vt 0.000000 0.000000
vt 0.000000 1.000000
vt 1.000000 1.000000
vt 1.000000 0.000000
vt 0.000000 0.000000
vt 0.000000 1.000000
vt 1.000000 1.000000
vt 1.000000 0.000000
vt 0.000000 0.000000
vt 0.000000 1.000000
vt 1.000000 1.000000
vt 1.000000 0.000000
vt 0.000000 0.000000
vt 0.000000 1.000000
vt 1.000000 1.000000
vt 1.000000 0.000000
vt 0.000000 0.000000
vt 0.000000 1.000000
vt 1.000000 1.000000
vt 1.000000 0.000000
vt 0.000000 0.000000
vt 0.000000 1.000000
vt 1.000000 1.000000
vt 1.000000 0.000000
vt 0.000000 0.000000
vt 0.000000 1.000000
vt 1.000000 1.000000
vt 1.000000 0.000000
vt 0.000000 0.000000
vt 0.000000 1.000000
vt 1.000000 1.000000
vt 1.000000 0.000000
vt 0.000000 0.000000
vt 0.000000 1.000000
vt 1.000000 1.000000
vt 1.000000 0.000000
vt 0.000000 0.000000
vt 0.000000 1.000000
vt 1.000000 1.000000
vt 1.000000 0.000000
vt 0.000000 0.000000
vt 0.000000 1.000000
vt 1.000000 1.000000
vt 1.000000 0.000000
vt 0.000000 0.000000
vt 0.000000 1.000000
vt 1.000000 1.000000
vt 1.000000 0.000000
vt 0.000000 0.000000
vt 0.000000 1.000000
vt 1.000000 1.000000
vt 1.000000 0.000000
vt 0.000000 0.000000
vt 0.000000 1.000000
vt 1.000000 1.000000
vt 1.000000 0.000000
vt 0.000000 0.000000
vt 0.000000 1.000000
vt 1.000000 1.000000
vt 1.000000 0.000000
vt 0.000000 0.000000
vt 0.000000 1.000000
vt 1.000000 1.000000
vt 1.000000 0.000000
vt 0.000000 0.000000
vt 0.000000 1.000000
vt 1.000000 1.000000
vt 1.000000 0.000000
vt 0.000000 0.000000
vt 0.000000 1.000000
vt 1.000000 1.000000
vt 1.000000 0.000000
vt 0.000000 0.000000
vt 0.000000 1.000000
vt 1.000000 1.000000
vt 1.000000 0.000000
vt 0.000000 0.000000
vt 0.000000 1.000000
vt 1.000000 1.000000
vt 1.000000 0.000000
vt 0.000000 0.000000
vt 0.000000 1.000000
vt 1.000000 1.000000
vt 1.000000 0.000000
vt 0.000000 0.000000
vt 0.000000 1.000000
vt 1.000000 1.000000
vt 1.000000 0.000000
vt 0.000000 0.000000
vt 0.000000 1.000000
vt 1.000000 1.000000
vt 1.000000 0.000000
vt 0.000000 0.000000
vt 0.000000 1.000000
vt 1.000000 1.000000
vt 1.000000 0.000000
vt 0.000000 0.000000
vt 0.000000 1.000000
vt 1.000000 1.000000
vt 1.000000 0.000000
vt 0.000000 0.000000
vt 0.000000 1.000000
vt 1.000000 1.000000
vt 1.000000 0.000000
vt 0.000000 0.000000
vt 0.000000 1.000000
vt 1.000000 1.000000
vt 1.000000 0.000000
vt 0.000000 0.000000
vt 0.000000 1.000000
vt 1.000000 1.000000
vt 1.000000 0.000000
vt 0.000000 0.000000
vt 0.000000 1.000000
vt 1.000000 1.000000
vt 1.000000 0.000000
vt 0.000000 0.000000
vt 0.000000 1.000000
vt 1.000000 1.000000
vt 1.000000 0.000000
vt 0.000000 0.000000
vt 0.000000 1.000000
vt 1.000000 1.000000
vt 1.000000 0.000000
vt 0.000000 0.000000
vt 0.000000 1.000000
vt 1.000000 1.000000
vt 1.000000 0.000000
vt 0.000000 0.000000
vt 0.000000 1.000000
vt 1.000000 1.000000
vt 1.000000 0.000000
vt 0.000000 0.000000
vt 0.000000 1.000000
vt 1.000000 1.000000
vt 1.000000 0.000000
vt 0.000000 0.000000
vt 0.000000 1.000000
vt 1.000000 1.000000
vt 1.000000 0.000000
vt 0.000000 0.000000
vt 0.000000 1.000000
vt 1.000000 1.000000
vt 1.000000 0.000000
vt 0.000000 0.000000
vt 0.000000 1.000000
vt 1.000000 1.000000
vt 1.000000 0.000000
vt 0.000000 0.000000
vt 0.000000 1.000000
vt 1.000000 1.000000
vt 1.000000 0.000000
vt 0.000000 0.000000
vt 0.000000 1.000000
vt 1.000000 1.000000
vt 1.000000 0.000000
vt 0.000000 0.000000
vt 0.000000 1.000000
vt 1.000000 1.000000
vt 1.000000 0.000000
vt 0.000000 0.000000
vt 0.000000 1.000000
vt 1.000000 1.000000
vt 1.000000 0.000000
vt 0.000000 0.000000
vt 0.000000 1.000000
vt 1.000000 1.000000
vt 1.000000 0.000000
vt 0.000000 0.000000
vt 0.000000 1.000000
vt 1.000000 1.000000
vt 1.000000 0.000000
vt 0.000000 0.000000
vt 0.000000 1.000000
vt 1.000000 1.000000
vt 1.000000 0.000000
vt 0.000000 0.000000
vt 0.000000 1.000000
vt 1.000000 1.000000
vt 1.000000 0.000000
vt 0.000000 0.000000
vt 0.000000 1.000000
vt 1.000000 1.000000
vt 1.000000 0.000000
vt 0.000000 0.000000
vt 0.000000 1.000000
vt 1.000000 1.000000
vt 1.000000 0.000000
vt 0.000000 0.000000
vt 0.000000 1.000000
vt 1.000000 1.000000
vt 1.000000 0.000000
vt 0.000000 0.000000
vt 0.000000 1.000000
vt 1.000000 1.000000
vt 1.000000 0.000000
vt 0.000000 0.000000
vt 0.000000 1.000000
vt 1.000000 1.000000
vt 1.000000 0.000000
vt 0.000000 0.000000
vt 0.000000 1.000000
vt 1.000000 1.000000
vt 1.000000 0.000000
vt 0.000000 0.000000
vt 0.000000 1.000000
vt 1.000000 1.000000
vt 1.000000 0.000000
vn 0.0000 -1.0000 0.0000
usemtl None
s off
f 1/1/1 3/2/1 4/3/1 2/4/1
f 5/5/1 7/6/1 8/7/1 6/8/1
f 9/9/1 11/10/1 12/11/1 10/12/1
f 13/13/1 15/14/1 16/15/1 14/16/1
f 17/17/1 19/18/1 20/19/1 18/20/1
f 21/21/1 23/22/1 24/23/1 22/24/1
f 25/25/1 27/26/1 28/27/1 26/28/1
f 29/29/1 31/30/1 32/31/1 30/32/1
f 33/33/1 35/34/1 36/35/1 34/36/1
f 37/37/1 39/38/1 40/39/1 38/40/1
f 41/41/1 43/42/1 44/43/1 42/44/1
f 45/45/1 47/46/1 48/47/1 46/48/1
f 49/49/1 51/50/1 52/51/1 50/52/1
f 53/53/1 55/54/1 56/55/1 54/56/1
f 57/57/1 59/58/1 60/59/1 58/60/1
f 61/61/1 63/62/1 64/63/1 62/64/1
f 65/65/1 67/66/1 68/67/1 66/68/1
f 69/69/1 71/70/1 72/71/1 70/72/1
f 73/73/1 75/74/1 76/75/1 74/76/1
f 77/77/1 79/78/1 80/79/1 78/80/1
f 81/81/1 83/82/1 84/83/1 82/84/1
f 85/85/1 87/86/1 88/87/1 86/88/1
f 89/89/1 91/90/1 92/91/1 90/92/1
f 93/93/1 95/94/1 96/95/1 94/96/1
f 97/97/1 99/98/1 100/99/1 98/100/1
f 101/101/1 103/102/1 104/103/1 102/104/1
f 105/105/1 107/106/1 108/107/1 106/108/1
f 109/109/1 111/110/1 112/111/1 110/112/1
f 113/113/1 115/114/1 116/115/1 114/116/1
f 117/117/1 119/118/1 120/119/1 118/120/1
f 121/121/1 123/122/1 124/123/1 122/124/1
f 125/125/1 127/126/1 128/127/1 126/128/1
f 129/129/1 131/130/1 132/131/1 130/132/1
f 133/133/1 135/134/1 136/135/1 134/136/1
f 137/137/1 139/138/1 140/139/1 138/140/1
f 141/141/1 143/142/1 144/143/1 142/144/1
f 145/145/1 147/146/1 148/147/1 146/148/1
f 149/149/1 151/150/1 152/151/1 150/152/1
f 153/153/1 155/154/1 156/155/1 154/156/1
f 157/157/1 159/158/1 160/159/1 158/160/1
f 161/161/1 163/162/1 164/163/1 162/164/1
f 165/165/1 167/166/1 168/167/1 166/168/1
f 169/169/1 171/170/1 172/171/1 170/172/1
f 173/173/1 175/174/1 176/175/1 174/176/1
f 177/177/1 179/178/1 180/179/1 178/180/1
f 181/181/1 183/182/1 184/183/1 182/184/1
f 185/185/1 187/186/1 188/187/1 186/188/1
f 189/189/1 191/190/1 192/191/1 190/192/1
f 193/193/1 195/194/1 196/195/1 194/196/1
f 197/197/1 199/198/1 200/199/1 198/200/1
f 201/201/1 203/202/1 204/203/1 202/204/1
f 205/205/1 207/206/1 208/207/1 206/208/1
f 209/209/1 211/210/1 212/211/1 210/212/1
f 213/213/1 215/214/1 216/215/1 214/216/1
f 217/217/1 219/218/1 220/219/1 218/220/1
f 221/221/1 223/222/1 224/223/1 222/224/1
f 225/225/1 227/226/1 228/227/1 226/228/1
f 229/229/1 231/230/1 232/231/1 230/232/1
f 233/233/1 235/234/1 236/235/1 234/236/1
f 237/237/1 239/238/1 240/239/1 238/240/1
f 241/241/1 243/242/1 244/243/1 242/244/1
f 245/245/1 247/246/1 248/247/1 246/248/1
f 249/249/1 251/250/1 252/251/1 250/252/1
f 253/253/1 255/254/1 256/255/1 254/256/1
f 257/257/1 259/258/1 260/259/1 258/260/1
f 261/261/1 263/262/1 264/263/1 262/264/1
f 265/265/1 267/266/1 268/267/1 266/268/1
f 269/269/1 271/270/1 272/271/1 270/272/1
f 273/273/1 275/274/1 276/275/1 274/276/1
f 277/277/1 279/278/1 280/279/1 278/280/1
f 281/281/1 283/282/1 284/283/1 282/284/1
f 285/285/1 287/286/1 288/287/1 286/288/1
