# Blender v2.80 (sub 41) OBJ File: ''
# www.blender.org
mtllib light.mtl
o Icosphere_Icosphere.001
v -1.000000 0.000000 0.000000
v 0.000000 -1.000000 0.000000
v 1.000000 0.000000 0.000000
v 0.000000 0.000000 1.000000
v 0.000000 0.000000 -1.000000
v 0.000000 1.000000 0.000000
vt 0.250000 0.625000
vt 0.250000 0.750000
vt 0.125000 0.625000
vt 0.500000 0.875000
vt 0.625000 0.875000
vt 0.500000 1.000000
vt 0.250000 0.500000
vt 0.750000 0.625000
vt 0.750000 0.500000
vt 0.875000 0.625000
vt 0.375000 0.625000
vt 0.750000 0.750000
vt 0.625000 0.625000
vn -0.5774 -0.5774 0.5774
vn -0.5774 0.5774 0.5774
vn -0.5774 -0.5774 -0.5774
vn -0.5774 0.5774 -0.5774
vn 0.5774 -0.5774 0.5774
vn 0.5774 0.5774 0.5774
vn 0.5774 -0.5774 -0.5774
vn 0.5774 0.5774 -0.5774
usemtl None
s off
f 2/1/1 4/2/1 1/3/1
f 4/4/2 6/5/2 1/6/2
f 2/1/3 1/3/3 5/7/3
f 6/8/4 5/9/4 1/10/4
f 2/1/5 3/11/5 4/2/5
f 6/8/6 4/12/6 3/13/6
f 2/1/7 5/7/7 3/11/7
f 6/8/8 3/13/8 5/9/8
