# Blender v2.80 (sub 54) OBJ File: ''
# www.blender.org
mtllib sky.mtl
o Cube
v -0.000003 -100.000000 -0.000004
v 72.360733 -44.721954 52.572525
v -27.638805 -44.721989 85.064919
v -89.442619 -44.721565 -0.000004
v -27.638805 -44.721989 -85.064926
v 72.360733 -44.721954 -52.572536
v 27.638800 44.721981 85.064919
v -72.360733 44.721951 52.572525
v -72.360733 44.721951 -52.572536
v 27.638800 44.721981 -85.064926
v 89.442619 44.721558 -0.000004
v -0.000003 100.000000 -0.000004
v -23.282156 -65.751923 71.656303
v -16.245560 -85.065445 49.999519
v -7.760667 -96.794968 23.885267
v 20.318089 -96.794960 14.761780
v 42.532265 -85.065422 30.901134
v 60.954666 -65.751884 44.285637
v 53.194088 -50.230171 68.171234
v 26.286879 -52.573765 80.901161
v -2.963930 -50.230194 86.418411
v 81.272926 -50.230061 -29.523775
v 85.064789 -52.573593 -0.000004
v 81.272926 -50.230061 29.523769
v 20.318089 -96.794960 -14.761789
v 42.532265 -85.065422 -30.901140
v 60.954666 -65.751884 -44.285645
v -75.344170 -65.751472 -0.000004
v -52.572979 -85.065170 -0.000004
v -25.114700 -96.794884 -0.000004
v -48.397144 -50.230171 71.656448
v -68.818939 -52.573620 49.999687
v -83.105064 -50.229866 23.885336
v -23.282156 -65.751923 -71.656319
v -16.245560 -85.065445 -49.999527
v -7.760667 -96.794968 -23.885275
v -83.105064 -50.229866 -23.885345
v -68.818939 -52.573620 -49.999695
v -48.397144 -50.230171 -71.656456
v -2.963930 -50.230194 -86.418427
v 26.286879 -52.573765 -80.901176
v 53.194088 -50.230171 -68.171249
v 95.662575 25.114941 14.761832
v 95.105782 -0.000003 30.901258
v 86.069763 -25.115088 44.285751
v 86.069763 -25.115088 -44.285755
v 95.105782 0.000000 -30.901264
v 95.662575 25.114941 -14.761841
v 15.521507 25.115150 95.542198
v -0.000003 -0.000003 99.999985
v -15.521513 -25.115156 95.542198
v 68.715858 -25.115194 68.171524
v 58.778561 0.000000 80.901665
v 43.600677 25.115200 86.418785
v -86.069763 25.115082 44.285751
v -95.105782 -0.000003 30.901258
v -95.662575 -25.114948 14.761832
v -43.600685 -25.115208 86.418785
v -58.778561 0.000000 80.901672
v -68.715851 25.115187 68.171524
v -68.715858 25.115189 -68.171539
v -58.778561 -0.000003 -80.901680
v -43.600685 -25.115208 -86.418793
v -95.662575 -25.114948 -14.761841
v -95.105782 0.000000 -30.901264
v -86.069763 25.115082 -44.285755
v 43.600677 25.115200 -86.418793
v 58.778561 -0.000003 -80.901680
v 68.715851 -25.115192 -68.171539
v -15.521513 -25.115156 -95.542213
v -0.000003 0.000000 -100.000000
v 15.521507 25.115150 -95.542213
v 83.105064 50.229866 23.885336
v 68.818939 52.573620 49.999691
v 48.397141 50.230171 71.656448
v 2.963925 50.230194 86.418411
v -26.286884 52.573765 80.901161
v -53.194088 50.230171 68.171242
v -81.272926 50.230061 29.523769
v -85.064789 52.573593 -0.000004
v -81.272926 50.230061 -29.523775
v -53.194088 50.230171 -68.171242
v -26.286884 52.573765 -80.901169
v 2.963925 50.230194 -86.418427
v 48.397141 50.230171 -71.656456
v 68.818939 52.573620 -49.999695
v 83.105064 50.229866 -23.885344
v 7.760661 96.794968 23.885267
v 16.245552 85.065445 49.999523
v 23.282150 65.751923 71.656303
v 75.344170 65.751472 -0.000004
v 52.572979 85.065170 -0.000004
v 25.114695 96.794884 -0.000004
v -20.318094 96.794960 14.761780
v -42.532272 85.065422 30.901134
v -60.954666 65.751884 44.285637
v -20.318094 96.794960 -14.761789
v -42.532272 85.065422 -30.901140
v -60.954666 65.751884 -44.285645
v 7.760661 96.794968 -23.885277
v 16.245552 85.065445 -49.999531
v 23.282150 65.751923 -71.656319
v 36.180027 89.442917 -26.286299
v 63.819355 72.361008 -26.286415
v 44.720913 72.361160 -52.572823
v -13.819729 89.442993 -42.531952
v -5.278960 72.361237 -68.818497
v -36.180370 72.361221 -58.777851
v -44.720993 89.442909 -0.000004
v -67.081657 72.361084 -16.245708
v -67.081657 72.361084 16.245699
v -13.819732 89.442993 42.531948
v -36.180370 72.361221 58.777840
v -5.278960 72.361237 68.818489
v 36.180027 89.442917 26.286293
v 44.720917 72.361168 52.572811
v 63.819355 72.361008 26.286406
v 86.180420 27.639618 -42.532200
v 80.901924 -0.000002 -58.778214
v 67.082054 27.639738 -68.818924
v -13.819856 27.639706 -95.105515
v -30.901649 -0.000051 -95.105675
v -44.721508 27.639723 -85.064880
v -94.721321 27.639585 -16.245768
v -99.999992 0.000061 0.000032
v -94.721291 27.639654 16.245785
v -44.721581 27.639681 85.064835
v -30.901722 -0.000080 95.105637
v -13.819928 27.639675 95.105507
v 67.082039 27.639612 68.818970
v 80.901871 -0.000192 58.778294
v 86.180412 27.639441 42.532314
v 30.901718 -0.000002 -95.105652
v 44.721558 -27.639774 -85.064850
v 13.819904 -27.639755 -95.105499
v -80.901840 -0.000002 -58.778336
v -67.081902 -27.639732 -68.819077
v -86.180313 -27.639637 -42.532394
v -80.901840 -0.000002 58.778320
v -86.180321 -27.639637 42.532394
v -67.081902 -27.639732 68.819061
v 30.901718 -0.000002 95.105637
v 13.819906 -27.639755 95.105484
v 44.721558 -27.639774 85.064819
v 100.000000 -0.000002 -0.000004
v 94.721321 -27.639606 16.245750
v 94.721321 -27.639606 -16.245762
v 36.180344 -72.361160 -58.777927
v 13.819676 -89.442909 -42.532135
v 5.278907 -72.361092 -68.818634
v -44.721062 -72.361153 -52.572716
v -36.180122 -89.442894 -26.286257
v -63.819473 -72.360947 -26.286285
v -63.819458 -72.360924 26.286367
v -36.180134 -89.442841 26.286432
v -44.721054 -72.361046 52.572857
v 67.081703 -72.361061 -16.245684
v 67.081757 -72.361008 16.245770
v 44.721092 -89.442848 0.000070
v 5.279033 -72.361176 68.818527
v 13.819866 -89.442917 42.532059
v 36.180492 -72.361092 58.777912
vt 0.077629 0.000971
vt 0.174120 0.081621
vt 0.374121 0.081621
vt 0.374122 0.352701
vt 0.418664 0.332812
vt 0.374122 0.272050
vt -0.025883 0.081622
vt 1.077639 0.000971
vt 0.774124 0.081621
vt 0.974126 0.081622
vt 0.574122 0.081621
vt 0.398489 0.419348
vt 0.174120 0.352701
vt 0.198487 0.419348
vt 0.218663 0.332812
vt -0.025883 0.352702
vt -0.001516 0.419348
vt 0.018660 0.332813
vt 0.774124 0.352701
vt 0.798492 0.419347
vt 0.818667 0.332812
vt 0.574122 0.352701
vt 0.598490 0.419348
vt 0.618665 0.332812
vt 0.349753 0.419348
vt 0.149751 0.419348
vt 0.974126 0.352702
vt 0.949759 0.419348
vt 0.998494 0.419348
vt 0.749756 0.419348
vt 0.549754 0.419348
vt 0.274119 0.647299
vt 0.274119 0.727951
vt 0.318663 0.667188
vt 0.074117 0.647299
vt 0.074117 0.727951
vt 0.118660 0.667188
vt 0.874126 0.647299
vt 0.874126 0.727951
vt 0.918669 0.667188
vt 0.674124 0.647299
vt 0.674124 0.727951
vt 0.718667 0.667188
vt 0.474122 0.647298
vt 0.474122 0.727949
vt 0.518664 0.667187
vt 0.474122 0.918378
vt 0.700611 0.999029
vt 0.674124 0.918379
vt 0.474122 0.823164
vt 0.574122 0.851733
vt 0.536306 0.757019
vt 0.674124 0.823165
vt 0.611939 0.757019
vt 0.574122 0.675868
vt 0.629581 0.667188
vt 0.874126 0.918379
vt 0.774125 0.851734
vt 0.736309 0.757020
vt 0.874126 0.823165
vt 0.811942 0.757020
vt 0.774125 0.675869
vt 0.829583 0.667188
vt 1.074126 0.918379
vt 0.974126 0.851733
vt 0.936310 0.757019
vt -0.025883 0.851733
vt 0.074117 0.918379
vt 0.074117 0.823165
vt 1.011943 0.757019
vt 0.011933 0.757019
vt 0.974126 0.675868
vt -0.025883 0.675868
vt 0.029574 0.667188
vt 0.274119 0.918379
vt 0.174118 0.851734
vt 0.136301 0.757020
vt 0.274119 0.823165
vt 0.211935 0.757020
vt 0.174118 0.675869
vt 0.229576 0.667188
vt 0.374121 0.851734
vt 0.336304 0.757019
vt 0.411937 0.757019
vt 0.374121 0.675868
vt 0.429579 0.667187
vt 0.498489 0.580652
vt 0.524121 0.500000
vt 0.547088 0.588967
vt 0.574122 0.500000
vt 0.601157 0.588967
vt 0.624123 0.500000
vt 0.649756 0.580652
vt 0.698492 0.580652
vt 0.724124 0.500000
vt 0.747090 0.588967
vt 0.774124 0.500000
vt 0.801159 0.588967
vt 0.824125 0.500000
vt 0.849758 0.580652
vt 0.898494 0.580652
vt 0.924127 0.500000
vt 0.947092 0.588967
vt 0.974127 0.500000
vt 1.001161 0.588967
vt 0.001151 0.588967
vt -0.025883 0.500000
vt 0.024117 0.500000
vt 0.049749 0.580652
vt 0.098485 0.580652
vt 0.124118 0.500000
vt 0.147084 0.588967
vt 0.174119 0.500000
vt 0.201153 0.588967
vt 0.224119 0.500000
vt 0.249751 0.580652
vt 0.298487 0.580653
vt 0.324120 0.500000
vt 0.347086 0.588967
vt 0.374121 0.499999
vt 0.401155 0.588966
vt 0.424122 0.500000
vt 0.449754 0.580652
vt 0.674123 0.500000
vt 0.647089 0.411032
vt 0.701158 0.411032
vt 0.674123 0.324132
vt 0.729580 0.332812
vt 0.874126 0.500000
vt 0.847091 0.411033
vt 0.901160 0.411033
vt 0.874126 0.324132
vt 0.929583 0.332813
vt 0.074117 0.500000
vt 0.047083 0.411033
vt 0.101152 0.411033
vt 0.074118 0.324132
vt 0.129576 0.332812
vt 0.274120 0.500000
vt 0.247086 0.411032
vt 0.301155 0.411032
vt 0.274121 0.324132
vt 0.329578 0.332812
vt 0.474122 0.500000
vt 0.447088 0.411033
vt 0.501156 0.411033
vt 0.474122 0.324132
vt 0.529579 0.332812
vt 0.574122 0.272049
vt 0.574122 0.176835
vt 0.636306 0.242981
vt 0.674123 0.148267
vt 0.711939 0.242981
vt 0.774124 0.176835
vt 0.774124 0.272049
vt 0.836309 0.242981
vt 0.874126 0.148267
vt 0.911942 0.242982
vt 0.974126 0.176836
vt 0.974126 0.272051
vt -0.025883 0.272051
vt -0.025883 0.176836
vt 0.036301 0.242982
vt 0.074118 0.148267
vt 0.111935 0.242981
vt 0.174120 0.176835
vt 0.174120 0.272049
vt 0.511938 0.242981
vt 0.436305 0.242981
vt 0.474121 0.148267
vt 0.374122 0.176835
vt 0.236304 0.242981
vt 0.274121 0.148267
vt 0.311937 0.242981
vn 0.0000 1.0000 0.0000
vn 0.0806 0.9654 -0.2480
vn -0.2109 0.9654 -0.1532
vn -0.7236 0.4472 -0.5257
vn -0.8152 0.5038 -0.2857
vn -0.6042 0.6650 -0.4390
vn 0.2608 0.9654 0.0000
vn 0.0806 0.9654 0.2480
vn -0.2109 0.9654 0.1533
vn -0.8650 0.2430 -0.4390
vn 0.2764 0.4472 -0.8506
vn 0.1502 0.2430 -0.9583
vn 0.0198 0.5038 -0.8636
vn 0.8944 0.4472 0.0000
vn 0.9578 0.2430 -0.1533
vn 0.8274 0.5038 -0.2480
vn 0.2764 0.4472 0.8506
vn 0.4417 0.2430 0.8636
vn 0.4915 0.5038 0.7103
vn -0.7236 0.4472 0.5257
vn -0.6848 0.2430 0.6870
vn -0.5236 0.5038 0.6870
vn -0.6848 0.2430 -0.6870
vn 0.4417 0.2430 -0.8636
vn 0.9578 0.2430 0.1533
vn 0.1502 0.2430 0.9583
vn -0.8650 0.2430 0.4390
vn -0.2764 -0.4472 -0.8506
vn -0.2308 -0.6650 -0.7103
vn -0.4915 -0.5038 -0.7103
vn 0.7236 -0.4472 -0.5257
vn 0.6042 -0.6650 -0.4390
vn 0.5236 -0.5038 -0.6870
vn 0.7236 -0.4472 0.5257
vn 0.6042 -0.6650 0.4390
vn 0.8152 -0.5038 0.2857
vn -0.2764 -0.4472 0.8506
vn -0.2308 -0.6650 0.7103
vn -0.0198 -0.5038 0.8636
vn -0.8944 -0.4472 0.0000
vn -0.7468 -0.6650 0.0000
vn -0.8274 -0.5038 0.2480
vn -0.2608 -0.9654 0.0000
vn 0.0000 -1.0000 0.0000
vn -0.0806 -0.9654 0.2480
vn -0.5257 -0.8506 0.0000
vn -0.3682 -0.8904 0.2675
vn -0.6317 -0.7275 0.2675
vn -0.1625 -0.8506 0.5000
vn -0.4496 -0.7275 0.5181
vn -0.6882 -0.5257 0.5000
vn -0.4915 -0.5038 0.7103
vn 0.2109 -0.9654 0.1532
vn 0.1406 -0.8904 0.4328
vn 0.0592 -0.7275 0.6835
vn 0.4253 -0.8506 0.3090
vn 0.3538 -0.7275 0.5877
vn 0.2629 -0.5257 0.8090
vn 0.5236 -0.5038 0.6870
vn 0.2109 -0.9654 -0.1532
vn 0.4551 -0.8904 0.0000
vn 0.6683 -0.7275 0.1549
vn 0.4253 -0.8506 -0.3090
vn 0.6683 -0.7275 -0.1549
vn 0.8506 -0.5257 0.0000
vn 0.8152 -0.5038 -0.2857
vn -0.0806 -0.9654 -0.2480
vn 0.1406 -0.8904 -0.4328
vn 0.3538 -0.7275 -0.5877
vn -0.1625 -0.8506 -0.5000
vn 0.0592 -0.7275 -0.6835
vn 0.2629 -0.5257 -0.8090
vn -0.0198 -0.5038 -0.8636
vn -0.3682 -0.8904 -0.2675
vn -0.4496 -0.7275 -0.5181
vn -0.6317 -0.7275 -0.2675
vn -0.6882 -0.5257 -0.5000
vn -0.8274 -0.5038 -0.2480
vn -0.9578 -0.2430 0.1533
vn -0.9510 0.0000 0.3090
vn -0.8593 -0.2724 0.4328
vn -0.8090 -0.0089 0.5878
vn -0.6772 -0.2724 0.6835
vn -0.5878 0.0000 0.8090
vn -0.4417 -0.2430 0.8636
vn -0.1502 -0.2430 0.9583
vn 0.0000 0.0000 1.0000
vn 0.1461 -0.2724 0.9510
vn 0.3090 -0.0089 0.9510
vn 0.4407 -0.2724 0.8553
vn 0.5878 0.0000 0.8090
vn 0.6848 -0.2430 0.6870
vn 0.8650 -0.2430 0.4390
vn 0.9510 0.0000 0.3090
vn 0.9496 -0.2724 0.1549
vn 0.9999 -0.0089 0.0000
vn 0.9496 -0.2724 -0.1549
vn 0.9510 0.0000 -0.3090
vn 0.8650 -0.2430 -0.4390
vn 0.6848 -0.2430 -0.6870
vn 0.5878 0.0000 -0.8090
vn 0.4407 -0.2724 -0.8553
vn 0.3090 -0.0089 -0.9510
vn 0.1461 -0.2724 -0.9510
vn 0.0000 0.0000 -1.0000
vn -0.1502 -0.2430 -0.9583
vn -0.4417 -0.2430 -0.8636
vn -0.5878 0.0000 -0.8090
vn -0.6772 -0.2724 -0.6835
vn -0.8090 -0.0089 -0.5878
vn -0.8593 -0.2724 -0.4328
vn -0.9510 0.0000 -0.3090
vn -0.9578 -0.2430 -0.1533
vn -0.3090 0.0089 0.9510
vn -0.4407 0.2724 0.8553
vn -0.1461 0.2724 0.9510
vn -0.2629 0.5257 0.8090
vn 0.0198 0.5038 0.8636
vn 0.8090 0.0089 0.5878
vn 0.6772 0.2724 0.6835
vn 0.8593 0.2724 0.4328
vn 0.6882 0.5257 0.5000
vn 0.8274 0.5038 0.2480
vn 0.8090 0.0089 -0.5878
vn 0.8593 0.2724 -0.4328
vn 0.6772 0.2724 -0.6835
vn 0.6882 0.5257 -0.5000
vn 0.4915 0.5038 -0.7103
vn -0.3090 0.0089 -0.9510
vn -0.1461 0.2724 -0.9510
vn -0.4407 0.2724 -0.8553
vn -0.2629 0.5257 -0.8090
vn -0.5236 0.5038 -0.6870
vn -0.9999 0.0089 0.0000
vn -0.9496 0.2724 -0.1549
vn -0.9496 0.2724 0.1549
vn -0.8506 0.5257 0.0000
vn -0.8152 0.5038 0.2857
vn -0.6042 0.6650 0.4390
vn -0.4253 0.8506 0.3090
vn -0.3538 0.7275 0.5878
vn -0.1406 0.8904 0.4328
vn -0.0592 0.7275 0.6835
vn 0.1625 0.8506 0.5000
vn 0.2308 0.6650 0.7103
vn 0.4496 0.7275 0.5181
vn 0.3682 0.8904 0.2675
vn 0.6317 0.7275 0.2675
vn 0.5257 0.8506 0.0000
vn 0.7468 0.6650 0.0000
vn 0.6317 0.7275 -0.2675
vn 0.3682 0.8904 -0.2675
vn 0.4496 0.7275 -0.5181
vn 0.1625 0.8506 -0.5000
vn 0.2308 0.6650 -0.7103
vn -0.6683 0.7275 0.1549
vn -0.6683 0.7275 -0.1549
vn -0.4551 0.8904 0.0000
vn -0.4253 0.8506 -0.3090
vn -0.0592 0.7275 -0.6835
vn -0.1406 0.8904 -0.4328
vn -0.3538 0.7275 -0.5878
usemtl Material.001
s 1
f 1/1/1 15/2/2 16/3/3
f 2/4/4 24/5/5 18/6/6
f 1/1/1 30/7/7 15/2/2
f 1/8/1 36/9/8 30/10/7
f 1/8/1 25/11/9 36/9/8
f 2/4/4 45/12/10 24/5/5
f 3/13/11 51/14/12 21/15/13
f 4/16/14 57/17/15 33/18/16
f 5/19/17 63/20/18 39/21/19
f 6/22/20 69/23/21 42/24/22
f 2/4/4 52/25/23 45/12/10
f 3/13/11 58/26/24 51/14/12
f 4/27/14 64/28/25 57/29/15
f 5/19/17 70/30/26 63/20/18
f 6/22/20 46/31/27 69/23/21
f 7/32/28 90/33/29 75/34/30
f 8/35/31 96/36/32 78/37/33
f 9/38/34 99/39/35 81/40/36
f 10/41/37 102/42/38 84/43/39
f 11/44/40 91/45/41 87/46/42
f 93/47/43 12/48/44 100/49/45
f 92/50/46 93/47/43 103/51/47
f 91/45/41 92/50/46 104/52/48
f 93/47/43 100/49/45 103/51/47
f 103/51/47 100/49/45 101/53/49
f 92/50/46 103/51/47 104/52/48
f 104/52/48 103/51/47 105/54/50
f 103/51/47 101/53/49 105/54/50
f 105/54/50 101/53/49 102/42/38
f 91/45/41 104/52/48 87/46/42
f 87/46/42 104/52/48 86/55/51
f 104/52/48 105/54/50 86/55/51
f 86/55/51 105/54/50 85/56/52
f 105/54/50 102/42/38 85/56/52
f 85/56/52 102/42/38 10/41/37
f 100/49/45 12/48/44 97/57/53
f 101/53/49 100/49/45 106/58/54
f 102/42/38 101/53/49 107/59/55
f 100/49/45 97/57/53 106/58/54
f 106/58/54 97/57/53 98/60/56
f 101/53/49 106/58/54 107/59/55
f 107/59/55 106/58/54 108/61/57
f 106/58/54 98/60/56 108/61/57
f 108/61/57 98/60/56 99/39/35
f 102/42/38 107/59/55 84/43/39
f 84/43/39 107/59/55 83/62/58
f 107/59/55 108/61/57 83/62/58
f 83/62/58 108/61/57 82/63/59
f 108/61/57 99/39/35 82/63/59
f 82/63/59 99/39/35 9/38/34
f 97/57/53 12/48/44 94/64/60
f 98/60/56 97/57/53 109/65/61
f 99/39/35 98/60/56 110/66/62
f 97/57/53 94/64/60 109/65/61
f 109/67/61 94/68/60 95/69/63
f 98/60/56 109/65/61 110/66/62
f 110/66/62 109/65/61 111/70/64
f 109/67/61 95/69/63 111/71/64
f 111/71/64 95/69/63 96/36/32
f 99/39/35 110/66/62 81/40/36
f 81/40/36 110/66/62 80/72/65
f 110/66/62 111/70/64 80/72/65
f 80/73/65 111/71/64 79/74/66
f 111/71/64 96/36/32 79/74/66
f 79/74/66 96/36/32 8/35/31
f 94/64/60 12/48/44 88/75/67
f 95/69/63 94/68/60 112/76/68
f 96/36/32 95/69/63 113/77/69
f 94/68/60 88/75/67 112/76/68
f 112/76/68 88/75/67 89/78/70
f 95/69/63 112/76/68 113/77/69
f 113/77/69 112/76/68 114/79/71
f 112/76/68 89/78/70 114/79/71
f 114/79/71 89/78/70 90/33/29
f 96/36/32 113/77/69 78/37/33
f 78/37/33 113/77/69 77/80/72
f 113/77/69 114/79/71 77/80/72
f 77/80/72 114/79/71 76/81/73
f 114/79/71 90/33/29 76/81/73
f 76/81/73 90/33/29 7/32/28
f 88/75/67 12/48/44 93/47/43
f 89/78/70 88/75/67 115/82/74
f 90/33/29 89/78/70 116/83/75
f 88/75/67 93/47/43 115/82/74
f 115/82/74 93/47/43 92/50/46
f 89/78/70 115/82/74 116/83/75
f 116/83/75 115/82/74 117/84/76
f 115/82/74 92/50/46 117/84/76
f 117/84/76 92/50/46 91/45/41
f 90/33/29 116/83/75 75/34/30
f 75/34/30 116/83/75 74/85/77
f 116/83/75 117/84/76 74/85/77
f 74/85/77 117/84/76 73/86/78
f 117/84/76 91/45/41 73/86/78
f 73/86/78 91/45/41 11/44/40
f 48/87/79 11/44/40 87/46/42
f 47/88/80 48/87/79 118/89/81
f 46/31/27 47/88/80 119/90/82
f 48/87/79 87/46/42 118/89/81
f 118/89/81 87/46/42 86/55/51
f 47/88/80 118/89/81 119/90/82
f 119/90/82 118/89/81 120/91/83
f 118/89/81 86/55/51 120/91/83
f 120/91/83 86/55/51 85/56/52
f 46/31/27 119/90/82 69/23/21
f 69/23/21 119/90/82 68/92/84
f 119/90/82 120/91/83 68/92/84
f 68/92/84 120/91/83 67/93/85
f 120/91/83 85/56/52 67/93/85
f 67/93/85 85/56/52 10/41/37
f 72/94/86 10/41/37 84/43/39
f 71/95/87 72/94/86 121/96/88
f 70/30/26 71/95/87 122/97/89
f 72/94/86 84/43/39 121/96/88
f 121/96/88 84/43/39 83/62/58
f 71/95/87 121/96/88 122/97/89
f 122/97/89 121/96/88 123/98/90
f 121/96/88 83/62/58 123/98/90
f 123/98/90 83/62/58 82/63/59
f 70/30/26 122/97/89 63/20/18
f 63/20/18 122/97/89 62/99/91
f 122/97/89 123/98/90 62/99/91
f 62/99/91 123/98/90 61/100/92
f 123/98/90 82/63/59 61/100/92
f 61/100/92 82/63/59 9/38/34
f 66/101/93 9/38/34 81/40/36
f 65/102/94 66/101/93 124/103/95
f 64/28/25 65/102/94 125/104/96
f 66/101/93 81/40/36 124/103/95
f 124/103/95 81/40/36 80/72/65
f 65/102/94 124/103/95 125/104/96
f 125/104/96 124/103/95 126/105/97
f 124/103/95 80/72/65 126/105/97
f 126/106/97 80/73/65 79/74/66
f 64/28/25 125/104/96 57/29/15
f 57/17/15 125/107/96 56/108/98
f 125/107/96 126/106/97 56/108/98
f 56/108/98 126/106/97 55/109/99
f 126/106/97 79/74/66 55/109/99
f 55/109/99 79/74/66 8/35/31
f 60/110/100 8/35/31 78/37/33
f 59/111/101 60/110/100 127/112/102
f 58/26/24 59/111/101 128/113/103
f 60/110/100 78/37/33 127/112/102
f 127/112/102 78/37/33 77/80/72
f 59/111/101 127/112/102 128/113/103
f 128/113/103 127/112/102 129/114/104
f 127/112/102 77/80/72 129/114/104
f 129/114/104 77/80/72 76/81/73
f 58/26/24 128/113/103 51/14/12
f 51/14/12 128/113/103 50/115/105
f 128/113/103 129/114/104 50/115/105
f 50/115/105 129/114/104 49/116/106
f 129/114/104 76/81/73 49/116/106
f 49/116/106 76/81/73 7/32/28
f 54/117/107 7/32/28 75/34/30
f 53/118/108 54/117/107 130/119/109
f 52/25/23 53/118/108 131/120/110
f 54/117/107 75/34/30 130/119/109
f 130/119/109 75/34/30 74/85/77
f 53/118/108 130/119/109 131/120/110
f 131/120/110 130/119/109 132/121/111
f 130/119/109 74/85/77 132/121/111
f 132/121/111 74/85/77 73/86/78
f 52/25/23 131/120/110 45/12/10
f 45/12/10 131/120/110 44/122/112
f 131/120/110 132/121/111 44/122/112
f 44/122/112 132/121/111 43/123/113
f 132/121/111 73/86/78 43/123/113
f 43/123/113 73/86/78 11/44/40
f 67/93/85 10/41/37 72/94/86
f 68/92/84 67/93/85 133/124/114
f 69/23/21 68/92/84 134/125/115
f 67/93/85 72/94/86 133/124/114
f 133/124/114 72/94/86 71/95/87
f 68/92/84 133/124/114 134/125/115
f 134/125/115 133/124/114 135/126/116
f 133/124/114 71/95/87 135/126/116
f 135/126/116 71/95/87 70/30/26
f 69/23/21 134/125/115 42/24/22
f 42/24/22 134/125/115 41/127/117
f 134/125/115 135/126/116 41/127/117
f 41/127/117 135/126/116 40/128/118
f 135/126/116 70/30/26 40/128/118
f 40/128/118 70/30/26 5/19/17
f 61/100/92 9/38/34 66/101/93
f 62/99/91 61/100/92 136/129/119
f 63/20/18 62/99/91 137/130/120
f 61/100/92 66/101/93 136/129/119
f 136/129/119 66/101/93 65/102/94
f 62/99/91 136/129/119 137/130/120
f 137/130/120 136/129/119 138/131/121
f 136/129/119 65/102/94 138/131/121
f 138/131/121 65/102/94 64/28/25
f 63/20/18 137/130/120 39/21/19
f 39/21/19 137/130/120 38/132/122
f 137/130/120 138/131/121 38/132/122
f 38/132/122 138/131/121 37/133/123
f 138/131/121 64/28/25 37/133/123
f 37/133/123 64/28/25 4/27/14
f 55/109/99 8/35/31 60/110/100
f 56/108/98 55/109/99 139/134/124
f 57/17/15 56/108/98 140/135/125
f 55/109/99 60/110/100 139/134/124
f 139/134/124 60/110/100 59/111/101
f 56/108/98 139/134/124 140/135/125
f 140/135/125 139/134/124 141/136/126
f 139/134/124 59/111/101 141/136/126
f 141/136/126 59/111/101 58/26/24
f 57/17/15 140/135/125 33/18/16
f 33/18/16 140/135/125 32/137/127
f 140/135/125 141/136/126 32/137/127
f 32/137/127 141/136/126 31/138/128
f 141/136/126 58/26/24 31/138/128
f 31/138/128 58/26/24 3/13/11
f 49/116/106 7/32/28 54/117/107
f 50/115/105 49/116/106 142/139/129
f 51/14/12 50/115/105 143/140/130
f 49/116/106 54/117/107 142/139/129
f 142/139/129 54/117/107 53/118/108
f 50/115/105 142/139/129 143/140/130
f 143/140/130 142/139/129 144/141/131
f 142/139/129 53/118/108 144/141/131
f 144/141/131 53/118/108 52/25/23
f 51/14/12 143/140/130 21/15/13
f 21/15/13 143/140/130 20/142/132
f 143/140/130 144/141/131 20/142/132
f 20/142/132 144/141/131 19/143/133
f 144/141/131 52/25/23 19/143/133
f 19/143/133 52/25/23 2/4/4
f 43/123/113 11/44/40 48/87/79
f 44/122/112 43/123/113 145/144/134
f 45/12/10 44/122/112 146/145/135
f 43/123/113 48/87/79 145/144/134
f 145/144/134 48/87/79 47/88/80
f 44/122/112 145/144/134 146/145/135
f 146/145/135 145/144/134 147/146/136
f 145/144/134 47/88/80 147/146/136
f 147/146/136 47/88/80 46/31/27
f 45/12/10 146/145/135 24/5/5
f 24/5/5 146/145/135 23/147/137
f 146/145/135 147/146/136 23/147/137
f 23/147/137 147/146/136 22/148/138
f 147/146/136 46/31/27 22/148/138
f 22/148/138 46/31/27 6/22/20
f 27/149/139 6/22/20 42/24/22
f 26/150/140 27/149/139 148/151/141
f 25/11/9 26/150/140 149/152/142
f 27/149/139 42/24/22 148/151/141
f 148/151/141 42/24/22 41/127/117
f 26/150/140 148/151/141 149/152/142
f 149/152/142 148/151/141 150/153/143
f 148/151/141 41/127/117 150/153/143
f 150/153/143 41/127/117 40/128/118
f 25/11/9 149/152/142 36/9/8
f 36/9/8 149/152/142 35/154/144
f 149/152/142 150/153/143 35/154/144
f 35/154/144 150/153/143 34/155/145
f 150/153/143 40/128/118 34/155/145
f 34/155/145 40/128/118 5/19/17
f 34/155/145 5/19/17 39/21/19
f 35/154/144 34/155/145 151/156/146
f 36/9/8 35/154/144 152/157/147
f 34/155/145 39/21/19 151/156/146
f 151/156/146 39/21/19 38/132/122
f 35/154/144 151/156/146 152/157/147
f 152/157/147 151/156/146 153/158/148
f 151/156/146 38/132/122 153/158/148
f 153/158/148 38/132/122 37/133/123
f 36/9/8 152/157/147 30/10/7
f 30/10/7 152/157/147 29/159/149
f 152/157/147 153/158/148 29/159/149
f 29/159/149 153/158/148 28/160/150
f 153/158/148 37/133/123 28/160/150
f 28/160/150 37/133/123 4/27/14
f 28/161/150 4/16/14 33/18/16
f 29/162/149 28/161/150 154/163/151
f 30/7/7 29/162/149 155/164/152
f 28/161/150 33/18/16 154/163/151
f 154/163/151 33/18/16 32/137/127
f 29/162/149 154/163/151 155/164/152
f 155/164/152 154/163/151 156/165/153
f 154/163/151 32/137/127 156/165/153
f 156/165/153 32/137/127 31/138/128
f 30/7/7 155/164/152 15/2/2
f 15/2/2 155/164/152 14/166/154
f 155/164/152 156/165/153 14/166/154
f 14/166/154 156/165/153 13/167/155
f 156/165/153 31/138/128 13/167/155
f 13/167/155 31/138/128 3/13/11
f 22/148/138 6/22/20 27/149/139
f 23/147/137 22/148/138 157/168/156
f 24/5/5 23/147/137 158/169/157
f 22/148/138 27/149/139 157/168/156
f 157/168/156 27/149/139 26/150/140
f 23/147/137 157/168/156 158/169/157
f 158/169/157 157/168/156 159/170/158
f 157/168/156 26/150/140 159/170/158
f 159/170/158 26/150/140 25/11/9
f 24/5/5 158/169/157 18/6/6
f 18/6/6 158/169/157 17/171/159
f 158/169/157 159/170/158 17/171/159
f 17/171/159 159/170/158 16/3/3
f 159/170/158 25/11/9 16/3/3
f 16/3/3 25/11/9 1/1/1
f 13/167/155 3/13/11 21/15/13
f 14/166/154 13/167/155 160/172/160
f 15/2/2 14/166/154 161/173/161
f 13/167/155 21/15/13 160/172/160
f 160/172/160 21/15/13 20/142/132
f 14/166/154 160/172/160 161/173/161
f 161/173/161 160/172/160 162/174/162
f 160/172/160 20/142/132 162/174/162
f 162/174/162 20/142/132 19/143/133
f 15/2/2 161/173/161 16/3/3
f 16/3/3 161/173/161 17/171/159
f 161/173/161 162/174/162 17/171/159
f 17/171/159 162/174/162 18/6/6
f 162/174/162 19/143/133 18/6/6
f 18/6/6 19/143/133 2/4/4
