# Blender v2.81 (sub 16) OBJ File: ''
# www.blender.org
mtllib warning.mtl
o Cube
v 0.860062 -0.421116 -0.066550
v 0.864855 -0.412578 -0.066550
v 0.887873 -0.431116 -0.076550
v 0.860062 -0.421116 0.066550
v 0.887873 -0.431116 0.076550
v 0.864855 -0.412578 0.066550
v -0.005207 0.997043 -0.066550
v 0.000000 1.024787 -0.076550
v 0.005207 0.997043 -0.066550
v -0.860062 -0.421116 -0.066550
v -0.887873 -0.431116 -0.076550
v -0.864855 -0.412578 -0.066550
v -0.005207 0.997043 0.066550
v 0.005207 0.997043 0.066550
v 0.000000 1.024787 0.076550
v -0.864855 -0.412578 0.066550
v -0.887873 -0.431116 0.076550
v -0.860062 -0.421116 0.066550
v -0.083283 -0.300488 0.098468
v -0.083283 -0.290488 0.108468
v -0.093283 -0.290488 0.098468
v -0.083283 -0.123921 0.108468
v -0.083283 -0.113921 0.098468
v -0.093283 -0.123921 0.098468
v -0.083283 -0.300488 -0.098468
v -0.093283 -0.290488 -0.098468
v -0.083283 -0.290488 -0.108468
v -0.083283 -0.113921 -0.098468
v -0.083283 -0.123921 -0.108468
v -0.093283 -0.123921 -0.098468
v 0.083283 -0.300488 0.098468
v 0.093283 -0.290488 0.098468
v 0.083283 -0.290488 0.108468
v 0.083283 -0.113921 0.098468
v 0.083283 -0.123921 0.108468
v 0.093283 -0.123921 0.098468
v 0.083283 -0.300488 -0.098468
v 0.083283 -0.290488 -0.108468
v 0.093283 -0.290488 -0.098468
v 0.083283 -0.113921 -0.098468
v 0.093283 -0.123921 -0.098468
v 0.083283 -0.123921 -0.108468
v 0.982189 -0.484068 -0.076550
v 0.994793 -0.485531 -0.066550
v 0.990000 -0.494068 -0.066550
v -0.994793 -0.485531 -0.066550
v -0.982189 -0.484068 -0.076550
v -0.990000 -0.494068 -0.066550
v -0.990000 -0.494068 0.066550
v -0.982189 -0.484068 0.076550
v -0.994793 -0.485531 0.066550
v 0.000000 1.126489 0.076550
v 0.005207 1.137157 0.066550
v -0.005207 1.137157 0.066550
v -0.005207 1.137157 -0.066550
v 0.005207 1.137157 -0.066550
v 0.000000 1.126489 -0.076550
v 0.990000 -0.494068 0.066550
v 0.994793 -0.485531 0.066550
v 0.982189 -0.484068 0.076550
v -0.083283 -0.045602 0.098468
v -0.083283 -0.035602 0.108468
v -0.093283 -0.035602 0.098468
v -0.083283 0.512344 0.108468
v -0.083283 0.522344 0.098468
v -0.093283 0.512344 0.098468
v -0.083283 -0.045602 -0.098468
v -0.093283 -0.035602 -0.098468
v -0.083283 -0.035602 -0.108468
v -0.083283 0.522344 -0.098468
v -0.083283 0.512344 -0.108468
v -0.093283 0.512344 -0.098468
v 0.083283 -0.045602 0.098468
v 0.093283 -0.035602 0.098468
v 0.083283 -0.035602 0.108468
v 0.083283 0.522344 0.098468
v 0.083283 0.512344 0.108468
v 0.093283 0.512344 0.098468
v 0.083283 -0.045602 -0.098468
v 0.083283 -0.035602 -0.108468
v 0.093283 -0.035602 -0.098468
v 0.083283 0.522344 -0.098468
v 0.093283 0.512344 -0.098468
v 0.083283 0.512344 -0.108468
v 0.860062 -0.421116 -0.065862
v 0.852251 -0.411116 -0.055862
v 0.864855 -0.412578 -0.065862
v -0.860062 -0.421116 -0.065862
v -0.864855 -0.412578 -0.065862
v -0.852251 -0.411116 -0.055862
v -0.864855 -0.412578 0.065862
v -0.860062 -0.421116 0.065862
v -0.852251 -0.411116 0.055862
v -0.005207 0.997043 0.065862
v 0.000000 0.986374 0.055862
v 0.005207 0.997043 0.065862
v -0.005207 0.997043 -0.065862
v 0.005207 0.997043 -0.065862
v 0.000000 0.986374 -0.055862
v 0.860062 -0.421116 0.065862
v 0.864855 -0.412578 0.065862
v 0.852251 -0.411116 0.055862
vt 0.387647 0.274792
vt 0.600710 0.487855
vt 0.387647 0.487855
vt 0.387647 0.774792
vt 0.600710 0.987855
vt 0.387647 0.987855
vt 0.602336 0.989319
vt 0.387424 0.989319
vt 0.387424 0.273105
vt 0.602336 0.488017
vt 0.387424 0.773105
vt 0.602336 0.988017
vt 0.602336 0.989319
vt 0.387424 0.989319
vt 0.138400 0.511524
vt 0.361600 0.511524
vt 0.361600 0.738476
vt 0.138400 0.738476
vt 0.376302 0.516329
vt 0.623698 0.516329
vt 0.623698 0.733671
vt 0.376302 0.733671
vt 0.376302 0.016329
vt 0.623698 0.016329
vt 0.623698 0.233671
vt 0.376302 0.233671
vt 0.386122 0.988069
vt 0.386122 0.773053
vt 0.386122 0.773053
vt 0.386122 0.988069
vt 0.388400 0.763400
vt 0.611600 0.763400
vt 0.611600 0.986600
vt 0.388400 0.986600
vt 0.388400 0.511524
vt 0.611600 0.511524
vt 0.611600 0.738476
vt 0.388400 0.738476
vt 0.126250 0.516329
vt 0.373750 0.516329
vt 0.373750 0.733671
vt 0.126250 0.733671
vt 0.638400 0.511524
vt 0.861600 0.511524
vt 0.861600 0.738476
vt 0.638400 0.738476
vt 0.388400 0.011524
vt 0.611600 0.011524
vt 0.611600 0.238476
vt 0.388400 0.238476
vt 0.388400 0.263400
vt 0.611600 0.263400
vt 0.611600 0.486600
vt 0.388400 0.486600
vt 0.602336 0.489319
vt 0.387424 0.489319
vt 0.387424 0.489319
vt 0.602336 0.489319
vt 0.138400 0.511524
vt 0.361600 0.511524
vt 0.361600 0.738476
vt 0.138400 0.738476
vt 0.387424 0.273105
vt 0.602336 0.488017
vt 0.387424 0.773105
vt 0.602336 0.988017
vt 0.384598 0.268815
vt 0.384598 0.490783
vt 0.376525 0.498536
vt 0.376525 0.252989
vt 0.606566 0.490783
vt 0.622072 0.498536
vt 0.379402 0.763400
vt 0.620598 0.763400
vt 0.620598 0.986600
vt 0.379402 0.986600
vt 0.379402 0.511524
vt 0.620598 0.511524
vt 0.620598 0.738476
vt 0.379402 0.738476
vt 0.638400 0.511524
vt 0.861600 0.511524
vt 0.861600 0.738476
vt 0.638400 0.738476
vt 0.379402 0.011524
vt 0.620598 0.011524
vt 0.620598 0.238476
vt 0.379402 0.238476
vt 0.379402 0.263400
vt 0.620598 0.263400
vt 0.620598 0.486600
vt 0.379402 0.486600
vt 0.606566 0.990783
vt 0.384598 0.768815
vt 0.376525 0.752989
vt 0.622072 0.998536
vt 0.384598 0.990783
vt 0.376525 0.998536
vt 0.386122 0.488069
vt 0.386122 0.273053
vt 0.138400 0.750000
vt 0.125000 0.738476
vt 0.625000 0.986600
vt 0.611600 1.000000
vt 0.125000 0.511524
vt 0.138400 0.500000
vt 0.861600 0.500000
vt 0.875000 0.511524
vt 0.375000 0.738476
vt 0.361600 0.750000
vt 0.638400 0.750000
vt 0.625000 0.738476
vt 0.361600 0.500000
vt 0.375000 0.511524
vt 0.625000 0.511524
vt 0.638400 0.500000
vt 0.376302 0.500000
vt 0.375651 0.499375
vt 0.377318 0.250000
vt 0.375000 0.233671
vt 0.127226 0.750000
vt 0.125000 0.733671
vt 0.623698 0.998698
vt 0.623698 0.999349
vt 0.625000 0.233671
vt 0.622866 0.250000
vt 0.375000 0.733671
vt 0.372774 0.750000
vt 0.138400 0.750000
vt 0.125000 0.738476
vt 0.625000 0.986600
vt 0.620598 1.000000
vt 0.125000 0.511524
vt 0.138400 0.500000
vt 0.861600 0.500000
vt 0.875000 0.511524
vt 0.375000 0.738476
vt 0.361600 0.750000
vt 0.638400 0.750000
vt 0.625000 0.738476
vt 0.361600 0.500000
vt 0.375000 0.511524
vt 0.625000 0.511524
vt 0.638400 0.500000
vt 0.386122 0.488069
vt 0.386122 0.273053
vt 0.125000 0.516329
vt 0.127226 0.500000
vt 0.372774 0.500000
vt 0.623698 1.000000
vt 0.376302 1.000000
vt 0.376302 0.251302
vt 0.623698 0.498698
vt 0.625000 0.516329
vt 0.625000 0.733671
vt 0.376302 0.751302
vt 0.388400 1.000000
vt 0.875000 0.738476
vt 0.861600 0.750000
vt 0.379402 1.000000
vt 0.875000 0.738476
vt 0.861600 0.750000
vn 0.0000 0.0000 -1.0000
vn 0.0000 0.0000 1.0000
vn 0.6037 -0.3682 0.7071
vn 0.6037 -0.3682 -0.7071
vn -0.6037 -0.3682 0.7071
vn 0.8538 -0.5207 0.0000
vn 0.0000 -1.0000 0.0000
vn 0.8538 0.5207 0.0000
vn -0.8538 0.5207 0.0000
vn 0.0000 1.0000 0.0000
vn 1.0000 0.0000 0.0000
vn -1.0000 0.0000 0.0000
vn -0.8538 -0.5207 0.0000
vn -0.2830 0.1589 -0.9459
vn -0.2830 0.1589 0.9459
vn 0.0000 -0.3391 -0.9408
vn 0.2830 0.1589 -0.9459
vn 0.0000 -0.3391 0.9408
vn 0.2830 0.1589 0.9459
vn -0.5773 -0.5774 0.5773
vn -0.5773 0.5774 0.5773
vn -0.5773 -0.5774 -0.5773
vn -0.5773 0.5774 -0.5773
vn 0.5773 -0.5774 0.5773
vn 0.5773 0.5774 0.5773
vn 0.5773 -0.5774 -0.5773
vn 0.5773 0.5774 -0.5773
vn 0.5663 -0.3180 -0.7604
vn -0.5663 -0.3180 -0.7604
vn -0.5663 -0.3180 0.7604
vn 0.0000 0.6839 0.7296
vn 0.0000 0.6839 -0.7296
vn 0.5663 -0.3180 0.7604
vn -0.5773 -0.5774 0.5774
vn -0.5773 -0.5774 -0.5774
vn 0.5773 -0.5774 0.5774
vn 0.5773 -0.5774 -0.5774
vn -0.5663 0.3180 -0.7604
vn 0.5663 0.3180 -0.7604
vn 0.5663 0.3180 0.7604
vn 0.0000 -0.6839 0.7296
vn 0.0000 -0.6839 -0.7296
vn -0.5663 0.3180 0.7604
vn -0.8720 -0.4896 0.0000
vn 0.0000 -0.7071 -0.7071
vn -0.6037 0.3682 0.7071
vn -0.6037 0.3682 -0.7071
vn 0.0000 -0.7071 0.7071
vn 0.8720 -0.4896 0.0000
vn 0.6037 0.3682 -0.7071
vn 0.6037 0.3682 0.7071
vn -0.7071 -0.7071 0.0000
vn -0.7071 0.0000 0.7071
vn -0.7071 0.7071 0.0000
vn -0.7071 0.0000 -0.7071
vn 0.0000 0.7071 -0.7071
vn 0.7071 0.0000 -0.7071
vn 0.7071 -0.7071 0.0000
vn 0.7071 0.7071 0.0000
vn 0.7071 0.0000 0.7071
vn 0.0000 0.7071 0.7071
vn -0.6037 -0.3682 -0.7071
vn -0.8720 0.4896 0.0000
vn 0.8720 0.4896 0.0000
usemtl Orange
s off
f 90/1/1 99/2/1 86/3/1
f 102/4/2 95/5/2 93/6/2
f 93/6/3 95/5/3 94/7/3 91/8/3
f 99/2/4 90/1/4 89/9/4 97/10/4
f 95/5/5 102/4/5 101/11/5 96/12/5
usemtl Black
f 13/13/6 16/14/6 91/8/6 94/7/6
f 67/15/7 79/16/7 73/17/7 61/18/7
f 44/19/8 56/20/8 53/21/8 59/22/8
f 51/23/9 54/24/9 55/25/9 46/26/9
f 18/27/10 4/28/10 100/29/10 92/30/10
f 33/31/2 35/32/2 22/33/2 20/34/2
f 39/35/11 41/36/11 36/37/11 32/38/11
f 48/39/7 45/40/7 58/41/7 49/42/7
f 40/43/10 28/44/10 23/45/10 34/46/10
f 21/47/12 24/48/12 30/49/12 26/50/12
f 27/51/1 29/52/1 42/53/1 38/54/1
f 9/55/13 2/56/13 87/57/13 98/58/13
f 25/59/7 37/60/7 31/61/7 19/62/7
f 12/63/6 7/64/6 97/10/6 89/9/6
f 6/65/13 14/66/13 96/12/13 101/11/13
f 11/67/1 3/68/1 43/69/1 47/70/1
f 8/71/1 11/67/1 47/70/1 57/72/1
f 75/73/2 77/74/2 64/75/2 62/76/2
f 81/77/11 83/78/11 78/79/11 74/80/11
f 82/81/10 70/82/10 65/83/10 76/84/10
f 63/85/12 66/86/12 72/87/12 68/88/12
f 69/89/1 71/90/1 84/91/1 80/92/1
f 3/68/1 8/71/1 57/72/1 43/69/1
f 15/93/2 5/94/2 60/95/2 52/96/2
f 5/94/2 17/97/2 50/98/2 60/95/2
f 17/97/2 15/93/2 52/96/2 50/98/2
f 1/99/14 2/56/14 3/68/14
f 4/28/15 5/94/15 6/65/15
f 7/64/16 8/71/16 9/55/16
f 10/100/17 11/67/17 12/63/17
f 13/13/18 14/66/18 15/93/18
f 16/14/19 17/97/19 18/27/19
f 19/62/20 20/101/20 21/102/20
f 22/33/21 23/103/21 24/104/21
f 25/59/22 26/105/22 27/106/22
f 28/44/23 29/107/23 30/108/23
f 31/61/24 32/109/24 33/110/24
f 34/46/25 35/111/25 36/112/25
f 37/60/26 38/113/26 39/114/26
f 40/43/27 41/115/27 42/116/27
f 43/69/28 44/117/28 45/118/28
f 46/26/29 47/119/29 48/120/29
f 49/42/30 50/121/30 51/122/30
f 52/96/31 53/123/31 54/124/31
f 55/25/32 56/125/32 57/126/32
f 58/41/33 59/127/33 60/128/33
f 61/18/34 62/129/34 63/130/34
f 64/75/21 65/131/21 66/132/21
f 67/15/35 68/133/35 69/134/35
f 70/82/23 71/135/23 72/136/23
f 73/17/36 74/137/36 75/138/36
f 76/84/25 77/139/25 78/140/25
f 79/16/37 80/141/37 81/142/37
f 82/81/27 83/143/27 84/144/27
f 85/145/38 86/3/38 87/57/38
f 88/146/39 89/9/39 90/1/39
f 91/8/40 92/30/40 93/6/40
f 94/7/41 95/5/41 96/12/41
f 97/10/42 98/58/42 99/2/42
f 100/29/43 101/11/43 102/4/43
f 48/39/44 49/42/44 51/122/44 46/147/44
f 45/40/45 48/39/45 47/148/45 43/149/45
f 50/98/46 52/96/46 54/150/46 51/151/46
f 57/72/47 47/70/47 46/152/47 55/153/47
f 49/42/48 58/41/48 60/128/48 50/121/48
f 53/21/10 56/20/10 55/154/10 54/155/10
f 58/41/49 45/40/49 44/19/49 59/22/49
f 56/20/50 44/19/50 43/69/50 57/72/50
f 52/96/51 60/95/51 59/156/51 53/123/51
f 25/59/52 19/62/52 21/102/52 26/105/52
f 20/34/53 22/33/53 24/104/53 21/157/53
f 23/45/54 28/44/54 30/108/54 24/158/54
f 29/52/55 27/51/55 26/50/55 30/49/55
f 37/60/45 25/59/45 27/106/45 38/113/45
f 28/44/56 40/43/56 42/116/56 29/107/56
f 41/36/57 39/35/57 38/54/57 42/53/57
f 31/61/58 37/60/58 39/35/58 32/38/58
f 40/43/59 34/46/59 36/37/59 41/36/59
f 35/32/60 33/31/60 32/38/60 36/37/60
f 19/62/48 31/61/48 33/110/48 20/101/48
f 34/46/61 23/45/61 22/159/61 35/111/61
f 3/68/56 11/67/56 10/100/56 1/99/56
f 16/14/3 13/13/3 15/93/3 17/97/3
f 7/64/4 12/63/4 11/67/4 8/71/4
f 17/97/61 5/94/61 4/28/61 18/27/61
f 8/71/62 3/68/62 2/56/62 9/55/62
f 14/66/5 6/65/5 5/94/5 15/93/5
f 67/15/52 61/18/52 63/130/52 68/133/52
f 62/76/53 64/75/53 66/132/53 63/160/53
f 65/83/54 70/82/54 72/136/54 66/161/54
f 71/90/55 69/89/55 68/88/55 72/87/55
f 79/16/45 67/15/45 69/134/45 80/141/45
f 70/82/56 82/81/56 84/144/56 71/135/56
f 83/78/57 81/77/57 80/92/57 84/91/57
f 73/17/58 79/16/58 81/77/58 74/80/58
f 82/81/59 76/84/59 78/79/59 83/78/59
f 77/74/60 75/73/60 74/80/60 78/79/60
f 61/18/48 73/17/48 75/138/48 62/129/48
f 76/84/61 65/83/61 64/162/61 77/139/61
f 85/145/56 88/146/56 90/1/56 86/3/56
f 92/30/61 100/29/61 102/4/61 93/6/61
f 98/58/62 87/57/62 86/3/62 99/2/62
f 1/99/63 85/145/63 87/57/63 2/56/63
f 97/10/7 7/64/7 9/55/7 98/58/7
f 88/146/64 10/100/64 12/63/64 89/9/64
f 13/13/7 94/7/7 96/12/7 14/66/7
f 100/29/63 4/28/63 6/65/63 101/11/63
f 91/8/64 16/14/64 18/27/64 92/30/64
f 1/99/10 10/100/10 88/146/10 85/145/10
